<svg id="a0dac4ea-6925-401f-a486-3a33cffd0163" data-name="Layer 1" xmlns="http://www.w3.org/2000/svg" viewBox="0 0 49.65502 111.03957"><defs><style>.a4245484-63e8-4465-8e1b-b1224081e282{fill:#595979;}.a763e34f-ce05-4952-892d-2d95f1c4fbc5{fill:#1f72ec;}.e1ee148a-eeee-4a3c-8bd5-912530ce952a{fill:#fff;}</style></defs><rect class="a4245484-63e8-4465-8e1b-b1224081e282" y="19.54922" width="27.62957" height="65.16407"/><rect class="a4245484-63e8-4465-8e1b-b1224081e282" x="2.08525" y="104.78382" width="23.45906" height="2.86722"/><rect class="a4245484-63e8-4465-8e1b-b1224081e282" x="2.86722" y="108.17235" width="21.89513" height="2.86722"/><rect class="a4245484-63e8-4465-8e1b-b1224081e282" x="77.15041" y="117.7842" width="16.03036" height="6.55577" transform="translate(120.1587 221.49216) rotate(-180)"/><path class="a4245484-63e8-4465-8e1b-b1224081e282" d="M99.82751,124.63386s-6.64673.66733-6.64673-4.8143V68.85341l1.4336-24.76234V20.632h3.90985V44.48205l1.30328,24.37136" transform="translate(-50.17249 -20.632)"/><rect class="a763e34f-ce05-4952-892d-2d95f1c4fbc5" y="86.40756" width="27.62957" height="17.46397"/><path class="e1ee148a-eeee-4a3c-8bd5-912530ce952a" d="M58.95961,74.28665c.82881,0,1.65763-.00244,2.48642.00086a.80357.80357,0,0,1,.89921.90124q.00192,2.47362.00016,4.94722a.834.834,0,0,1-.96015.95253q-2.42235.00047-4.84468-.0005c-.6955-.00052-.995-.30376-.99567-.9998q-.00231-2.43513-.00557-4.87026a.83568.83568,0,0,1,.93386-.931Q57.7164,74.285,58.95961,74.28665Zm2.68508,3.4023c0-.803-.00636-1.60606.00416-2.40891.00288-.21924-.05807-.29751-.28813-.29625q-2.40888.01317-4.81787.001c-.218-.001-.30077.05922-.29967.28885q.01161,2.4089,0,4.81787c-.001.21931.06387.30009.29166.29895q2.40888-.01206,4.81785-.00119c.22257.001.29933-.06522.2963-.29143C61.63823,79.295,61.64481,78.49193,61.64469,77.689Z" transform="translate(-50.17249 -20.632)"/><path class="e1ee148a-eeee-4a3c-8bd5-912530ce952a" d="M58.95036,71c-.81159,0-1.62319.00259-2.43476-.0008-.67662-.00283-.97008-.29871-.97087-.96812q-.0029-2.44754-.0056-4.89508a.82816.82816,0,0,1,.90979-.929q2.47319-.00573,4.94639.00033c.66862.00179.9501.29113.95034.95441q.00086,2.43475,0,4.86952c-.00033.68025-.289.9701-.96057.96992q-1.21737-.00033-2.43475-.00005Zm2.69418-3.417c0-.80366-.00632-1.60741.00437-2.41093.00273-.20482-.06734-.26781-.264-.2672q-2.4366.0075-4.87322.00144c-.19428-.00043-.26923.06394-.26839.268q.01,2.42379.00027,4.84763c-.00088.21251.06848.27955.28016.27864q2.42379-.01042,4.84763,0c.21461.00095.27962-.072.27731-.281C61.63969,69.20753,61.645,68.39526,61.64454,67.58305Z" transform="translate(-50.17249 -20.632)"/><path class="e1ee148a-eeee-4a3c-8bd5-912530ce952a" d="M69.04491,71c-.82011.00021-1.64046-.01181-2.46025.00455a.86807.86807,0,0,1-.95925-.96058c.02506-1.43475.00769-2.87025.006-4.30545-.00024-.19628-.009-.39261-.01681-.58881a.84362.84362,0,0,1,.8759-.94257c.46969-.00881.93968-.002,1.40953-.002,1.17891,0,2.35783-.002,3.53673.00089.714.00177.99764.28571.99806.99232q.00141,2.39626-.00233,4.79253a1.713,1.713,0,0,1-.051.45583.769.769,0,0,1-.79938.55166C70.7364,71.003,69.89065,70.99978,69.04491,71Zm-2.708-3.39753c0,.79478.009,1.58971-.00528,2.38423-.00446.24866.07518.31648.3191.315q2.38424-.01473,4.76859-.00036c.23016.0013.30949-.05725.30816-.29813q-.01315-2.38424.00286-4.76856c.0018-.25769-.07673-.3341-.33363-.3325-1.58948.0099-3.17906.00716-4.76858.00052-.21589-.0009-.30025.05866-.29659.28994C66.34425,65.99569,66.33645,66.79913,66.33692,67.60245Z" transform="translate(-50.17249 -20.632)"/><path class="e1ee148a-eeee-4a3c-8bd5-912530ce952a" d="M65.64907,77.08659H64.39822c0,.58491.01235,1.1482-.00936,1.71018a.51854.51854,0,0,1-.20263.36718.32659.32659,0,0,1-.48465-.3028c-.00866-.70939-.00735-1.419-.001-2.12842.00221-.24657.15227-.3702.422-.37161.4345-.00227.869-.00061,1.32822-.00061.00833-.11561.02-.20634.0205-.29713.00213-.40175-.001-.80353.00171-1.20528.00255-.37524.09973-.47348.47052-.47374q2.38494-.00165,4.76986-.00043c.46159.00007.9232-.0013,1.38475.00332a.30379.30379,0,0,1,.32327.324.325.325,0,0,1-.28336.36719,1.38855,1.38855,0,0,1-.25589.006q-1.70535.00065-3.4107.00071c-.10069,0-.20137,0-.34247,0,0,.44112-.00058.8563.00013,1.27148.00114.66948-.03722.707-.7125.708-.31623.00045-.63246.00492-.94867.00883a.81765.81765,0,0,0-.118.02619c0,.08984,0,.1881,0,.28636q-.0002,1.61559.00053,3.23119c.00028.17219-.023.32775-.205.40228-.26577.1088-.495-.06812-.49569-.38816q-.00314-1.56431-.00071-3.12861Zm.52924-1.37992q0,.02554,0,.05109c0,.60462,0,.60462.59873.60565.64933.00112.64933.00112.64934-.66174,0-.61637,0-.61637-.61648-.61647C66.1783,75.08509,66.1783,75.08509,66.17831,75.70667Z" transform="translate(-50.17249 -20.632)"/><path class="e1ee148a-eeee-4a3c-8bd5-912530ce952a" d="M67.38451,72.42035c0,.28644.00224.53229-.00056.77808-.00357.31377-.12218.44518-.428.44551q-3.61455.004-7.22909-.00041c-.2951-.00038-.42938-.14869-.43549-.44964-.00468-.23048-.005-.461-.00857-.69154a.359.359,0,0,0-.03383-.08c-.30624,0-.62811-.00685-.949.00812-.04312.002-.11086.11159-.11593.17543-.01551.19532-.00268.3927-.007.58914-.00674.30513-.13767.443-.43557.44827-.33314.00595-.66658.00648-.9997-.00019-.24969-.005-.38064-.13224-.38363-.351-.00307-.22458.11953-.33863.37579-.3495l.05125-.00135c.6839-.01109.6839-.01109.68657-.70694.00165-.42921.08561-.516.504-.51644.5298-.00058,1.0596-.00164,1.58938.001.319.00158.4243.1106.43031.43252.00016.00854-.00034.01712.00024.02563.01667.24359-.05553.58013.07489.70495.13381.12806.46567.05671.711.05918.49555.005.99132-.00575,1.48674.00378.19284.00371.25721-.067.24735-.255-.01253-.23861-.00772-.47849-.00156-.71759.00618-.2398.12249-.35512.34294-.35631a.3212.3212,0,0,1,.35266.3487c.00867.25609.01017.51283.00223.7689-.00486.15689.05871.21269.21039.20967.299-.006.59823-.007.89713.00009.15644.00372.21156-.0599.20642-.21226-.00778-.23044-.00441-.4614-.00066-.69206.00465-.28551.12911-.42782.364-.4248.22707.00291.33512.1325.33834.413.00275.23923.00452.47859-.00016.71775-.00278.1417.05722.19951.19845.19787.35883-.00419.71777-.00362,1.07663-.00012.1322.00128.18172-.057.17893-.18579-.00464-.21351-.00537-.42739.00172-.64079a.35636.35636,0,0,1,.39649-.39689q.96128-.00611,1.92261.00094a.32932.32932,0,0,1,.36643.33692.34506.34506,0,0,1-.37632.36071c-.42716.00636-.85448.00221-1.28172.00244C67.61761,72.42039,67.52458,72.42035,67.38451,72.42035Z" transform="translate(-50.17249 -20.632)"/><path class="e1ee148a-eeee-4a3c-8bd5-912530ce952a" d="M68.39282,78.82609c0,.58709.00022,1.13215-.00022,1.67721a1.26535,1.26535,0,0,1-.00745.25545.32493.32493,0,0,1-.36655.28345.303.303,0,0,1-.32487-.32129q-.00555-1.12743.00083-2.25488a.32049.32049,0,0,1,.36209-.3414c.38432-.00429.769-.01106,1.15295.00044.19343.00579.25009-.06266.24431-.25179-.01277-.41814-.00506-.83694-.00387-1.25546.001-.35544.12388-.48267.47051-.48336q1.025-.00206,2.04994.00092c.29118.00118.43021.12081.42792.35455-.0023.23409-.1366.34317-.43732.34467-.51248.00255-1.02526.011-1.53732-.00369-.21929-.00627-.27917.07264-.27315.27972.01215.41816.00522.837.002,1.25547-.00261.33984-.12039.4563-.46665.45918C69.26889,78.82874,68.85176,78.82609,68.39282,78.82609Z" transform="translate(-50.17249 -20.632)"/><path class="e1ee148a-eeee-4a3c-8bd5-912530ce952a" d="M70.55768,73.64536c-.47775.00012-.95551.00245-1.43324-.00077-.27936-.00189-.43615-.13408-.43742-.35669-.00127-.224.147-.34247.43735-.34483.26445-.00216.52942-.01071.79324.00227.20554.01012.299-.05288.28215-.2726a5.03412,5.03412,0,0,1,.002-.5883c.00936-.22877.14189-.36782.34432-.358a.33619.33619,0,0,1,.3527.35806,5.7965,5.7965,0,0,1-.00094.614c-.01413.19745.07.25237.2527.24631.28973-.00961.5801-.00545.87008-.00041.24977.00434.38109.12943.37843.34725a.339.339,0,0,1-.38256.35191C71.5303,73.64946,71.044,73.64525,70.55768,73.64536Z" transform="translate(-50.17249 -20.632)"/><path class="e1ee148a-eeee-4a3c-8bd5-912530ce952a" d="M64.34331,68.64562c.00013.40982.00317.81966-.001,1.22943-.00264.26268-.13355.39977-.36264.3954-.22018-.00421-.337-.13291-.33765-.38894q-.00334-1.24223.00043-2.48448c.00078-.2445.13231-.38641.34386-.38756a.34528.34528,0,0,1,.35529.38113C64.34712,67.80888,64.34317,68.22728,64.34331,68.64562Z" transform="translate(-50.17249 -20.632)"/><path class="e1ee148a-eeee-4a3c-8bd5-912530ce952a" d="M70.81777,79.77287q-.00018-.44826-.00014-.89652a.30385.30385,0,0,1,.32587-.34172.32569.32569,0,0,1,.37317.33115q.01356.92193-.00234,1.84418a.32357.32357,0,0,1-.37087.33262.31246.31246,0,0,1-.32553-.34757Q70.81775,80.23394,70.81777,79.77287Z" transform="translate(-50.17249 -20.632)"/><path class="e1ee148a-eeee-4a3c-8bd5-912530ce952a" d="M64.3423,65.41641c0,.14484.00717.29011-.00163.4344a.32692.32692,0,0,1-.3691.33288.31276.31276,0,0,1-.33037-.34267c-.00076-.28966-.00223-.57936.001-.869a.30679.30679,0,0,1,.33843-.33176.31827.31827,0,0,1,.359.31634C64.35334,65.10871,64.34226,65.26307,64.3423,65.41641Z" transform="translate(-50.17249 -20.632)"/><path class="e1ee148a-eeee-4a3c-8bd5-912530ce952a" d="M56.24425,72.388c-.00031.14463.00326.28936-.00116.43384a.30352.30352,0,0,1-.31991.3234.31171.31171,0,0,1-.3695-.30179,8.06083,8.06083,0,0,1-.00015-.94359.30978.30978,0,0,1,.372-.29772.306.306,0,0,1,.31824.32654C56.2479,72.08166,56.24456,72.23487,56.24425,72.388Z" transform="translate(-50.17249 -20.632)"/><path class="e1ee148a-eeee-4a3c-8bd5-912530ce952a" d="M58.94008,76.077c.35014,0,.70036-.00448,1.05041.00125a.51476.51476,0,0,1,.56366.55509q.01056,1.05035.00161,2.10083a.52894.52894,0,0,1-.56316.56251c-.6575.00733-1.31516.01315-1.97261.00635-.50736-.00525-.687-.19947-.687-.70665,0-.62343-.00172-1.24686.00123-1.87028.00215-.456.20122-.65.658-.65049q.474-.00054.94795-.00007Zm-.90339.714c0,.57269-.00482,1.11776.00818,1.6624.00117.0493.11532.13411.1801.13718.30687.01454.61481.00639.92237.00638.70685,0,.70686,0,.70693-.7042,0-.36367,0-.72735,0-1.10176Z" transform="translate(-50.17249 -20.632)"/><path class="e1ee148a-eeee-4a3c-8bd5-912530ce952a" d="M60.5572,67.61894c0,.32463.0023.64928-.00057.97389a.56484.56484,0,0,1-.63188.634c-.62354.00757-1.24728.015-1.87075.0074-.41156-.005-.75028-.14288-.72592-.73589.02522-.61405.004-1.23.00587-1.845.00136-.46274.21068-.66859.67565-.669q.93544-.00077,1.87089.00036c.487.00106.67479.19214.6765.686C60.55808,66.98677,60.55719,67.30286,60.5572,67.61894Zm-.7043.89788c0-.58686.00417-1.13888-.00749-1.69056-.001-.04678-.10687-.12965-.16539-.13088-.494-.01044-.9885-.01121-1.48239.00195a.23224.23224,0,0,0-.15491.16529c-.01253.49393-.01157.98841-.00115,1.48244.00123.05814.08315.16335.1294.16432C58.72209,68.52092,59.27354,68.51682,59.8529,68.51682Z" transform="translate(-50.17249 -20.632)"/><path class="e1ee148a-eeee-4a3c-8bd5-912530ce952a" d="M70.6576,67.61326c-.00013.34169.0045.68347-.00141,1.02507a.55124.55124,0,0,1-.57537.58737c-.65756.01194-1.31562.01782-1.9731.00585-.48637-.00886-.67261-.21773-.673-.70027-.00046-.63215-.00266-1.2643.001-1.89642.00262-.454.20425-.6491.66331-.65q.94821-.0018,1.89642.00029c.45367.0012.65959.20545.66193.65424C70.65908,66.964,70.65772,67.28864,70.6576,67.61326Zm-.70265.88729c0-.57035.00493-1.11477-.0079-1.65877-.00123-.0522-.11192-.1443-.17359-.14584q-.72817-.0182-1.4569.00027c-.06054.00155-.16882.09708-.17009.15105-.01274.54373-.00776,1.08787-.00776,1.65329Z" transform="translate(-50.17249 -20.632)"/></svg>