<svg id="ac7645df-d11c-4da4-bfc7-45197073aaeb" data-name="Layer 1" xmlns="http://www.w3.org/2000/svg" viewBox="0 0 79.58482 113.80916"><defs><style>.a2657075-ae99-477f-98a6-622b803bdc97,.ae42eaed-ebba-4d46-9af5-e8ef53be4a19{fill:none;}.a2657075-ae99-477f-98a6-622b803bdc97,.ae42eaed-ebba-4d46-9af5-e8ef53be4a19,.b7ab97e7-833d-48b3-a3ed-7ace0a2e1841{stroke:#595979;stroke-linecap:round;stroke-linejoin:round;}.a2657075-ae99-477f-98a6-622b803bdc97{stroke-width:4px;}.e037a376-9b43-42b4-8e08-2fec50b466ea{fill:#1f72ec;}.b7ab97e7-833d-48b3-a3ed-7ace0a2e1841,.e09eeecd-db54-44fe-9b29-06ed2cc802d9{fill:#fff;}.ae42eaed-ebba-4d46-9af5-e8ef53be4a19,.b7ab97e7-833d-48b3-a3ed-7ace0a2e1841{stroke-width:3px;}.bf6f84d9-b969-4056-b5ca-b566eaefe214{fill:#595979;}</style></defs><line class="a2657075-ae99-477f-98a6-622b803bdc97" x1="2" y1="92.40497" x2="59.20242" y2="92.40497"/><path class="a2657075-ae99-477f-98a6-622b803bdc97" d="M43.7606,22.90449V127.74907s26.11811,11.17033,57.20242,0V22.90449H45.29255" transform="translate(-41.7606 -20.90449)"/><rect class="e037a376-9b43-42b4-8e08-2fec50b466ea" x="12.47532" y="20.20716" width="14.82353" height="14.82353"/><rect class="e037a376-9b43-42b4-8e08-2fec50b466ea" x="12.47532" y="41.33529" width="14.82353" height="14.82353"/><rect class="e037a376-9b43-42b4-8e08-2fec50b466ea" x="33.90357" y="20.20716" width="14.82353" height="14.82353"/><rect class="e037a376-9b43-42b4-8e08-2fec50b466ea" x="33.90357" y="41.33529" width="14.82353" height="14.82353"/><rect class="e037a376-9b43-42b4-8e08-2fec50b466ea" x="12.47532" y="62.81912" width="14.82353" height="14.82353"/><rect class="e037a376-9b43-42b4-8e08-2fec50b466ea" x="33.90357" y="62.81912" width="14.82353" height="14.82353"/><path class="b7ab97e7-833d-48b3-a3ed-7ace0a2e1841" d="M93.09752,54.76542c0-4.21448,4.64967-3.596,4.64967-3.596,1.21395-4.00834,5.47424-2.81729,5.47424-2.81729a3.09879,3.09879,0,0,1,4.174-2.60586l10.44371,10.44371-.00243-.00121.0026.0026c3.07611,5.672,2.653,12.37193-1.53417,16.55908-3.69393,3.69393-9.34,4.45452-14.51094,2.47646A17.34536,17.34536,0,0,1,98.8738,73.781l-.01558-.01038,2.93487,1.45528L87.57041,68.17293a3.60242,3.60242,0,0,1-.81752-3.7646c.91619-2.01562,3.89382-1.28267,3.89382-1.28267l6.36752,3.48153L81.57641,51.16937a2.86169,2.86169,0,0,1,.22905-3.71058,2.94932,2.94932,0,0,1,3.77929-.20614l13.4451,13.4451" transform="translate(-41.7606 -20.90449)"/><line class="ae42eaed-ebba-4d46-9af5-e8ef53be4a19" x1="61.46082" y1="27.44759" x2="66.56859" y2="32.55535"/><line class="ae42eaed-ebba-4d46-9af5-e8ef53be4a19" x1="55.98658" y1="30.26487" x2="60.77368" y2="35.05197"/><path class="bf6f84d9-b969-4056-b5ca-b566eaefe214" d="M43.7606,113.30946H100.963v14.43961s-26.67793,12.10673-57.20242,0Z" transform="translate(-41.7606 -20.90449)"/><circle class="e09eeecd-db54-44fe-9b29-06ed2cc802d9" cx="30.60121" cy="103.03196" r="6"/></svg>