<svg fill="#409c72" id="Layer_5" enable-background="new 0 0 64 64" height="512" viewBox="0 0 64 64" width="512" xmlns="http://www.w3.org/2000/svg"><g><path d="m52 33.256v-2.563l.862-.323c4.27-1.601 7.138-5.74 7.138-10.3v-5.07c1.103 0 2-.897 2-2v-2c0-1.103-.897-2-2-2h-.059c-.5-4.493-4.317-8-8.941-8h-8c-4.624 0-8.442 3.507-8.941 8h-.059c-1.103 0-2 .897-2 2v2c0 1.103.897 2 2 2h2v1.697l-1.487 2.229c-.336.505-.513 1.092-.513 1.697 0 1.23.684 2.336 1.785 2.888l.215.107v2.382c0 2.757 2.243 5 5 5h3v2.124l-1.178.157c-5.679.758-10.447 4.459-12.613 9.719h-5.209v-13h6v-8h-14v3h-2v-3h-6v-6h6v-10h-14v10h6v6h-6v8h14v-3h2v3h6v13h-4v-8h-5c-2.757 0-5 2.243-5 5v18c0 2.757 2.243 5 5 5h29v-4h9.402c5.844 0 10.598-4.755 10.598-10.599 0-6.905-4.486-13.025-11-15.145zm-49-25.256h10v6h-10zm10 20h-10v-4h10zm6-4h10v4h-10zm39-3.93c0 3.73-2.347 7.117-5.84 8.427l-.16.06v-2.057l2.267-1.7c1.085-.815 1.733-2.111 1.733-3.467 0-2.277-1.766-4.149-4-4.32v-2.013h6zm-15-17.07h8c3.519 0 6.432 2.614 6.92 6h-21.84c.488-3.386 3.401-6 6.92-6zm-9 8h26v2h-26zm7 18c-1.654 0-3-1.346-3-3v-3.618l-1.32-.66c-.42-.21-.68-.631-.68-1.099 0-.21.062-.413.177-.587l1.823-2.733v-2.303h12v4h1.667c1.286 0 2.333 1.047 2.333 2.333 0 .73-.349 1.429-.934 1.867l-3.066 2.3v8.5c0 1.103-.897 2-2 2s-2-.897-2-2v-5zm-27 8h3v6h-3c-1.654 0-3-1.346-3-3s1.346-3 3-3zm27 24h-27c-1.654 0-3-1.346-3-3v-14.026c.838.635 1.87 1.026 3 1.026h27v4c-2.206 0-4 1.794-4 4v2c0 2.206 1.794 4 4 4zm4-4h-4c-1.103 0-2-.897-2-2v-2c0-1.103.897-2 2-2h1.757c.534 0 1.036.208 1.415.586l.828.828zm7.402 0h-5.402v-4h3.879c1.634 0 3.171-.637 4.328-1.793 1.156-1.155 1.793-2.692 1.793-4.328v-2.879h-2v2.879c0 1.102-.429 2.136-1.207 2.914-.768.767-1.83 1.207-2.914 1.207h-4.465l-.828-.828c-.698-.698-1.61-1.089-2.586-1.148v-6.024h-10.602c2.026-4.193 6.001-7.111 10.689-7.736l1.092-.145c.487 1.659 2.006 2.881 3.821 2.881 1.751 0 3.226-1.138 3.767-2.707 5.486 1.966 9.233 7.209 9.233 13.108 0 4.742-3.857 8.599-8.598 8.599z"/><path d="m5 10h6v2h-6z"/><path d="m49 42h4v2h-4z"/></g></svg>