<svg id="b350438d-42b6-4d1f-9b9f-b5d668db0c72" data-name="Layer 1" xmlns="http://www.w3.org/2000/svg" viewBox="0 0 99.17638 66.97314"><defs><style>.b53391c6-5edb-4b57-a31f-9d51e8972eba{fill:#595979;}.bf50951d-278d-4fa0-b50f-7286296840a9{fill:none;stroke:#595979;stroke-linecap:round;stroke-linejoin:round;stroke-width:4px;}.acc90c2c-bd7d-4e0d-8f60-6044c550af44{fill:#1f72ec;}</style></defs><path class="b53391c6-5edb-4b57-a31f-9d51e8972eba" d="M80.67952,73.47385a1.45228,1.45228,0,0,1,0-2.90456A16,16,0,0,0,82.20626,38.6419a1.45375,1.45375,0,0,1-1.258-1.03815A13.857,13.857,0,0,0,67.71753,27.691a13.65061,13.65061,0,0,0-7.29259,2.09261,1.452,1.452,0,0,1-2.14934-.76124,21.09218,21.09218,0,0,0-41.06085,6.787,21.32045,21.32045,0,0,0,.435,4.28911,1.45264,1.45264,0,0,1-1.34094,1.743,13.77988,13.77988,0,0,0,.79,27.53724,1.45228,1.45228,0,0,1,0,2.90455,16.68559,16.68559,0,0,1-2.56347-33.17331,24.3149,24.3149,0,0,1-.22515-3.3006,23.99733,23.99733,0,0,1,46.10057-9.33875,16.59421,16.59421,0,0,1,7.30677-1.68416A16.78636,16.78636,0,0,1,83.43587,35.86428a18.90556,18.90556,0,0,1-2.75635,37.60957Z" transform="translate(-0.41181 -11.81768)"/><path class="bf50951d-278d-4fa0-b50f-7286296840a9" d="M80.67931,72.02177" transform="translate(-0.41181 -11.81768)"/><path class="b53391c6-5edb-4b57-a31f-9d51e8972eba" d="M80.67952,73.47385H61.68363a1.45228,1.45228,0,1,1,0-2.90456H80.67952a1.45228,1.45228,0,0,1,0,2.90456Z" transform="translate(-0.41181 -11.81768)"/><path class="b53391c6-5edb-4b57-a31f-9d51e8972eba" d="M38.58974,72.28323H16.07909a1.45228,1.45228,0,0,1,0-2.90455H38.58974a1.45228,1.45228,0,0,1,0,2.90455Z" transform="translate(-0.41181 -11.81768)"/><path class="acc90c2c-bd7d-4e0d-8f60-6044c550af44" d="M55.91175,78.79082H44.46408a1.45235,1.45235,0,0,1-1.45228-1.45227V56.38548H35.944a1.45244,1.45244,0,0,1-1.11013-2.38866L49.295,36.84924a1.40727,1.40727,0,0,1,1.1314-.51588,1.45306,1.45306,0,0,1,1.1158.54886L65.1647,54.02979a1.45277,1.45277,0,0,1-1.13743,2.35569H57.364V77.33855A1.45234,1.45234,0,0,1,55.91175,78.79082Zm-9.99539-2.90455h8.54312V54.93321a1.45234,1.45234,0,0,1,1.45227-1.45228h5.10673L50.3714,40.07822l-11.303,13.40271h5.39569a1.45235,1.45235,0,0,1,1.45228,1.45228Z" transform="translate(-0.41181 -11.81768)"/></svg>