<svg id="a0262578-7d31-4a82-9d06-1f7c418a6061" data-name="Layer 1" xmlns="http://www.w3.org/2000/svg" viewBox="0 0 93.3318 85.80495"><defs><style>.a62c3c16-06b8-4684-bb94-7eb7f18b4ea6{fill:#595979;}.b013e3ce-cd28-4ef4-8216-59da451f1dac{fill:#1f72ec;}</style></defs><circle class="a62c3c16-06b8-4684-bb94-7eb7f18b4ea6" cx="23.61393" cy="15.44875" r="3.95521"/><path class="a62c3c16-06b8-4684-bb94-7eb7f18b4ea6" d="M43.22938,36.3143a1.3748,1.3748,0,0,1-.876-2.43478,17.843,17.843,0,0,0,5.459-13.012A17.92789,17.92789,0,0,0,42.685,7.89578a1.37479,1.37479,0,0,1,1.80175-2.077,20.51882,20.51882,0,0,1,6.0752,15.04871,20.277,20.277,0,0,1-6.45783,15.132A1.36777,1.36777,0,0,1,43.22938,36.3143Z" transform="translate(-3.3341 -5.4822)"/><path class="a62c3c16-06b8-4684-bb94-7eb7f18b4ea6" d="M38.38,31.49676a1.3748,1.3748,0,0,1-.876-2.43478,11.05272,11.05272,0,0,0,3.41453-8.18373,11.2272,11.2272,0,0,0-3.21079-8.1693,1.3748,1.3748,0,0,1,1.80712-2.07228,13.981,13.981,0,0,1,4.15329,10.24158,13.82374,13.82374,0,0,1-4.41341,10.30368A1.36776,1.36776,0,0,1,38.38,31.49676Z" transform="translate(-3.3341 -5.4822)"/><path class="a62c3c16-06b8-4684-bb94-7eb7f18b4ea6" d="M33.51275,26.885a1.3748,1.3748,0,0,1-.876-2.43478,4.87723,4.87723,0,0,0,1.45738-3.56188,4.96963,4.96963,0,0,0-1.37716-3.573,1.38156,1.38156,0,0,1-.10975-1.93567,1.367,1.367,0,0,1,1.92291-.13124,7.72531,7.72531,0,0,1,2.31362,5.63987,7.64633,7.64633,0,0,1-2.45626,5.68182A1.36771,1.36771,0,0,1,33.51275,26.885Z" transform="translate(-3.3341 -5.4822)"/><path class="a62c3c16-06b8-4684-bb94-7eb7f18b4ea6" d="M10.30716,36.31363A1.36642,1.36642,0,0,1,9.4093,35.978,20.518,20.518,0,0,1,3.3341,20.92927,20.27779,20.27779,0,0,1,9.79194,5.79732a1.3747,1.3747,0,1,1,1.75073,2.11994,17.8431,17.8431,0,0,0-5.45895,13.012A18.10553,18.10553,0,0,0,11.21441,33.904a1.37548,1.37548,0,0,1-.90725,2.40961Z" transform="translate(-3.3341 -5.4822)"/><path class="a62c3c16-06b8-4684-bb94-7eb7f18b4ea6" d="M15.27775,31.49542a1.36263,1.36263,0,0,1-.89651-.33531A13.98061,13.98061,0,0,1,10.228,20.91886a13.82373,13.82373,0,0,1,4.41341-10.30367,1.3747,1.3747,0,1,1,1.75073,2.11994,11.05281,11.05281,0,0,0-3.41453,8.18373,11.22684,11.22684,0,0,0,3.2108,8.169,1.37619,1.37619,0,0,1-.91061,2.40759Z" transform="translate(-3.3341 -5.4822)"/><path class="a62c3c16-06b8-4684-bb94-7eb7f18b4ea6" d="M20.25841,26.88263a1.35747,1.35747,0,0,1-.89249-.334,7.72558,7.72558,0,0,1-2.31361-5.6402,7.646,7.646,0,0,1,2.4566-5.68183,1.375,1.375,0,0,1,1.75073,2.12062,4.873,4.873,0,0,0-1.45771,3.56121,4.97,4.97,0,0,0,1.37715,3.57329,1.37763,1.37763,0,0,1-.92067,2.40088Z" transform="translate(-3.3341 -5.4822)"/><path class="a62c3c16-06b8-4684-bb94-7eb7f18b4ea6" d="M26.76223,64.7308A1.37488,1.37488,0,0,1,25.38742,63.356V21.84256a1.37481,1.37481,0,0,1,2.74962,0V63.356A1.37488,1.37488,0,0,1,26.76223,64.7308Z" transform="translate(-3.3341 -5.4822)"/><path class="a62c3c16-06b8-4684-bb94-7eb7f18b4ea6" d="M95.29084,71.60216H6.67647A1.37492,1.37492,0,0,1,6.49824,68.864c.35444-.04632,36.11422-4.59231,88.91142-.006a1.37469,1.37469,0,0,1-.11882,2.74425Z" transform="translate(-3.3341 -5.4822)"/><path class="a62c3c16-06b8-4684-bb94-7eb7f18b4ea6" d="M53.15747,91.28715c-13.16574,0-28.928-.51219-46.59982-2.04744a1.37469,1.37469,0,0,1,.11882-2.74425H95.29084a1.37492,1.37492,0,0,1,.17856,2.73821C95.23311,89.26455,79.32548,91.28715,53.15747,91.28715Z" transform="translate(-3.3341 -5.4822)"/><path class="b013e3ce-cd28-4ef4-8216-59da451f1dac" d="M95.29084,84.63128H5.61918a1.37487,1.37487,0,0,1-1.37481-1.3748V75.17142a1.37488,1.37488,0,0,1,1.37481-1.37481H95.29084a1.37488,1.37488,0,0,1,1.37481,1.37481v8.08506A1.37487,1.37487,0,0,1,95.29084,84.63128ZM6.994,81.88167H93.916V76.54623H6.994Z" transform="translate(-3.3341 -5.4822)"/></svg>