<svg id="a4ca18a0-8553-4dcb-b330-fc532e0d9516" data-name="Layer 1" xmlns="http://www.w3.org/2000/svg" viewBox="0 0 96.52941 52.26723"><defs><style>.aca63aa6-471e-4b3d-b1c0-07a7c89d31b5{fill:#595979;}.a3294543-b343-4c2e-a666-a154e7a5a77a{fill:#1f72ec;}</style></defs><path class="aca63aa6-471e-4b3d-b1c0-07a7c89d31b5" d="M40.482,74.73041a359.16189,359.16189,0,0,1-37.73894-2.022,1.357,1.357,0,0,1,.1431-2.70631H74.57057a1.35665,1.35665,0,0,1,.214,2.69638C74.59309,72.72966,61.69158,74.73041,40.482,74.73041Z" transform="translate(-1.52941 -22.46318)"/><path class="aca63aa6-471e-4b3d-b1c0-07a7c89d31b5" d="M96.702,58.40974H76.84493a1.3568,1.3568,0,0,1,0-2.7136H96.702a1.3568,1.3568,0,0,1,0,2.7136Z" transform="translate(-1.52941 -22.46318)"/><path class="a3294543-b343-4c2e-a666-a154e7a5a77a" d="M28.53216,54.19724a1.35656,1.35656,0,0,1-1.03681-.48164L17.43,41.79359,9.81357,49.41a1.35666,1.35666,0,1,1-1.9186-1.9186l8.66019-8.6602a1.35685,1.35685,0,0,1,1.99612.08414l9.77286,11.57552,2.81-4.85512a1.3568,1.3568,0,0,1,2.13358-.27958l3.84316,3.84316,8.76552-13.28841a1.33816,1.33816,0,0,1,1.18389-.60884,1.35629,1.35629,0,0,1,1.13453.69662l7.35441,13.22846,4.08729-4.62789a1.35594,1.35594,0,0,1,1.8-.20935l7.27755,5.14563a1.35654,1.35654,0,1,1-1.56614,2.2154l-6.28381-4.44239-4.55137,5.15325a1.35693,1.35693,0,0,1-2.20281-.23916L46.90989,39.27212,38.46005,52.08188a1.35654,1.35654,0,0,1-2.09185.21233l-3.77028-3.77029-2.89148,4.99624a1.35645,1.35645,0,0,1-1.0547.67178C28.61166,54.19558,28.57191,54.19724,28.53216,54.19724Z" transform="translate(-1.52941 -22.46318)"/><path class="a3294543-b343-4c2e-a666-a154e7a5a77a" d="M92.12482,46.16675a1.05268,1.05268,0,0,1-.1431-.00994,1.018,1.018,0,0,1-.81223-.65654L88.34,37.80038l-3.824,7.03143a1.01718,1.01718,0,0,1-1.76225.04406l-2.49033-4.08L77.6757,44.45518a1.01759,1.01759,0,1,1-1.66154-1.17527l3.48143-4.92237a1.01756,1.01756,0,0,1,1.69931.05763L83.57129,42.309l4.05449-7.45544a1.01747,1.01747,0,0,1,1.849.13482l2.95143,8.03181,3.10845-4.22874a1.01772,1.01772,0,0,1,1.64035,1.20509L92.945,45.75169A1.01893,1.01893,0,0,1,92.12482,46.16675Z" transform="translate(-1.52941 -22.46318)"/><path class="aca63aa6-471e-4b3d-b1c0-07a7c89d31b5" d="M86.73472,65.15531a28.52492,28.52492,0,0,1-10.4231-1.84241,1.35637,1.35637,0,0,1-.82349-1.24749V25.67a2.0933,2.0933,0,0,1,1.88879-1.3568H96.702a1.35686,1.35686,0,0,1,1.3568,1.3568v36.3954a1.35629,1.35629,0,0,1-.89768,1.27664A30.73782,30.73782,0,0,1,86.73472,65.15531Zm-8.533-4.04191a28.58255,28.58255,0,0,0,17.1435-.01921V27.02681H78.20173Z" transform="translate(-1.52941 -22.46318)"/><path class="aca63aa6-471e-4b3d-b1c0-07a7c89d31b5" d="M68.54447,66.03444H8.85427a1.35686,1.35686,0,0,1-1.3568-1.35679V23.82a1.35686,1.35686,0,0,1,1.3568-1.3568h59.6902a1.35686,1.35686,0,0,1,1.3568,1.3568V64.67765A1.35686,1.35686,0,0,1,68.54447,66.03444Zm-58.3334-2.71359H67.18768V25.17678H10.21107Z" transform="translate(-1.52941 -22.46318)"/></svg>