<svg id="b4331a45-33e1-4097-b61a-2a6861685187" data-name="Layer 1" xmlns="http://www.w3.org/2000/svg" viewBox="0 0 96.1948 95.94766"><defs><style>.b34334ff-d957-40b5-937b-36a010d86f21{fill:#595979;}.e84a6362-9533-4a91-9c37-abb2b4f250bc{fill:#1f72ec;}</style></defs><path class="b34334ff-d957-40b5-937b-36a010d86f21" d="M42.87945,98.47059a1.42577,1.42577,0,0,1-1.42314-1.33926l-.53424-8.83677L32.01221,85.2492l-8.668,3.33562a1.42716,1.42716,0,0,1-1.53173-.33411L11.49031,77.68487a1.4256,1.4256,0,0,1-.09536-1.8843l4.576-5.74477-3.59143-8.94674L3.22642,59.99045a1.42608,1.42608,0,0,1-1.25225-1.38277L1.61673,42.84246a1.42574,1.42574,0,0,1,1.26165-1.44855l9.45454-1.0932,5.111-8.6255-6.0051-7.07812a1.42521,1.42521,0,0,1,.079-1.93023L22.48493,11.69973a1.42523,1.42523,0,0,1,1.84567-.14548L30.99037,16.391l9.427-3.274V9.44338c0-5.16772,1.84288-6.48888,2.4074-6.77045a1.423,1.423,0,0,1,.63657-.15H50.086A1.42563,1.42563,0,0,1,51.51157,3.9485V24.86474a1.42735,1.42735,0,0,1-1.42836,1.42592A24.488,24.488,0,1,0,74.57453,50.85332a1.42624,1.42624,0,0,1,.51092-1.17185,1.45829,1.45829,0,0,1,.9599-.33029l20.34371.0536a1.4258,1.4258,0,0,1,1.42209,1.42557v7.60088a1.4252,1.4252,0,0,1-1.214,1.40956l-7.90262,1.18543-3.63773,9.04559,5.23385,6.49376a1.42572,1.42572,0,0,1-.10233,1.90239L79.02806,89.62756a1.42537,1.42537,0,0,1-1.74856.21021l-6.40465-3.89458-9.7194,2.72725v7.33671a1.42534,1.42534,0,0,1-1.33787,1.42279L42.96716,98.4678C42.93793,98.46989,42.90869,98.47059,42.87945,98.47059ZM31.98333,82.30686a1.435,1.435,0,0,1,.46115.07657L42.74859,85.9056a1.426,1.426,0,0,1,.962,1.2627l.5057,8.36621,14.088-.868V87.59012a1.42576,1.42576,0,0,1,1.04065-1.37267l11.35658-3.18667a1.42733,1.42733,0,0,1,1.12557.15453l5.97656,3.63425,9.46324-9.46185-4.95471-6.1478a1.42511,1.42511,0,0,1-.21231-1.42627l4.25376-10.57837a1.42558,1.42558,0,0,1,1.111-.87811L94.96,57.20334V52.2521l-17.57121-.04594A27.33921,27.33921,0,1,1,48.66042,23.47605V5.37408H44.045c-.277.42635-.77648,1.5453-.77648,4.0693V14.1308a1.42567,1.42567,0,0,1-.95781,1.34657L31.22251,19.32844a1.42582,1.42582,0,0,1-1.3055-.19316l-6.27693-4.55864-9.1775,9.1775,5.81264,6.85119a1.42561,1.42561,0,0,1,.13956,1.649L14.42534,42.36251a1.426,1.426,0,0,1-1.06292.68947L4.49677,44.077l.3,13.23288,8.76507,1.07127a1.42568,1.42568,0,0,1,1.14993.884l4.21408,10.499a1.42576,1.42576,0,0,1-.20778,1.41931l-4.30875,5.40926L23.196,85.5868l8.27538-3.18458A1.42609,1.42609,0,0,1,31.98333,82.30686Z" transform="translate(-1.61636 -2.52293)"/><path class="e84a6362-9533-4a91-9c37-abb2b4f250bc" d="M86.32579,43.09966a1.42667,1.42667,0,0,1-.939-.35291L78.1684,36.427a1.4237,1.4237,0,0,1-.46777-1.30133,13.66984,13.66984,0,0,0-2.33257-9.36718c-2.13071-2.81879-5.60973-4.53951-10.341-5.11482a1.432,1.432,0,0,1-.61047-.22309l-5.83525-3.8288a1.42788,1.42788,0,0,1-.6411-1.11026l-.32855-5.71518a1.42654,1.42654,0,0,1,.955-1.42836l6.91836-2.40566a1.42507,1.42507,0,0,1,1.821.89655l1.46734,4.41177,3.13655.28957L73.54363,8.275a1.42522,1.42522,0,0,1,1.83418-.67137l7.37081,3.15256a1.42526,1.42526,0,0,1,.726,1.92467l-1.90588,3.99481,2.3291,3.05685,4.43752-1.24738A1.42567,1.42567,0,0,1,90.10134,19.5l2.0444,7.89288a1.42569,1.42569,0,0,1-.9418,1.71375l-3.7846,1.22406-.94459,2.98063,3.29735,1.7677a1.42641,1.42641,0,0,1,.59167,1.91353l-2.7725,5.33861a1.427,1.427,0,0,1-1.00166.74376A1.40981,1.40981,0,0,1,86.32579,43.09966ZM80.6033,34.76929l5.2944,4.63557,1.28706-2.47771-3.10035-1.6619a1.42548,1.42548,0,0,1-.685-1.687l1.52372-4.80854a1.4248,1.4248,0,0,1,.92023-.92579l3.20546-1.03681-1.34275-5.18338-3.96976,1.11547a1.42476,1.42476,0,0,1-1.51954-.50849L78.7733,17.7111a1.42516,1.42516,0,0,1-.15245-1.47779l1.64137-3.43969-4.77235-2.04126-1.46873,2.92633a1.43607,1.43607,0,0,1-1.40469.78031l-5.03268-.465a1.42507,1.42507,0,0,1-1.22162-.96965L65.057,9.09986l-4.53707,1.57767.22554,3.92417,4.96028,3.25453c5.37724.717,9.3999,2.8066,11.95939,6.21393A16.21,16.21,0,0,1,80.6033,34.76929Z" transform="translate(-1.61636 -2.52293)"/></svg>