<svg id="b005613e-1fa8-49b1-a49f-1bdb9863b0c6" data-name="Layer 1" xmlns="http://www.w3.org/2000/svg" viewBox="0 0 85.86668 94.41194"><defs><style>.a1a5f046-e381-4714-bf1e-bb6548fc405c{fill:#595979;}.aa888b9a-18d2-4d87-ba0b-bbe4b5e862ec{fill:#1f72ec;}</style></defs><path class="a1a5f046-e381-4714-bf1e-bb6548fc405c" d="M40.75538,87.62892a1.44307,1.44307,0,0,1-.32187-.03592A42.94188,42.94188,0,1,1,87.34262,66.91549a1.44245,1.44245,0,1,1-2.5073-1.42691A40.04573,40.04573,0,1,0,41.07442,84.78a1.44246,1.44246,0,0,1-.319,2.84889Z" transform="translate(-7.06666 -2.79403)"/><path class="a1a5f046-e381-4714-bf1e-bb6548fc405c" d="M40.75256,97.206a1.44287,1.44287,0,0,1-1.44029-1.51988l1.0413-19.41892a1.44212,1.44212,0,0,1,2.25517-1.11279l16.87112,11.5505A1.44244,1.44244,0,0,1,59.245,89.2157L41.33255,97.08412A1.43842,1.43842,0,0,1,40.75256,97.206Zm2.34426-18.22091-.77825,14.51559L55.708,87.61835Z" transform="translate(-7.06666 -2.79403)"/><path class="aa888b9a-18d2-4d87-ba0b-bbe4b5e862ec" d="M30.24372,57.9135l11.1575-14.8762a11.09553,11.09553,0,0,0,1.5072-2.65168,7.05914,7.05914,0,0,0,.53879-2.56365V37.7776a3.88263,3.88263,0,0,0-1.12195-2.97073,4.48157,4.48157,0,0,0-3.19118-1.05574,4.39626,4.39626,0,0,0-3.16864,1.155,5.24991,5.24991,0,0,0-1.4741,3.26794V38.196H29.8479v-.02183A11.95514,11.95514,0,0,1,31.465,33.47575,8.23387,8.23387,0,0,1,34.62305,30.505a9.41679,9.41679,0,0,1,4.46736-1.02334,11.13513,11.13513,0,0,1,4.885.97968,6.88143,6.88143,0,0,1,3.08131,2.84959,9.04264,9.04264,0,0,1,1.05574,4.511v.02184a9.93847,9.93847,0,0,1-.7043,3.54332,15.20873,15.20873,0,0,1-1.958,3.56446L36.18589,57.53881H48.28855v4.26911H30.24372Z" transform="translate(-7.06666 -2.79403)"/><path class="aa888b9a-18d2-4d87-ba0b-bbe4b5e862ec" d="M52.24953,53.006,62.988,29.83382h4.62161l-10.475,22.908H72.82491v4.15889H52.24953ZM66.04674,42.99364h4.37933V61.82975H66.04674Z" transform="translate(-7.06666 -2.79403)"/></svg>