<svg id="a0990e7a-da54-40db-b2be-607caa706a44" data-name="Layer 1" xmlns="http://www.w3.org/2000/svg" viewBox="0 0 93.56446 93.80719"><defs><style>.a2b1a933-4615-4a35-9b4a-fd13f1b93d18{fill:#595979;}.bca8291d-0100-4cd9-93f5-13f5f91c77db{fill:#1f72ec;}</style></defs><path class="a2b1a933-4615-4a35-9b4a-fd13f1b93d18" d="M49.18637,96.04688h-7.412a1.3904,1.3904,0,0,1-1.37489-1.18381l-1.15531-7.70632L30.4229,83.60939l-6.3321,5.10315a1.39029,1.39029,0,0,1-1.85514-.09978L11.353,77.73039a1.38986,1.38986,0,0,1-.205-1.70513l3.7975-6.24555L12.286,60.30107H5.13149A1.39017,1.39017,0,0,1,3.744,58.99644L2.73231,42.56529A1.39078,1.39078,0,0,1,4.03592,41.092l8.61691-.52131,2.97005-8.68852-3.25344-8.4523a1.3904,1.3904,0,0,1,.32616-1.49368L22.9993,11.87a1.39091,1.39091,0,0,1,1.83749-.093l5.60138,4.46237,8.7245-3.50222,1.09116-8.92576a1.39011,1.39011,0,0,1,1.34841-1.22114l15.3736-.34822a1.369,1.369,0,0,1,1.41256,1.23l1.06638,9.21967,8.4109,4.98436L74.7683,11.8198a1.3891,1.3891,0,0,1,1.88229.077L87.34494,22.59153a1.39014,1.39014,0,0,1,.14187,1.79981l-4.71692,6.49433,3.193,9.19321h3.582c5.03866,0,6.32769,1.79642,6.6026,2.34692a1.38925,1.38925,0,0,1,.14662.62109v6.46039A1.39024,1.39024,0,0,1,94.904,50.89745H74.507a1.39025,1.39025,0,0,1-1.39017-1.39017v-.00305A23.87969,23.87969,0,1,0,49.164,73.38748a1.3913,1.3913,0,0,1,1.46483,1.43429l-.05226,19.83834A1.39039,1.39039,0,0,1,49.18637,96.04688ZM42.9717,93.26655h4.82824l.0448-17.13472A26.66023,26.66023,0,1,1,75.86116,48.11712H93.51379V43.6164a7.43881,7.43881,0,0,0-3.96889-.7572h-4.571a1.39071,1.39071,0,0,1-1.31346-.934L79.90539,31.11205A1.39135,1.39135,0,0,1,80.0941,29.839l4.4454-6.121-8.94918-8.94952L68.909,20.43705a1.39088,1.39088,0,0,1-1.60805.13609l-9.85673-5.841a1.38969,1.38969,0,0,1-.67234-1.03618L55.772,5.05022l-12.90415.29255-1.045,8.54734a1.39026,1.39026,0,0,1-.86206,1.12136l-10.23787,4.1094a1.389,1.389,0,0,1-1.384-.20262l-5.27454-4.20171L15.293,23.28525l3.10615,8.06947a1.39014,1.39014,0,0,1,.018.94895L14.98244,42.35181a1.3906,1.3906,0,0,1-1.23166.93809l-8.158.49348.84611,13.73737h6.90093a1.39033,1.39033,0,0,1,1.33857,1.01479l3.10751,11.07515a1.39074,1.39074,0,0,1-.15069,1.09761l-3.544,5.82809,9.22748,9.22749,5.99441-4.831a1.38911,1.38911,0,0,1,1.39084-.207L41.0195,84.874a1.39016,1.39016,0,0,1,.8563,1.08335Zm50.762-49.47469Z" transform="translate(-2.72966 -2.23969)"/><path class="bca8291d-0100-4cd9-93f5-13f5f91c77db" d="M74.74319,95.3518h0a1.39031,1.39031,0,0,1-.98289-.40728L55.28667,76.46987a1.39,1.39,0,0,1,.98289-2.37305h6.01171v-17.151a1.39023,1.39023,0,0,1,1.39016-1.39016h21.7118a1.39023,1.39023,0,0,1,1.39017,1.39016V74.07849h6.46344a1.39,1.39,0,0,1,.98289,2.373l-18.49365,18.493A1.39034,1.39034,0,0,1,74.74319,95.3518ZM59.62584,76.87715l15.11735,15.1187,15.13771-15.137H85.38323a1.39023,1.39023,0,0,1-1.39016-1.39016V58.336H65.06159V75.487a1.39024,1.39024,0,0,1-1.39016,1.39017Z" transform="translate(-2.72966 -2.23969)"/><path class="bca8291d-0100-4cd9-93f5-13f5f91c77db" d="M72.73672,80.02053a6.07346,6.07346,0,0,1-1.60347-.69269,6.89331,6.89331,0,0,1-1.4006-1.15334l1.356-1.643a4.88808,4.88808,0,0,0,1.57846,1.29172,4.17951,4.17951,0,0,0,1.8859.4306,3.34376,3.34376,0,0,0,2.09836-.54941,1.99912,1.99912,0,0,0,.69269-1.66779v-.01a1.74143,1.74143,0,0,0-.33657-1.12834,2.05077,2.05077,0,0,0-.87093-.62368,7.96968,7.96968,0,0,0-1.36581-.36627.18216.18216,0,0,0-.05453-.00978.16965.16965,0,0,1-.05453-.01c-.03309-.00639-.06769-.01316-.10379-.01974-.03647-.00658-.07107-.01316-.10416-.01974a13.25486,13.25486,0,0,1-2.14763-.5543,3.0437,3.0437,0,0,1-1.40548-1.11367,3.86029,3.86029,0,0,1-.584-2.29146V69.88a4.93995,4.93995,0,0,1,.52459-2.40033,3.31125,3.31125,0,0,1,1.56869-1.43539,6.27342,6.27342,0,0,1,2.61806-.48,6.60569,6.60569,0,0,1,1.37108.14365,6.85088,6.85088,0,0,1,1.341.43547,8.69532,8.69532,0,0,1,1.31655.72746L77.839,68.54366a6.22787,6.22787,0,0,0-1.43012-.73744,4.18611,4.18611,0,0,0-1.38085-.24255,3.02665,3.02665,0,0,0-1.96.53945,1.97782,1.97782,0,0,0-.65319,1.61833v.01a1.68309,1.68309,0,0,0,.37605,1.16313,2.22093,2.22093,0,0,0,.94539.6186,14.34585,14.34585,0,0,0,1.5591.41572l.079.01974c.02632.00658.056.01336.08912.01975.0331.00677.0643.01335.094.01993s.06091.01316.094.01974a9.34371,9.34371,0,0,1,1.95508.62857,3.14432,3.14432,0,0,1,1.3113,1.19264,4.12673,4.12673,0,0,1,.52459,2.23712v.01975a4.51864,4.51864,0,0,1-.54415,2.32117A3.335,3.335,0,0,1,77.27,79.793a6.9802,6.9802,0,0,1-2.717.46028A6.90347,6.90347,0,0,1,72.73672,80.02053Zm.99466-16.05979h2.019v2.25687h-2.019Zm0,15.51038h2.019v2.38566h-2.019Z" transform="translate(-2.72966 -2.23969)"/></svg>