<svg id="b098bc74-16ea-4b88-b358-46d7b69af0a4" data-name="Layer 1" xmlns="http://www.w3.org/2000/svg" viewBox="0 0 83.56717 95.88235"><defs><style>.b80c0109-0766-4a98-ae6c-792803398599{fill:#595979;}.e5a6b78b-2e79-42d9-8505-e579cfb0da7c{fill:#1f72ec;}</style></defs><path class="b80c0109-0766-4a98-ae6c-792803398599" d="M30.10826,97.94118H13.30591a5.09524,5.09524,0,0,1-5.0895-5.0895V77.16239a5.09524,5.09524,0,0,1,5.0895-5.08951H30.10826a5.09524,5.09524,0,0,1,5.0895,5.08951V92.85168A5.09524,5.09524,0,0,1,30.10826,97.94118ZM13.30591,74.8528a2.31235,2.31235,0,0,0-2.30958,2.30959V92.85168a2.31235,2.31235,0,0,0,2.30958,2.30958H30.10826a2.31235,2.31235,0,0,0,2.30958-2.30958V77.16239a2.31235,2.31235,0,0,0-2.30958-2.30959Z" transform="translate(-8.21641 -2.05882)"/><path class="b80c0109-0766-4a98-ae6c-792803398599" d="M86.69341,97.94118H69.89174a5.09538,5.09538,0,0,1-5.09018-5.0895v-37.12a5.09567,5.09567,0,0,1,5.09018-5.08984H86.69341a5.09567,5.09567,0,0,1,5.09018,5.08984v37.12A5.09538,5.09538,0,0,1,86.69341,97.94118ZM69.89174,53.42179a2.31278,2.31278,0,0,0-2.31026,2.30992v37.12a2.31271,2.31271,0,0,0,2.31026,2.30958H86.69341a2.31271,2.31271,0,0,0,2.31026-2.30958v-37.12a2.31278,2.31278,0,0,0-2.31026-2.30992Z" transform="translate(-8.21641 -2.05882)"/><path class="e5a6b78b-2e79-42d9-8505-e579cfb0da7c" d="M58.485,97.94118H41.68265a5.09552,5.09552,0,0,1-5.08984-5.0895V35.49553a5.09552,5.09552,0,0,1,5.08984-5.0895H58.485a5.09523,5.09523,0,0,1,5.0895,5.0895V92.85168A5.09523,5.09523,0,0,1,58.485,97.94118ZM41.68265,33.186a2.31242,2.31242,0,0,0-2.30993,2.30958V92.85168a2.31264,2.31264,0,0,0,2.30993,2.30958H58.485a2.31256,2.31256,0,0,0,2.30958-2.30958V35.49553A2.31235,2.31235,0,0,0,58.485,33.186Z" transform="translate(-8.21641 -2.05882)"/><path class="e5a6b78b-2e79-42d9-8505-e579cfb0da7c" d="M56.40989,25.59751a1.385,1.385,0,0,1-.64679-.15983l-6.098-3.2058-6.09838,3.2058a1.38966,1.38966,0,0,1-2.01673-1.465l1.16464-6.79063-4.93341-4.80887a1.38965,1.38965,0,0,1,.77032-2.37066l6.81778-.99089,3.04936-6.17812a1.39,1.39,0,0,1,1.24642-.77473h0a1.39,1.39,0,0,1,1.24641.77473l3.049,6.17812,6.81779.99089a1.38939,1.38939,0,0,1,.77031,2.37066l-4.9334,4.80887,1.16463,6.79063a1.3896,1.3896,0,0,1-1.36994,1.62479ZM41.7383,12.34845l3.43994,3.35307a1.39011,1.39011,0,0,1,.39975,1.23013l-.812,4.73488,4.25233-2.23526a1.38861,1.38861,0,0,1,1.29359,0l4.252,2.23526-.812-4.73488a1.39011,1.39011,0,0,1,.39975-1.23013l3.44028-3.35307-4.75422-.69091a1.38918,1.38918,0,0,1-1.04655-.76013l-2.126-4.308-2.12634,4.308a1.38918,1.38918,0,0,1-1.04654.76013Z" transform="translate(-8.21641 -2.05882)"/><path class="b80c0109-0766-4a98-ae6c-792803398599" d="M82.55611,46.39123a1.04307,1.04307,0,0,1-.48526-.11979l-3.77828-1.98652L74.5143,46.27144a1.04256,1.04256,0,0,1-1.5128-1.0988L73.723,40.9651l-3.05682-2.97979a1.04237,1.04237,0,0,1,.57756-1.77817l4.22485-.61421L77.358,31.76477a1.04216,1.04216,0,0,1,1.86911,0l1.88948,3.82816,4.22485.61421a1.04237,1.04237,0,0,1,.57756,1.77817l-3.0575,2.97979.72213,4.20754a1.04256,1.04256,0,0,1-1.02754,1.21859ZM73.634,37.96665l1.93631,1.88777a1.04364,1.04364,0,0,1,.3.92268l-.45676,2.6659,2.39374-1.25863a1.04412,1.04412,0,0,1,.97053,0L81.17158,43.443l-.45744-2.6659a1.04364,1.04364,0,0,1,.3-.92268l1.937-1.88777-2.67676-.38923a1.04145,1.04145,0,0,1-.78457-.5701l-1.19721-2.42564-1.19721,2.42564a1.04142,1.04142,0,0,1-.78456.5701Z" transform="translate(-8.21641 -2.05882)"/><path class="b80c0109-0766-4a98-ae6c-792803398599" d="M25.971,67.44421a1.0438,1.0438,0,0,1-.48526-.11944l-3.77861-1.98721-3.77861,1.98721a1.04267,1.04267,0,0,1-1.51281-1.09948l.72179-4.20789L14.08064,59.038a1.04237,1.04237,0,0,1,.57757-1.77817l4.22484-.61387,1.88914-3.82816a1.04245,1.04245,0,0,1,1.86979,0l1.88914,3.82816,4.22485.61387a1.04237,1.04237,0,0,1,.57756,1.77817L26.27671,62.0174l.72179,4.20789A1.04208,1.04208,0,0,1,25.971,67.44421Zm-4.26387-4.32665a1.048,1.048,0,0,1,.48526.11945l2.39408,1.259L24.129,61.83009a1.04276,1.04276,0,0,1,.3-.923l1.93665-1.88744-2.67676-.38889A1.04392,1.04392,0,0,1,22.904,58.06l-1.19687-2.4253L20.51022,58.06a1.044,1.044,0,0,1-.78491.57078l-2.67676.38889,1.93665,1.88744a1.04273,1.04273,0,0,1,.3.923L18.82774,64.496l2.39408-1.259A1.048,1.048,0,0,1,21.70709,63.11756Z" transform="translate(-8.21641 -2.05882)"/></svg>