<svg id="eaad5b5c-2dd3-45ed-82c8-9a8db5b5042b" data-name="Layer 1" xmlns="http://www.w3.org/2000/svg" viewBox="0 0 985.19538 427.35856"><defs><style>.f0c98cbb-bdd6-4202-a36a-7128c3fb8707{opacity:0.4;}.b5111b3e-a90f-4566-83a6-64913e99d186{fill:#d0d7e2;}.e3e687fd-0c77-40e0-ac5d-3c374600e278{fill:#7587a0;}.e34f453f-6c64-41a8-bbd1-c5fe225cabfc{fill:#3396ff;}.b3fbc4bb-141f-4113-8f25-f424024f430d{fill:#a7b3c6;}.e844665b-1709-4c66-b655-e47d9d2abc80{fill:#069;}.ef8c83c3-be66-4eae-9091-b416638dbefe{fill:#54687f;}.a74c9b07-2b93-4009-b031-133a1d3ea674,.b85c844f-404c-4117-999b-8b976b40fc84,.eaa86769-8e90-4950-854c-8416d7815433,.f3c731a9-b3b0-4f6e-a922-13caf064765b{fill:none;stroke-miterlimit:10;}.f3c731a9-b3b0-4f6e-a922-13caf064765b{stroke:#d0d7e2;}.b85c844f-404c-4117-999b-8b976b40fc84{stroke:#7587a0;}.a74c9b07-2b93-4009-b031-133a1d3ea674{stroke:#3396ff;}.a7fb3de3-c1f7-4622-9ab3-86c47165718b{fill:#e84b65;}.eaa86769-8e90-4950-854c-8416d7815433{stroke:#e84b65;}</style></defs><g class="f0c98cbb-bdd6-4202-a36a-7128c3fb8707"><rect class="b5111b3e-a90f-4566-83a6-64913e99d186" x="15.54641" y="233.85629" width="39.63764" height="58.62636" rx="4.47668"/><rect class="b5111b3e-a90f-4566-83a6-64913e99d186" x="15.54641" width="39.63764" height="58.62636" rx="4.47668"/><rect class="b5111b3e-a90f-4566-83a6-64913e99d186" x="127.81264" y="1.70864" width="28.77923" height="34.42314" rx="4.47668"/><rect class="b5111b3e-a90f-4566-83a6-64913e99d186" x="114.48637" y="118.8405" width="57.65403" height="8.67465" rx="2.85143"/><rect class="e3e687fd-0c77-40e0-ac5d-3c374600e278" x="120.20895" y="29.6477" width="45.95328" height="19.82888"/><rect class="b5111b3e-a90f-4566-83a6-64913e99d186" x="104.13992" y="49.47659" width="78.09134" height="56.99486" rx="4.88649"/><circle class="e3e687fd-0c77-40e0-ac5d-3c374600e278" cx="174.4669" cy="57.3219" r="2.32651"/><circle class="b5111b3e-a90f-4566-83a6-64913e99d186" cx="174.4669" cy="57.3219" r="1.76702"/><rect class="e34f453f-6c64-41a8-bbd1-c5fe225cabfc" x="174.10913" y="55.91312" width="0.71554" height="2.81757"/><rect class="e34f453f-6c64-41a8-bbd1-c5fe225cabfc" x="174.10913" y="55.91312" width="0.71554" height="2.81757" transform="translate(231.7888 -117.145) rotate(90)"/><circle class="e3e687fd-0c77-40e0-ac5d-3c374600e278" cx="174.4669" cy="98.73292" r="2.32651"/><circle class="b5111b3e-a90f-4566-83a6-64913e99d186" cx="174.4669" cy="98.73292" r="1.76702"/><rect class="e34f453f-6c64-41a8-bbd1-c5fe225cabfc" x="174.10913" y="97.32414" width="0.71554" height="2.81757"/><rect class="e34f453f-6c64-41a8-bbd1-c5fe225cabfc" x="174.10913" y="97.32414" width="0.71554" height="2.81757" transform="translate(273.19983 -75.73398) rotate(90)"/><circle class="e3e687fd-0c77-40e0-ac5d-3c374600e278" cx="112.15986" cy="57.3219" r="2.32651"/><circle class="b5111b3e-a90f-4566-83a6-64913e99d186" cx="112.15986" cy="57.3219" r="1.76702"/><rect class="e34f453f-6c64-41a8-bbd1-c5fe225cabfc" x="111.80209" y="55.91312" width="0.71554" height="2.81757"/><rect class="e34f453f-6c64-41a8-bbd1-c5fe225cabfc" x="111.80209" y="55.91312" width="0.71554" height="2.81757" transform="translate(169.48176 -54.83796) rotate(90)"/><circle class="e3e687fd-0c77-40e0-ac5d-3c374600e278" cx="112.15986" cy="98.73292" r="2.32651"/><circle class="b5111b3e-a90f-4566-83a6-64913e99d186" cx="112.15986" cy="98.73292" r="1.76702"/><rect class="e34f453f-6c64-41a8-bbd1-c5fe225cabfc" x="111.80209" y="97.32414" width="0.71554" height="2.81757"/><rect class="e34f453f-6c64-41a8-bbd1-c5fe225cabfc" x="111.80209" y="97.32414" width="0.71554" height="2.81757" transform="translate(210.89278 -13.42694) rotate(90)"/><rect class="b3fbc4bb-141f-4113-8f25-f424024f430d" x="6.85977" y="29.31318" width="57.01092" height="218.91063" rx="7.81821"/><rect class="b3fbc4bb-141f-4113-8f25-f424024f430d" x="6.85977" y="288.5115" width="57.01092" height="138.67256" rx="7.81821"/><circle class="b3fbc4bb-141f-4113-8f25-f424024f430d" cx="35.36523" cy="15.64371" r="8.00183"/><circle class="b3fbc4bb-141f-4113-8f25-f424024f430d" cx="142.20225" cy="15.64371" r="8.00183"/><rect class="b3fbc4bb-141f-4113-8f25-f424024f430d" x="55.18405" y="7.14122" width="72.62859" height="4.41859"/><rect class="b3fbc4bb-141f-4113-8f25-f424024f430d" x="116.23372" y="110.44667" width="12.36905" height="4.41859" transform="translate(235.07421 -9.76227) rotate(90)"/><rect class="b3fbc4bb-141f-4113-8f25-f424024f430d" x="137.00106" y="110.44667" width="12.36905" height="4.41859" transform="translate(255.84156 -30.52962) rotate(90)"/><rect class="b3fbc4bb-141f-4113-8f25-f424024f430d" x="157.76841" y="110.44667" width="12.36905" height="4.41859" transform="translate(276.6089 -51.29696) rotate(90)"/><rect class="b3fbc4bb-141f-4113-8f25-f424024f430d" x="55.18405" y="19.88627" width="72.62859" height="4.41859"/><rect class="b3fbc4bb-141f-4113-8f25-f424024f430d" x="120.20895" y="47.20891" width="45.95328" height="2.26768"/><rect class="b3fbc4bb-141f-4113-8f25-f424024f430d" x="127.81264" y="27.38002" width="28.77923" height="2.26768"/><rect class="b3fbc4bb-141f-4113-8f25-f424024f430d" y="288.5115" width="163.19899" height="138.67256" rx="7.81821"/></g><g class="f0c98cbb-bdd6-4202-a36a-7128c3fb8707"><rect class="b3fbc4bb-141f-4113-8f25-f424024f430d" x="800.31914" y="77.93559" width="184.87624" height="348.79718" rx="7.81821"/><rect class="e3e687fd-0c77-40e0-ac5d-3c374600e278" x="824.23837" y="101.5429" width="136.98065" height="38.04329" rx="3.60173"/><circle class="e3e687fd-0c77-40e0-ac5d-3c374600e278" cx="853.39272" cy="120.96482" r="13.99114"/><circle class="b5111b3e-a90f-4566-83a6-64913e99d186" cx="853.39272" cy="120.96482" r="12.54354"/><path class="e3e687fd-0c77-40e0-ac5d-3c374600e278" d="M845.99161,123.53939a7.99873,7.99873,0,1,1,15.07026,0h2.31962a10.21755,10.21755,0,1,0-19.7095,0Z"/><path class="e34f453f-6c64-41a8-bbd1-c5fe225cabfc" d="M853.52676,110.65929c-.08849,0-.17418.011-.26213.01324v2.21878c.08781-.00285.17364-.01324.26213-.01324a7.98089,7.98089,0,0,1,7.53511,10.66132h2.31962a10.18589,10.18589,0,0,0-9.85473-12.8801Z"/><circle class="b3fbc4bb-141f-4113-8f25-f424024f430d" cx="853.39272" cy="122.21583" r="1.65129"/><polyline class="b3fbc4bb-141f-4113-8f25-f424024f430d" points="855.044 122.216 853.393 114.298 851.741 122.216"/><circle class="e3e687fd-0c77-40e0-ac5d-3c374600e278" cx="892.72869" cy="120.96482" r="13.99114"/><circle class="b5111b3e-a90f-4566-83a6-64913e99d186" cx="892.72869" cy="120.96482" r="12.54354"/><path class="e3e687fd-0c77-40e0-ac5d-3c374600e278" d="M885.32758,123.53939a7.99873,7.99873,0,1,1,15.07027,0h2.31961a10.21755,10.21755,0,1,0-19.70949,0Z"/><path class="e34f453f-6c64-41a8-bbd1-c5fe225cabfc" d="M892.86274,110.65929c-.0885,0-.17419.011-.26214.01324v2.21878c.08782-.00285.17364-.01324.26214-.01324a7.98089,7.98089,0,0,1,7.53511,10.66132h2.31961a10.18589,10.18589,0,0,0-9.85472-12.8801Z"/><circle class="b3fbc4bb-141f-4113-8f25-f424024f430d" cx="892.72869" cy="122.21583" r="1.65129"/><polyline class="b3fbc4bb-141f-4113-8f25-f424024f430d" points="894.38 122.216 892.729 114.298 891.077 122.216"/><circle class="e3e687fd-0c77-40e0-ac5d-3c374600e278" cx="931.9539" cy="120.56454" r="13.99114"/><circle class="b5111b3e-a90f-4566-83a6-64913e99d186" cx="931.9539" cy="120.56454" r="12.54354"/><path class="e3e687fd-0c77-40e0-ac5d-3c374600e278" d="M924.55279,123.13911a7.99873,7.99873,0,1,1,15.07027,0h2.31961a10.21755,10.21755,0,1,0-19.70949,0Z"/><path class="e34f453f-6c64-41a8-bbd1-c5fe225cabfc" d="M932.088,110.259c-.0885,0-.17419.011-.26214.01323V112.491c.08782-.00286.17364-.01324.26214-.01324a7.98088,7.98088,0,0,1,7.53511,10.66131h2.31961A10.18588,10.18588,0,0,0,932.088,110.259Z"/><circle class="b3fbc4bb-141f-4113-8f25-f424024f430d" cx="931.38968" cy="120.89786" r="1.65129"/><polyline class="b3fbc4bb-141f-4113-8f25-f424024f430d" points="932.557 122.065 936.988 115.299 930.222 119.73"/><circle class="e3e687fd-0c77-40e0-ac5d-3c374600e278" cx="953.6689" cy="108.02101" r="2.8638"/><circle class="b5111b3e-a90f-4566-83a6-64913e99d186" cx="953.6689" cy="108.02101" r="2.1751"/><rect class="e34f453f-6c64-41a8-bbd1-c5fe225cabfc" x="953.22851" y="106.28687" width="0.88079" height="3.46827"/><rect class="e34f453f-6c64-41a8-bbd1-c5fe225cabfc" x="953.22851" y="106.28687" width="0.88079" height="3.46827" transform="translate(1061.68991 -845.64789) rotate(90)"/><circle class="e3e687fd-0c77-40e0-ac5d-3c374600e278" cx="953.6689" cy="133.50836" r="2.8638"/><circle class="b5111b3e-a90f-4566-83a6-64913e99d186" cx="953.6689" cy="133.50836" r="2.1751"/><rect class="e34f453f-6c64-41a8-bbd1-c5fe225cabfc" x="953.22851" y="131.77422" width="0.88079" height="3.46827"/><rect class="e34f453f-6c64-41a8-bbd1-c5fe225cabfc" x="953.22851" y="131.77422" width="0.88079" height="3.46827" transform="translate(1087.17726 -820.16055) rotate(90)"/><circle class="e3e687fd-0c77-40e0-ac5d-3c374600e278" cx="832.4446" cy="108.02101" r="2.8638"/><circle class="b5111b3e-a90f-4566-83a6-64913e99d186" cx="832.4446" cy="108.02101" r="2.1751"/><rect class="e34f453f-6c64-41a8-bbd1-c5fe225cabfc" x="832.0042" y="106.28687" width="0.88079" height="3.46827"/><rect class="e34f453f-6c64-41a8-bbd1-c5fe225cabfc" x="832.0042" y="106.28687" width="0.88079" height="3.46827" transform="translate(940.4656 -724.42359) rotate(90)"/><circle class="e3e687fd-0c77-40e0-ac5d-3c374600e278" cx="832.4446" cy="133.50836" r="2.8638"/><circle class="b5111b3e-a90f-4566-83a6-64913e99d186" cx="832.4446" cy="133.50836" r="2.1751"/><rect class="e34f453f-6c64-41a8-bbd1-c5fe225cabfc" x="832.0042" y="131.77422" width="0.88079" height="3.46827"/><rect class="e34f453f-6c64-41a8-bbd1-c5fe225cabfc" x="832.0042" y="131.77422" width="0.88079" height="3.46827" transform="translate(965.95295 -698.93624) rotate(90)"/><rect class="e3e687fd-0c77-40e0-ac5d-3c374600e278" x="824.23837" y="144.25498" width="136.98065" height="76.94181" rx="3.60173"/><circle class="e3e687fd-0c77-40e0-ac5d-3c374600e278" cx="953.6689" cy="150.73308" r="2.8638"/><circle class="b5111b3e-a90f-4566-83a6-64913e99d186" cx="953.6689" cy="150.73308" r="2.1751"/><rect class="e34f453f-6c64-41a8-bbd1-c5fe225cabfc" x="953.22851" y="148.99895" width="0.88079" height="3.46827"/><rect class="e34f453f-6c64-41a8-bbd1-c5fe225cabfc" x="953.22851" y="148.99895" width="0.88079" height="3.46827" transform="translate(1104.40199 -802.93582) rotate(90)"/><circle class="e3e687fd-0c77-40e0-ac5d-3c374600e278" cx="953.6689" cy="214.35671" r="2.8638"/><circle class="b5111b3e-a90f-4566-83a6-64913e99d186" cx="953.6689" cy="214.35671" r="2.1751"/><rect class="e34f453f-6c64-41a8-bbd1-c5fe225cabfc" x="953.22851" y="212.62258" width="0.88079" height="3.46827"/><rect class="e34f453f-6c64-41a8-bbd1-c5fe225cabfc" x="953.22851" y="212.62258" width="0.88079" height="3.46827" transform="translate(1168.02561 -739.31219) rotate(90)"/><circle class="e3e687fd-0c77-40e0-ac5d-3c374600e278" cx="832.4446" cy="150.73308" r="2.8638"/><circle class="b5111b3e-a90f-4566-83a6-64913e99d186" cx="832.4446" cy="150.73308" r="2.1751"/><rect class="e34f453f-6c64-41a8-bbd1-c5fe225cabfc" x="832.0042" y="148.99895" width="0.88079" height="3.46827"/><rect class="e34f453f-6c64-41a8-bbd1-c5fe225cabfc" x="832.0042" y="148.99895" width="0.88079" height="3.46827" transform="translate(983.17768 -681.71151) rotate(90)"/><circle class="e3e687fd-0c77-40e0-ac5d-3c374600e278" cx="832.4446" cy="214.35671" r="2.8638"/><circle class="b5111b3e-a90f-4566-83a6-64913e99d186" cx="832.4446" cy="214.35671" r="2.1751"/><rect class="e34f453f-6c64-41a8-bbd1-c5fe225cabfc" x="832.0042" y="212.62258" width="0.88079" height="3.46827"/><rect class="e34f453f-6c64-41a8-bbd1-c5fe225cabfc" x="832.0042" y="212.62258" width="0.88079" height="3.46827" transform="translate(1046.80131 -618.08788) rotate(90)"/><rect class="b5111b3e-a90f-4566-83a6-64913e99d186" x="839.36922" y="156.76611" width="106.98699" height="19.66928"/><rect class="b5111b3e-a90f-4566-83a6-64913e99d186" x="839.36922" y="179.09288" width="106.98699" height="19.66928"/><rect class="e844665b-1709-4c66-b655-e47d9d2abc80" x="841.82929" y="160.49124" width="12.71131" height="12.71131"/><rect class="b5111b3e-a90f-4566-83a6-64913e99d186" x="843.45811" y="162.12007" width="9.45367" height="9.45367"/><rect class="e34f453f-6c64-41a8-bbd1-c5fe225cabfc" x="844.00224" y="162.52454" width="8.42418" height="4.72683"/><rect class="e844665b-1709-4c66-b655-e47d9d2abc80" x="856.7138" y="160.49124" width="12.71131" height="12.71131"/><rect class="b5111b3e-a90f-4566-83a6-64913e99d186" x="858.34263" y="162.12007" width="9.45367" height="9.45367"/><rect class="e34f453f-6c64-41a8-bbd1-c5fe225cabfc" x="858.88675" y="162.52454" width="8.42418" height="4.72683"/><rect class="e844665b-1709-4c66-b655-e47d9d2abc80" x="871.63647" y="160.49124" width="12.71131" height="12.71131"/><rect class="b5111b3e-a90f-4566-83a6-64913e99d186" x="873.26529" y="162.12007" width="9.45367" height="9.45367"/><rect class="e34f453f-6c64-41a8-bbd1-c5fe225cabfc" x="873.80942" y="166.24566" width="8.42418" height="4.72683"/><rect class="e844665b-1709-4c66-b655-e47d9d2abc80" x="886.54537" y="160.49124" width="12.71131" height="12.71131"/><rect class="b5111b3e-a90f-4566-83a6-64913e99d186" x="888.17419" y="162.12007" width="9.45367" height="9.45367"/><rect class="e34f453f-6c64-41a8-bbd1-c5fe225cabfc" x="888.71832" y="162.52454" width="8.42418" height="4.72683"/><rect class="e844665b-1709-4c66-b655-e47d9d2abc80" x="901.60024" y="160.49124" width="12.71131" height="12.71131"/><rect class="b5111b3e-a90f-4566-83a6-64913e99d186" x="903.22906" y="162.12007" width="9.45367" height="9.45367"/><rect class="e34f453f-6c64-41a8-bbd1-c5fe225cabfc" x="903.77319" y="162.52454" width="8.42418" height="4.72683"/><rect class="e844665b-1709-4c66-b655-e47d9d2abc80" x="916.52291" y="160.49124" width="12.71131" height="12.71131"/><rect class="b5111b3e-a90f-4566-83a6-64913e99d186" x="918.15173" y="162.12007" width="9.45367" height="9.45367"/><rect class="e34f453f-6c64-41a8-bbd1-c5fe225cabfc" x="918.69586" y="166.24566" width="8.42418" height="4.72683"/><rect class="e844665b-1709-4c66-b655-e47d9d2abc80" x="931.4318" y="160.49124" width="12.71131" height="12.71131"/><rect class="b5111b3e-a90f-4566-83a6-64913e99d186" x="933.06063" y="162.12007" width="9.45367" height="9.45367"/><rect class="e34f453f-6c64-41a8-bbd1-c5fe225cabfc" x="933.60475" y="162.52454" width="8.42418" height="4.72683"/><rect class="e3e687fd-0c77-40e0-ac5d-3c374600e278" x="842.67386" y="193.28832" width="99.84043" height="1.99539"/><rect class="e3e687fd-0c77-40e0-ac5d-3c374600e278" x="842.67386" y="182.15962" width="99.84043" height="1.99539"/><rect class="e3e687fd-0c77-40e0-ac5d-3c374600e278" x="842.67386" y="185.71896" width="99.84043" height="1.99539"/><rect class="e3e687fd-0c77-40e0-ac5d-3c374600e278" x="842.67386" y="189.50364" width="99.84043" height="1.99539"/><rect class="e3e687fd-0c77-40e0-ac5d-3c374600e278" x="835.78582" y="234.22315" width="117.18832" height="193.13541" rx="3.60173"/><circle class="e3e687fd-0c77-40e0-ac5d-3c374600e278" cx="945.121" cy="242.36186" r="2.8638"/><circle class="b5111b3e-a90f-4566-83a6-64913e99d186" cx="945.121" cy="242.36186" r="2.1751"/><rect class="e34f453f-6c64-41a8-bbd1-c5fe225cabfc" x="944.68061" y="240.62772" width="0.88079" height="3.46827"/><rect class="e34f453f-6c64-41a8-bbd1-c5fe225cabfc" x="944.68061" y="240.62772" width="0.88079" height="3.46827" transform="translate(1187.48286 -702.75914) rotate(90)"/><circle class="e3e687fd-0c77-40e0-ac5d-3c374600e278" cx="945.121" cy="337.37483" r="2.8638"/><circle class="b5111b3e-a90f-4566-83a6-64913e99d186" cx="945.121" cy="337.37483" r="2.1751"/><rect class="e34f453f-6c64-41a8-bbd1-c5fe225cabfc" x="944.68061" y="335.64069" width="0.88079" height="3.46827"/><rect class="e34f453f-6c64-41a8-bbd1-c5fe225cabfc" x="944.68061" y="335.64069" width="0.88079" height="3.46827" transform="translate(1282.49583 -607.74617) rotate(90)"/><circle class="e3e687fd-0c77-40e0-ac5d-3c374600e278" cx="945.121" cy="418.01386" r="2.8638"/><circle class="b5111b3e-a90f-4566-83a6-64913e99d186" cx="945.121" cy="418.01386" r="2.1751"/><rect class="e34f453f-6c64-41a8-bbd1-c5fe225cabfc" x="944.68061" y="416.27972" width="0.88079" height="3.46827"/><rect class="e34f453f-6c64-41a8-bbd1-c5fe225cabfc" x="944.68061" y="416.27972" width="0.88079" height="3.46827" transform="translate(1363.13486 -527.10715) rotate(90)"/><circle class="e3e687fd-0c77-40e0-ac5d-3c374600e278" cx="843.6679" cy="242.36186" r="2.8638"/><circle class="b5111b3e-a90f-4566-83a6-64913e99d186" cx="843.6679" cy="242.36186" r="2.1751"/><rect class="e34f453f-6c64-41a8-bbd1-c5fe225cabfc" x="843.22751" y="240.62772" width="0.88079" height="3.46827"/><rect class="e34f453f-6c64-41a8-bbd1-c5fe225cabfc" x="843.22751" y="240.62772" width="0.88079" height="3.46827" transform="translate(1086.02976 -601.30604) rotate(90)"/><circle class="e3e687fd-0c77-40e0-ac5d-3c374600e278" cx="843.6679" cy="337.37483" r="2.8638"/><circle class="b5111b3e-a90f-4566-83a6-64913e99d186" cx="843.6679" cy="337.37483" r="2.1751"/><rect class="e34f453f-6c64-41a8-bbd1-c5fe225cabfc" x="843.22751" y="335.64069" width="0.88079" height="3.46827"/><rect class="e34f453f-6c64-41a8-bbd1-c5fe225cabfc" x="843.22751" y="335.64069" width="0.88079" height="3.46827" transform="translate(1181.04273 -506.29307) rotate(90)"/><circle class="e3e687fd-0c77-40e0-ac5d-3c374600e278" cx="843.6679" cy="418.01386" r="2.8638"/><circle class="b5111b3e-a90f-4566-83a6-64913e99d186" cx="843.6679" cy="418.01386" r="2.1751"/><rect class="e34f453f-6c64-41a8-bbd1-c5fe225cabfc" x="843.22751" y="416.27972" width="0.88079" height="3.46827"/><rect class="e34f453f-6c64-41a8-bbd1-c5fe225cabfc" x="843.22751" y="416.27972" width="0.88079" height="3.46827" transform="translate(1261.68176 -425.65405) rotate(90)"/><rect class="ef8c83c3-be66-4eae-9091-b416638dbefe" x="852.1544" y="254.99669" width="84.45116" height="54.80882"/><path class="e34f453f-6c64-41a8-bbd1-c5fe225cabfc" d="M853.63752,283.356c.39625-.53827.74036-1.04855,1.1271-1.52417,2.63019-3.2346,2.63309-3.23225,6.34957-1.45833a2.66385,2.66385,0,0,0,3.69824-2.4018c-.02423-4.16781.00256-4.08211,3.7965-5.26813,1.57038-.49091,2.34879-.06548,3.13014,1.26239a5.133,5.133,0,0,0,2.29659,2.36749c1.53111.47773,2.80065-.24016,3.42175-1.98735.31764-.89357,1.168-2.27237,1.76372-2.26531a12.54914,12.54914,0,0,1,5.17509,1.13169c.56685.27242.481,2.02635.58459,3.11459.24566,2.58066,2.30759,3.59,4.46454,2.14621a11.5428,11.5428,0,0,0,1.3864-.93778,1.53618,1.53618,0,0,1,2.42162.09193c.26112.26283.57676.47065.85917.71329,2.73546,2.35017,2.78379,2.37731,1.06828,5.53324a2.83995,2.83995,0,0,0,2.75862,4.12956c3.55666-.309,3.47223-.23637,4.63147,3.21886.62022,1.84864.35938,3.01875-1.50487,3.85074-1.30441.58215-2.65434,1.40193-1.99586,3.21123a3.693,3.693,0,0,0,1.38839,1.90884c3.39305,1.88151,3.34239,1.81743,2.5084,5.63149-.37166,1.69972-1.1119,2.51451-2.87906,2.2044a4.53013,4.53013,0,0,0-.55782.00418,2.75092,2.75092,0,0,0-2.98646,1.59692c-.72634,1.3839-.12,2.15585.50514,3.16677.52765.85322,1.48507,2.18921,1.19464,2.66244a13.27753,13.27753,0,0,1-3.71939,4.04506c-.52157.35169-2.07539-.68858-3.08088-1.2348a2.23229,2.23229,0,0,0-2.52918.02131,2.761,2.761,0,0,0-1.47926,3.21059c.39377,2.96959.34708,2.97707-2.43849,3.88826a9.23674,9.23674,0,0,0-1.06706.322c-1.64682.77324-2.70158.31552-3.51306-1.33828-.53016-1.08046-.97336-2.38207-2.77138-2.26153a2.66812,2.66812,0,0,0-2.67079,1.77463c-.41988.9785-1.13365,2.59224-1.72273,2.59485a14.09377,14.09377,0,0,1-5.37946-1.1281c-.48866-.2044-.51715-1.88534-.48069-2.87935a2.824,2.824,0,0,0-1.79222-2.87924c-1.42528-.78666-2.19987.08625-3.13671.71217-2.35635,1.57429-2.3513,1.58673-4.45859-.26087-.41987-.36813-.79376-.79265-1.23387-1.13294-1.03993-.80411-1.32666-1.68761-.4988-2.83242a11.72968,11.72968,0,0,0,.88641-1.63319,2.63754,2.63754,0,0,0-2.50067-3.86227c-3.99329.065-3.93892.04853-5.10074-3.78212-.45009-1.484-.182-2.369,1.23441-3.11245.92458-.4853,2.07188-1.24105,2.34386-2.11658A2.57721,2.57721,0,0,0,851.423,298.032c-.97181-.3341-2.50509-1.15333-2.513-1.7697a17.07521,17.07521,0,0,1,1.06211-5.22564c.10275-.32447,1.18758-.35115,1.82477-.49025,1.11237-.24282,2.54866-.11847,3.26824-.78,1.057-.97166,1.6662-2.44443.26415-3.90037A17.14491,17.14491,0,0,1,853.63752,283.356Zm22.38954,32.35818a16.48963,16.48963,0,1,0-16.34681-16.707A16.36257,16.36257,0,0,0,876.02706,315.71421Z"/><path class="e34f453f-6c64-41a8-bbd1-c5fe225cabfc" d="M936.901,312.57481a14.57342,14.57342,0,0,1-1.20822,1.26121,2.45893,2.45893,0,0,0-.91782,2.89849,2.20471,2.20471,0,0,0,2.1924,1.84291c1.71076.12691,1.83544,1.18009,1.84839,2.55895.01308,1.39474-.13944,2.42531-1.8394,2.56041a2.62054,2.62054,0,0,0-1.22543,4.62362c1.49908.9745,1.07219,2.04221.399,3.32085-.69084,1.3122-1.49314,1.89013-2.91912,1.184-1.22443-.60633-2.01376.01284-2.91938.82334a1.993,1.993,0,0,0-.437,2.64892c.694,1.48288.06945,2.25123-1.21062,2.95459-1.18888.65325-2.18863,1.12208-3.1628-.28256a2.6314,2.6314,0,0,0-4.69733,1.3154c-.13507,1.558-1.10859,1.80886-2.44144,1.78343-1.30987-.025-2.32678-.01013-2.68148-1.74676-.5365-2.62666-2.93433-3.22382-4.67838-1.18173-1.09711,1.2846-1.96246.99865-3.17056.32256-1.21258-.6786-2.04812-1.35375-1.30425-2.85726.57555-1.16327.239-1.99808-.691-2.9312a2.22946,2.22946,0,0,0-2.82247-.48213c-1.33052.58415-2.13435.191-2.80341-1.10179-.642-1.24045-1.27411-2.29162.24474-3.34005a2.17862,2.17862,0,0,0,.90583-2.70248,2.36047,2.36047,0,0,0-2.29113-1.982c-1.41731-.1282-1.90161-.91371-1.82766-2.24417.0634-1.14064-.25928-2.31141,1.41041-2.76955,3.22562-.88507,3.63143-2.79731,1.23139-5.17726-.26261-.2604-.5072-.539-.847-.90186.28834-.59722.60016-1.19359.8685-1.80893.59978-1.37535,1.45422-2.06121,3.00615-1.31491,1.0835.521,1.8998.16416,2.77341-.70184a2.14249,2.14249,0,0,0,.51243-2.805c-.685-1.3516-.22462-2.13927,1.06175-2.792,1.17786-.5977,2.06828-1.34589,3.33609.08613,1.87026,2.11251,4.1886,1.42811,4.72361-1.3933.32493-1.71355,1.36369-1.58671,2.55093-1.636,1.27526-.053,2.1961.09725,2.56078,1.66859.64315,2.77121,2.89451,3.33092,4.75358,1.145,1.09588-1.28855,1.92781-.84492,3.01258-.22938,1.0734.60906,1.95011,1.08864,1.45032,2.69077-.87,2.78882.80067,4.39722,3.59066,3.51347a1.77737,1.77737,0,0,1,2.51723,1.03678C936.09758,311.151,936.50473,311.83917,936.901,312.57481Zm-18.91208,22.40841A13.65634,13.65634,0,1,0,904.4366,321.311,13.58177,13.58177,0,0,0,917.98887,334.98322Z"/><path class="e844665b-1709-4c66-b655-e47d9d2abc80" d="M876.02706,315.71421a16.48963,16.48963,0,1,1,.31452-32.97775,16.48963,16.48963,0,0,1-.31452,32.97775Zm15.05875-16.454a14.98777,14.98777,0,0,0-29.974-.17773,15.13568,15.13568,0,0,0,14.93395,15.204A14.96173,14.96173,0,0,0,891.08581,299.26019Z"/><path class="e844665b-1709-4c66-b655-e47d9d2abc80" d="M917.98887,334.98322a13.65634,13.65634,0,0,1,.04959-27.31218,13.65651,13.65651,0,1,1-.04959,27.31218Zm-12.736-13.88213a12.63151,12.63151,0,0,0,12.431,13.06241,12.84092,12.84092,0,1,0,.64613-25.67293A12.63474,12.63474,0,0,0,905.25286,321.10109Z"/><path class="e34f453f-6c64-41a8-bbd1-c5fe225cabfc" d="M891.08581,299.26019a14.96173,14.96173,0,0,1-15.04,15.02625,15.13568,15.13568,0,0,1-14.93395-15.204,14.98777,14.98777,0,0,1,29.974.17773Zm-26.56818-.05528a11.499,11.499,0,0,0,11.65609,11.67045,11.68708,11.68708,0,0,0,11.66182-11.56074,11.85788,11.85788,0,0,0-11.5456-11.75987A11.71472,11.71472,0,0,0,864.51763,299.20491Z"/><path class="e34f453f-6c64-41a8-bbd1-c5fe225cabfc" d="M905.25286,321.10109A12.63474,12.63474,0,0,1,918.33,308.49057a12.84092,12.84092,0,1,1-.64613,25.67293A12.63151,12.63151,0,0,1,905.25286,321.10109Zm4.75264-.002a8.12441,8.12441,0,0,0,8.09712,8.19512,8.17674,8.17674,0,0,0,.05756-16.35281A8.16711,8.16711,0,0,0,910.0055,321.0991Z"/><path class="e844665b-1709-4c66-b655-e47d9d2abc80" d="M864.51763,299.20491a11.71472,11.71472,0,0,1,11.77231-11.65016,11.85788,11.85788,0,0,1,11.5456,11.75987,11.68708,11.68708,0,0,1-11.66182,11.56074A11.499,11.499,0,0,1,864.51763,299.20491Z"/><path class="e844665b-1709-4c66-b655-e47d9d2abc80" d="M910.0055,321.0991a8.16711,8.16711,0,0,1,8.15468-8.15769,8.17674,8.17674,0,0,1-.05756,16.35281A8.12441,8.12441,0,0,1,910.0055,321.0991Z"/><rect class="e3e687fd-0c77-40e0-ac5d-3c374600e278" x="850.92737" y="309.86124" width="87.88904" height="33.24081"/><rect class="e3e687fd-0c77-40e0-ac5d-3c374600e278" x="838.59015" y="254.99669" width="13.48235" height="60.41748"/></g><g class="f0c98cbb-bdd6-4202-a36a-7128c3fb8707"><rect class="b3fbc4bb-141f-4113-8f25-f424024f430d" x="575.79872" y="223.96547" width="104.93321" height="203.03235" rx="7.81821"/><rect class="e3e687fd-0c77-40e0-ac5d-3c374600e278" x="588.66906" y="292.2413" width="79.73546" height="44.78728" rx="3.60173"/><rect class="e3e687fd-0c77-40e0-ac5d-3c374600e278" x="588.5907" y="237.67578" width="79.73546" height="44.78728" rx="3.60173"/><circle class="e3e687fd-0c77-40e0-ac5d-3c374600e278" cx="664.00965" cy="296.01216" r="1.667"/><circle class="b5111b3e-a90f-4566-83a6-64913e99d186" cx="664.00965" cy="296.01216" r="1.26611"/><rect class="e34f453f-6c64-41a8-bbd1-c5fe225cabfc" x="663.7533" y="295.00273" width="0.5127" height="2.01886"/><rect class="e34f453f-6c64-41a8-bbd1-c5fe225cabfc" x="663.7533" y="295.00273" width="0.5127" height="2.01886" transform="translate(960.02181 -367.99749) rotate(90)"/><circle class="e3e687fd-0c77-40e0-ac5d-3c374600e278" cx="664.00965" cy="333.04702" r="1.667"/><circle class="b5111b3e-a90f-4566-83a6-64913e99d186" cx="664.00965" cy="333.04702" r="1.26611"/><rect class="e34f453f-6c64-41a8-bbd1-c5fe225cabfc" x="663.7533" y="332.03759" width="0.5127" height="2.01886"/><rect class="e34f453f-6c64-41a8-bbd1-c5fe225cabfc" x="663.7533" y="332.03759" width="0.5127" height="2.01886" transform="translate(997.05667 -330.96263) rotate(90)"/><circle class="e3e687fd-0c77-40e0-ac5d-3c374600e278" cx="593.44584" cy="296.01216" r="1.667"/><circle class="b5111b3e-a90f-4566-83a6-64913e99d186" cx="593.44584" cy="296.01216" r="1.26611"/><rect class="e34f453f-6c64-41a8-bbd1-c5fe225cabfc" x="593.18949" y="295.00273" width="0.5127" height="2.01886"/><rect class="e34f453f-6c64-41a8-bbd1-c5fe225cabfc" x="593.18949" y="295.00273" width="0.5127" height="2.01886" transform="translate(889.458 -297.43368) rotate(90)"/><circle class="e3e687fd-0c77-40e0-ac5d-3c374600e278" cx="593.44584" cy="333.04702" r="1.667"/><circle class="b5111b3e-a90f-4566-83a6-64913e99d186" cx="593.44584" cy="333.04702" r="1.26611"/><rect class="e34f453f-6c64-41a8-bbd1-c5fe225cabfc" x="593.18949" y="332.03759" width="0.5127" height="2.01886"/><rect class="e34f453f-6c64-41a8-bbd1-c5fe225cabfc" x="593.18949" y="332.03759" width="0.5127" height="2.01886" transform="translate(926.49287 -260.39882) rotate(90)"/><rect class="b5111b3e-a90f-4566-83a6-64913e99d186" x="597.47662" y="299.52394" width="62.27636" height="11.44935"/><rect class="b5111b3e-a90f-4566-83a6-64913e99d186" x="597.47662" y="312.5202" width="62.27636" height="11.44935"/><rect class="e844665b-1709-4c66-b655-e47d9d2abc80" x="598.90861" y="301.69232" width="7.39916" height="7.39916"/><rect class="b5111b3e-a90f-4566-83a6-64913e99d186" x="599.85673" y="302.64044" width="5.50291" height="5.50291"/><rect class="e34f453f-6c64-41a8-bbd1-c5fe225cabfc" x="600.17347" y="305.04192" width="4.90365" height="2.75146"/><rect class="e844665b-1709-4c66-b655-e47d9d2abc80" x="607.57278" y="301.69232" width="7.39916" height="7.39916"/><rect class="b5111b3e-a90f-4566-83a6-64913e99d186" x="608.5209" y="302.64044" width="5.50291" height="5.50291"/><rect class="e34f453f-6c64-41a8-bbd1-c5fe225cabfc" x="608.83763" y="305.04192" width="4.90365" height="2.75146"/><rect class="e844665b-1709-4c66-b655-e47d9d2abc80" x="616.25916" y="301.69232" width="7.39916" height="7.39916"/><rect class="b5111b3e-a90f-4566-83a6-64913e99d186" x="617.20728" y="302.64044" width="5.50291" height="5.50291"/><rect class="e34f453f-6c64-41a8-bbd1-c5fe225cabfc" x="617.52401" y="302.87588" width="4.90365" height="2.75146"/><rect class="e844665b-1709-4c66-b655-e47d9d2abc80" x="624.93752" y="301.69232" width="7.39916" height="7.39916"/><rect class="b5111b3e-a90f-4566-83a6-64913e99d186" x="625.88564" y="302.64044" width="5.50291" height="5.50291"/><rect class="e34f453f-6c64-41a8-bbd1-c5fe225cabfc" x="626.20237" y="302.87588" width="4.90365" height="2.75146"/><rect class="e844665b-1709-4c66-b655-e47d9d2abc80" x="633.70085" y="301.69232" width="7.39916" height="7.39916"/><rect class="b5111b3e-a90f-4566-83a6-64913e99d186" x="634.64898" y="302.64044" width="5.50291" height="5.50291"/><rect class="e34f453f-6c64-41a8-bbd1-c5fe225cabfc" x="634.96571" y="305.04192" width="4.90365" height="2.75146"/><rect class="e844665b-1709-4c66-b655-e47d9d2abc80" x="642.38723" y="301.69232" width="7.39916" height="7.39916"/><rect class="b5111b3e-a90f-4566-83a6-64913e99d186" x="643.33536" y="302.64044" width="5.50291" height="5.50291"/><rect class="e34f453f-6c64-41a8-bbd1-c5fe225cabfc" x="643.65209" y="302.87588" width="4.90365" height="2.75146"/><rect class="e844665b-1709-4c66-b655-e47d9d2abc80" x="651.06559" y="301.69232" width="7.39916" height="7.39916"/><rect class="b5111b3e-a90f-4566-83a6-64913e99d186" x="652.01372" y="302.64044" width="5.50291" height="5.50291"/><rect class="e34f453f-6c64-41a8-bbd1-c5fe225cabfc" x="652.33045" y="302.87588" width="4.90365" height="2.75146"/><rect class="e3e687fd-0c77-40e0-ac5d-3c374600e278" x="599.40023" y="320.78326" width="58.11641" height="1.1615"/><rect class="e3e687fd-0c77-40e0-ac5d-3c374600e278" x="599.40023" y="314.30533" width="58.11641" height="1.1615"/><rect class="e3e687fd-0c77-40e0-ac5d-3c374600e278" x="599.40023" y="316.37719" width="58.11641" height="1.1615"/><rect class="e3e687fd-0c77-40e0-ac5d-3c374600e278" x="599.40023" y="318.58023" width="58.11641" height="1.1615"/><path class="e34f453f-6c64-41a8-bbd1-c5fe225cabfc" d="M597.41424,251.54371c.21544-.29265.40253-.57009.6128-.82868,1.43-1.75862,1.43158-1.75734,3.4522-.79288a1.44832,1.44832,0,0,0,2.01071-1.30584c-.01318-2.266.00138-2.21941,2.06412-2.86423a1.24361,1.24361,0,0,1,1.70183.68634,2.79077,2.79077,0,0,0,1.24864,1.28719,1.43143,1.43143,0,0,0,1.86037-1.08051c.1727-.48582.635-1.23546.95892-1.23163a6.823,6.823,0,0,1,2.81366.6153c.30819.14811.26151,1.10171.31783,1.69337a1.45235,1.45235,0,0,0,2.42734,1.16688,6.27717,6.27717,0,0,0,.75377-.50986.83521.83521,0,0,1,1.31662.05c.142.14289.31357.25589.46712.3878,1.48724,1.27778,1.51352,1.29253.58081,3.00838a1.54406,1.54406,0,0,0,1.49984,2.24521c1.93372-.168,1.88782-.12851,2.51809,1.75007.33721,1.00508.19539,1.64126-.81818,2.09361-.7092.31651-1.44315.76222-1.08513,1.74592a2.00785,2.00785,0,0,0,.75485,1.03782c1.84478,1.023,1.81723.98812,1.3638,3.06179-.20207.92413-.60453,1.36712-1.56532,1.19852a2.46177,2.46177,0,0,0-.30329.00227,1.49565,1.49565,0,0,0-1.62371.86823c-.3949.75242-.06527,1.17212.27464,1.72175.28688.46389.80742,1.19026.64952,1.44754a7.219,7.219,0,0,1-2.0222,2.19927c-.28358.19121-1.12838-.37438-1.67505-.67135a1.21368,1.21368,0,0,0-1.3751.01159,1.50111,1.50111,0,0,0-.80426,1.74557c.21409,1.61454.18871,1.6186-1.32578,2.114a5.02174,5.02174,0,0,0-.58016.17509c-.89536.4204-1.46882.17154-1.91-.72762-.28824-.58743-.5292-1.29511-1.50677-1.22957a1.45062,1.45062,0,0,0-1.45209.96485c-.22828.532-.61636,1.40938-.93664,1.4108a7.66276,7.66276,0,0,1-2.92476-.61334c-.26568-.11113-.28117-1.025-.26134-1.56548a1.53539,1.53539,0,0,0-.97442-1.56542c-.77491-.4277-1.19605.0469-1.7054.3872-1.28113.85593-1.27839.8627-2.4241-.14183-.22828-.20015-.43156-.43095-.67085-.616a.98309.98309,0,0,1-.27119-1.54,6.37668,6.37668,0,0,0,.48193-.88795,1.434,1.434,0,0,0-1.35959-2.09989c-2.17112.03536-2.14156.02639-2.77323-2.0563a1.21652,1.21652,0,0,1,.67114-1.69221c.50268-.26386,1.12646-.67475,1.27434-1.15077a1.40122,1.40122,0,0,0-.9303-1.92584c-.52837-.18164-1.362-.627-1.36631-.96217a9.28361,9.28361,0,0,1,.57746-2.84113c.05586-.17641.64568-.19092.99211-.26654.60479-.132,1.38569-.06442,1.77692-.42407a1.36491,1.36491,0,0,0,.14361-2.1206A9.32119,9.32119,0,0,1,597.41424,251.54371Zm12.173,17.59287a8.96528,8.96528,0,1,0-8.88762-9.08346A8.89618,8.89618,0,0,0,609.58724,269.13658Z"/><path class="e844665b-1709-4c66-b655-e47d9d2abc80" d="M609.58724,269.13658a8.96528,8.96528,0,1,1,.171-17.92973,8.96528,8.96528,0,0,1-.171,17.92973Zm8.18732-8.94591A8.14872,8.14872,0,0,0,601.478,260.094a8.22915,8.22915,0,0,0,8.11947,8.26628A8.13457,8.13457,0,0,0,617.77456,260.19067Z"/><path class="e34f453f-6c64-41a8-bbd1-c5fe225cabfc" d="M617.77456,260.19067a8.13457,8.13457,0,0,1-8.17714,8.16965A8.22915,8.22915,0,0,1,601.478,260.094a8.14872,8.14872,0,0,1,16.29661.09663Zm-14.4449-.03006a6.25194,6.25194,0,0,0,6.33732,6.34513,6.35418,6.35418,0,0,0,6.34044-6.28547,6.447,6.447,0,0,0-6.27725-6.39375A6.36921,6.36921,0,0,0,603.32966,260.16061Z"/><path class="e844665b-1709-4c66-b655-e47d9d2abc80" d="M603.32966,260.16061a6.36921,6.36921,0,0,1,6.40051-6.33409,6.447,6.447,0,0,1,6.27725,6.39375,6.35418,6.35418,0,0,1-6.34044,6.28547A6.25194,6.25194,0,0,1,603.32966,260.16061Z"/><circle class="e34f453f-6c64-41a8-bbd1-c5fe225cabfc" cx="653.75108" cy="261.19403" r="9.14157"/><circle class="e844665b-1709-4c66-b655-e47d9d2abc80" cx="653.75108" cy="261.19403" r="4.95927"/><path class="f3c731a9-b3b0-4f6e-a922-13caf064765b" d="M612.25619,244.87956a15.50347,15.50347,0,1,0-2.36268,30.82453,13.51784,13.51784,0,0,0,1.42558-.06978l.329-.02991"/><path class="f3c731a9-b3b0-4f6e-a922-13caf064765b" d="M653.46855,251.07039l.87728.12959a10.17516,10.17516,0,0,1-.88725,20.1177h-.02991"/><line class="f3c731a9-b3b0-4f6e-a922-13caf064765b" x1="611.95135" y1="244.8328" x2="654.34643" y2="251.19726"/><line class="f3c731a9-b3b0-4f6e-a922-13caf064765b" x1="610.6648" y1="275.70398" x2="653.45516" y2="271.31606"/></g><g class="f0c98cbb-bdd6-4202-a36a-7128c3fb8707"><rect class="e3e687fd-0c77-40e0-ac5d-3c374600e278" x="316.96256" y="217.8645" width="71.43076" height="19.83828" rx="3.60173"/><circle class="e3e687fd-0c77-40e0-ac5d-3c374600e278" cx="332.16557" cy="227.99237" r="7.29591"/><circle class="b5111b3e-a90f-4566-83a6-64913e99d186" cx="332.16557" cy="227.99237" r="6.54103"/><path class="e3e687fd-0c77-40e0-ac5d-3c374600e278" d="M328.30614,229.33492a4.17107,4.17107,0,1,1,7.85863,0h1.2096a5.32811,5.32811,0,1,0-10.27783,0Z"/><path class="e34f453f-6c64-41a8-bbd1-c5fe225cabfc" d="M332.23547,222.61839c-.04615,0-.09083.00574-.1367.0069v1.157c.0458-.00149.09055-.0069.1367-.0069a4.16175,4.16175,0,0,1,3.9293,5.55951h1.2096a5.31158,5.31158,0,0,0-5.1389-6.71653Z"/><circle class="b3fbc4bb-141f-4113-8f25-f424024f430d" cx="332.16557" cy="228.64473" r="0.86109"/><polyline class="b3fbc4bb-141f-4113-8f25-f424024f430d" points="333.027 228.645 332.166 224.516 331.304 228.645"/><circle class="e3e687fd-0c77-40e0-ac5d-3c374600e278" cx="352.67795" cy="227.99237" r="7.29591"/><circle class="b5111b3e-a90f-4566-83a6-64913e99d186" cx="352.67795" cy="227.99237" r="6.54103"/><path class="e3e687fd-0c77-40e0-ac5d-3c374600e278" d="M348.81852,229.33492a4.17107,4.17107,0,1,1,7.85863,0h1.2096a5.32811,5.32811,0,1,0-10.27783,0Z"/><path class="e34f453f-6c64-41a8-bbd1-c5fe225cabfc" d="M352.74784,222.61839c-.04614,0-.09083.00574-.13669.0069v1.157c.04579-.00149.09055-.0069.13669-.0069a4.16175,4.16175,0,0,1,3.92931,5.55951h1.2096a5.31158,5.31158,0,0,0-5.13891-6.71653Z"/><circle class="b3fbc4bb-141f-4113-8f25-f424024f430d" cx="352.67795" cy="228.64473" r="0.86109"/><polyline class="b3fbc4bb-141f-4113-8f25-f424024f430d" points="353.539 228.645 352.678 224.516 351.817 228.645"/><circle class="e3e687fd-0c77-40e0-ac5d-3c374600e278" cx="373.13256" cy="227.78364" r="7.29591"/><circle class="b5111b3e-a90f-4566-83a6-64913e99d186" cx="373.13256" cy="227.78364" r="6.54103"/><path class="e3e687fd-0c77-40e0-ac5d-3c374600e278" d="M369.27313,229.12619a4.17106,4.17106,0,1,1,7.85864,0h1.2096a5.3281,5.3281,0,1,0-10.27784,0Z"/><path class="e34f453f-6c64-41a8-bbd1-c5fe225cabfc" d="M373.20246,222.40966c-.04615,0-.09083.00574-.13669.0069v1.157c.04579-.00149.09054-.0069.13669-.0069a4.16177,4.16177,0,0,1,3.92931,5.55951h1.2096a5.31161,5.31161,0,0,0-5.13891-6.71653Z"/><circle class="b3fbc4bb-141f-4113-8f25-f424024f430d" cx="372.83834" cy="227.95745" r="0.86109"/><polyline class="b3fbc4bb-141f-4113-8f25-f424024f430d" points="373.447 228.566 375.758 225.038 372.229 227.349"/><circle class="e3e687fd-0c77-40e0-ac5d-3c374600e278" cx="384.4562" cy="221.24261" r="1.49337"/><circle class="b5111b3e-a90f-4566-83a6-64913e99d186" cx="384.4562" cy="221.24261" r="1.13424"/><rect class="e34f453f-6c64-41a8-bbd1-c5fe225cabfc" x="384.22655" y="220.33832" width="0.4593" height="1.80859"/><rect class="e34f453f-6c64-41a8-bbd1-c5fe225cabfc" x="384.22655" y="220.33832" width="0.4593" height="1.80859" transform="translate(605.69881 -163.21359) rotate(90)"/><circle class="e3e687fd-0c77-40e0-ac5d-3c374600e278" cx="384.4562" cy="234.5334" r="1.49337"/><circle class="b5111b3e-a90f-4566-83a6-64913e99d186" cx="384.4562" cy="234.5334" r="1.13424"/><rect class="e34f453f-6c64-41a8-bbd1-c5fe225cabfc" x="384.22655" y="233.62911" width="0.4593" height="1.80859"/><rect class="e34f453f-6c64-41a8-bbd1-c5fe225cabfc" x="384.22655" y="233.62911" width="0.4593" height="1.80859" transform="translate(618.9896 -149.9228) rotate(90)"/><circle class="e3e687fd-0c77-40e0-ac5d-3c374600e278" cx="321.24183" cy="221.24261" r="1.49337"/><circle class="b5111b3e-a90f-4566-83a6-64913e99d186" cx="321.24183" cy="221.24261" r="1.13424"/><rect class="e34f453f-6c64-41a8-bbd1-c5fe225cabfc" x="321.01218" y="220.33832" width="0.4593" height="1.80859"/><rect class="e34f453f-6c64-41a8-bbd1-c5fe225cabfc" x="321.01218" y="220.33832" width="0.4593" height="1.80859" transform="translate(542.48444 -99.99922) rotate(90)"/><circle class="e3e687fd-0c77-40e0-ac5d-3c374600e278" cx="321.24183" cy="234.5334" r="1.49337"/><circle class="b5111b3e-a90f-4566-83a6-64913e99d186" cx="321.24183" cy="234.5334" r="1.13424"/><rect class="e34f453f-6c64-41a8-bbd1-c5fe225cabfc" x="321.01218" y="233.62911" width="0.4593" height="1.80859"/><rect class="e34f453f-6c64-41a8-bbd1-c5fe225cabfc" x="321.01218" y="233.62911" width="0.4593" height="1.80859" transform="translate(555.77523 -86.70843) rotate(90)"/><rect class="e3e687fd-0c77-40e0-ac5d-3c374600e278" x="322.3626" y="239.62356" width="61.10973" height="100.71357" rx="3.60173"/><circle class="e3e687fd-0c77-40e0-ac5d-3c374600e278" cx="379.37719" cy="243.86763" r="1.49337"/><circle class="b5111b3e-a90f-4566-83a6-64913e99d186" cx="379.37719" cy="243.86763" r="1.13424"/><rect class="e34f453f-6c64-41a8-bbd1-c5fe225cabfc" x="379.14754" y="242.96333" width="0.4593" height="1.80859"/><rect class="e34f453f-6c64-41a8-bbd1-c5fe225cabfc" x="379.14754" y="242.96333" width="0.4593" height="1.80859" transform="translate(623.24482 -135.50957) rotate(90)"/><circle class="e3e687fd-0c77-40e0-ac5d-3c374600e278" cx="379.37719" cy="293.41367" r="1.49337"/><circle class="b5111b3e-a90f-4566-83a6-64913e99d186" cx="379.37719" cy="293.41367" r="1.13424"/><rect class="e34f453f-6c64-41a8-bbd1-c5fe225cabfc" x="379.14754" y="292.50938" width="0.4593" height="1.80859"/><rect class="e34f453f-6c64-41a8-bbd1-c5fe225cabfc" x="379.14754" y="292.50938" width="0.4593" height="1.80859" transform="translate(672.79086 -85.96353) rotate(90)"/><circle class="e3e687fd-0c77-40e0-ac5d-3c374600e278" cx="379.37719" cy="335.46419" r="1.49337"/><circle class="b5111b3e-a90f-4566-83a6-64913e99d186" cx="379.37719" cy="335.46419" r="1.13424"/><rect class="e34f453f-6c64-41a8-bbd1-c5fe225cabfc" x="379.14754" y="334.55989" width="0.4593" height="1.80859"/><rect class="e34f453f-6c64-41a8-bbd1-c5fe225cabfc" x="379.14754" y="334.55989" width="0.4593" height="1.80859" transform="translate(714.84138 -43.91301) rotate(90)"/><circle class="e3e687fd-0c77-40e0-ac5d-3c374600e278" cx="326.47284" cy="243.86763" r="1.49337"/><circle class="b5111b3e-a90f-4566-83a6-64913e99d186" cx="326.47284" cy="243.86763" r="1.13424"/><rect class="e34f453f-6c64-41a8-bbd1-c5fe225cabfc" x="326.24319" y="242.96333" width="0.4593" height="1.80859"/><rect class="e34f453f-6c64-41a8-bbd1-c5fe225cabfc" x="326.24319" y="242.96333" width="0.4593" height="1.80859" transform="translate(570.34047 -82.60522) rotate(90)"/><circle class="e3e687fd-0c77-40e0-ac5d-3c374600e278" cx="326.47284" cy="293.41367" r="1.49337"/><circle class="b5111b3e-a90f-4566-83a6-64913e99d186" cx="326.47284" cy="293.41367" r="1.13424"/><rect class="e34f453f-6c64-41a8-bbd1-c5fe225cabfc" x="326.24319" y="292.50938" width="0.4593" height="1.80859"/><rect class="e34f453f-6c64-41a8-bbd1-c5fe225cabfc" x="326.24319" y="292.50938" width="0.4593" height="1.80859" transform="translate(619.88651 -33.05917) rotate(90)"/><circle class="e3e687fd-0c77-40e0-ac5d-3c374600e278" cx="326.47284" cy="335.46419" r="1.49337"/><circle class="b5111b3e-a90f-4566-83a6-64913e99d186" cx="326.47284" cy="335.46419" r="1.13424"/><rect class="e34f453f-6c64-41a8-bbd1-c5fe225cabfc" x="326.24319" y="334.55989" width="0.4593" height="1.80859"/><rect class="e34f453f-6c64-41a8-bbd1-c5fe225cabfc" x="326.24319" y="334.55989" width="0.4593" height="1.80859" transform="translate(661.93703 8.99134) rotate(90)"/><rect class="ef8c83c3-be66-4eae-9091-b416638dbefe" x="330.89826" y="250.45626" width="44.03841" height="28.58094"/><path class="e34f453f-6c64-41a8-bbd1-c5fe225cabfc" d="M331.67166,265.2447c.20663-.28069.38607-.54679.58775-.79481,1.37155-1.68673,1.37306-1.6855,3.31108-.76047A1.38911,1.38911,0,0,0,337.499,262.437c-.01264-2.17338.00133-2.12869,1.97974-2.74715a1.19277,1.19277,0,0,1,1.63226.65829,2.67667,2.67667,0,0,0,1.1976,1.23456,1.37292,1.37292,0,0,0,1.78432-1.03633c.16564-.466.60906-1.185.91972-1.18129a6.54406,6.54406,0,0,1,2.69864.59015c.29559.142.25082,1.05667.30484,1.62415a1.393,1.393,0,0,0,2.32811,1.11917,6.01931,6.01931,0,0,0,.723-.489.80107.80107,0,0,1,1.26279.04794c.13617.13706.30076.24543.448.372,1.42645,1.22553,1.45165,1.23968.55707,2.88539a1.48094,1.48094,0,0,0,1.43853,2.15343c1.85467-.16114,1.81065-.12326,2.41515,1.67852.32343.964.18741,1.57418-.78474,2.008-.6802.30357-1.38415.73106-1.04077,1.67455a1.92576,1.92576,0,0,0,.724.99539c1.76936.98114,1.74294.94773,1.30805,2.93663-.19381.88634-.57982,1.31123-1.50134,1.14952a2.36281,2.36281,0,0,0-.29088.00218,1.43451,1.43451,0,0,0-1.55734.83274c-.37876.72166-.0626,1.1242.26341,1.65136.27516.44493.77441,1.1416.623,1.38837a6.92377,6.92377,0,0,1-1.93954,2.10936c-.272.1834-1.08224-.35907-1.60657-.6439a1.16407,1.16407,0,0,0-1.31889.01111,1.43977,1.43977,0,0,0-.77138,1.67422c.20534,1.54854.181,1.55244-1.27159,2.02759a4.81761,4.81761,0,0,0-.55643.16793c-.85876.40322-1.40878.16453-1.832-.69787-.27645-.56342-.50757-1.24217-1.44518-1.17931a1.39134,1.39134,0,0,0-1.39272.92541c-.219.51025-.59116,1.35177-.89835,1.35313a7.3496,7.3496,0,0,1-2.80521-.58827c-.25481-.10659-.26967-.98314-.25066-1.50148a1.47261,1.47261,0,0,0-.93458-1.50143c-.74323-.41021-1.14716.045-1.63569.37137-1.22876.82094-1.22612.82743-2.325-.136-.219-.192-.41392-.41334-.64342-.59079a.94291.94291,0,0,1-.26011-1.477,6.11527,6.11527,0,0,0,.46223-.85166,1.37538,1.37538,0,0,0-1.304-2.014c-2.08237.03391-2.054.02531-2.65986-1.97225a1.16678,1.16678,0,0,1,.6437-1.623c.48214-.25307,1.08041-.64717,1.22224-1.10373a1.34393,1.34393,0,0,0-.89227-1.84711c-.50676-.17421-1.30632-.60141-1.31045-.92283a8.90433,8.90433,0,0,1,.55385-2.725c.05358-.1692.61929-.18311.95156-.25564.58006-.12662,1.329-.06178,1.70427-.40673a1.30911,1.30911,0,0,0,.13775-2.03391A8.9408,8.9408,0,0,1,331.67166,265.2447ZM343.347,282.11839a8.59879,8.59879,0,1,0-8.5243-8.71214A8.53251,8.53251,0,0,0,343.347,282.11839Z"/><path class="e34f453f-6c64-41a8-bbd1-c5fe225cabfc" d="M375.09072,280.4813a7.60126,7.60126,0,0,1-.63.65768,1.28224,1.28224,0,0,0-.47862,1.51146,1.1497,1.1497,0,0,0,1.14327.961c.8921.06617.95712.61537.96387,1.3344.00682.72731-.07271,1.26472-.95918,1.33517a1.36652,1.36652,0,0,0-.639,2.41106c.78172.50817.55911,1.06494.20806,1.73171-.36025.68427-.77862.98564-1.52222.6174-.6385-.31618-1.05011.0067-1.52236.42935a1.03929,1.03929,0,0,0-.2279,1.38132c.3619.77327.03622,1.17393-.63129,1.54071-.62.34065-1.1413.58513-1.64929-.14734a1.37219,1.37219,0,0,0-2.4495.68594c-.07044.81244-.5781.94326-1.27313.93-.683-.013-1.21334-.00529-1.3983-.91088a1.31077,1.31077,0,0,0-2.43962-.61623c-.57211.66987-1.02336.52076-1.65334.1682-.63232-.35387-1.068-.70593-.68012-1.49a1.18611,1.18611,0,0,0-.36033-1.52852,1.16258,1.16258,0,0,0-1.47182-.25142c-.69382.30462-1.113.0996-1.46188-.57455-.33477-.64685-.66441-1.195.12762-1.74172a1.13607,1.13607,0,0,0,.47236-1.40925,1.2309,1.2309,0,0,0-1.19475-1.03355c-.73908-.06685-.99162-.47647-.95306-1.17026.03306-.59481-.1352-1.20532.73548-1.44423,1.68205-.46153,1.89367-1.4587.64213-2.69976-.13694-.13579-.26449-.28106-.44167-.47029.15036-.31143.313-.62242.45289-.9433.31277-.71719.75833-1.07485,1.56761-.68568a1.15448,1.15448,0,0,0,1.44623-.366,1.11724,1.11724,0,0,0,.26722-1.46269c-.35722-.70481-.11713-1.11556.55367-1.45595.61421-.31168,1.07853-.70184,1.73966.04492.97527,1.1016,2.18421.74471,2.4632-.72656.16944-.89356.71111-.82742,1.33022-.85314.665-.02764,1.14519.05071,1.33536.87011.33538,1.44509,1.50939,1.737,2.47883.59707.57147-.67193,1.00529-.44059,1.571-.11961.55974.31761,1.01692.56769.75629,1.40314-.45366,1.45428.41753,2.293,1.87241,1.83216a.92684.92684,0,0,1,1.31265.54065C374.67179,279.73884,374.8841,280.09769,375.09072,280.4813Zm-9.862,11.68523a7.12132,7.12132,0,1,0-7.067-7.12959A7.08244,7.08244,0,0,0,365.22871,292.16653Z"/><path class="e844665b-1709-4c66-b655-e47d9d2abc80" d="M343.347,282.11839a8.59879,8.59879,0,1,1,.164-17.19678,8.59878,8.59878,0,0,1-.164,17.19678Zm7.85263-8.58021a7.81561,7.81561,0,0,0-15.63042-.09269,7.89275,7.89275,0,0,0,7.78755,7.92837A7.802,7.802,0,0,0,351.19967,273.53818Z"/><path class="e844665b-1709-4c66-b655-e47d9d2abc80" d="M365.22871,292.16653a7.12132,7.12132,0,0,1,.02586-14.24238,7.12141,7.12141,0,1,1-.02586,14.24238Zm-6.6414-7.23907a6.58691,6.58691,0,0,0,6.48235,6.81161,6.6961,6.6961,0,1,0,.33693-13.38756A6.58858,6.58858,0,0,0,358.58731,284.92746Z"/><path class="e34f453f-6c64-41a8-bbd1-c5fe225cabfc" d="M351.19967,273.53818a7.802,7.802,0,0,1-7.84287,7.83568,7.89275,7.89275,0,0,1-7.78755-7.92837,7.81561,7.81561,0,0,1,15.63042.09269Zm-13.8544-.02883a5.99635,5.99635,0,0,0,6.07825,6.08574,6.09442,6.09442,0,0,0,6.08125-6.02853,6.18349,6.18349,0,0,0-6.02064-6.13238A6.10884,6.10884,0,0,0,337.34527,273.50935Z"/><path class="e34f453f-6c64-41a8-bbd1-c5fe225cabfc" d="M358.58731,284.92746a6.58858,6.58858,0,0,1,6.81928-6.57595,6.6961,6.6961,0,1,1-.33693,13.38756A6.58691,6.58691,0,0,1,358.58731,284.92746Zm2.47834-.001a4.23661,4.23661,0,0,0,4.22237,4.27348,4.26389,4.26389,0,0,0,.03-8.52744A4.25887,4.25887,0,0,0,361.06565,284.92643Z"/><path class="e844665b-1709-4c66-b655-e47d9d2abc80" d="M337.34527,273.50935a6.10884,6.10884,0,0,1,6.13886-6.07517,6.18349,6.18349,0,0,1,6.02064,6.13238,6.09442,6.09442,0,0,1-6.08125,6.02853A5.99635,5.99635,0,0,1,337.34527,273.50935Z"/><path class="e844665b-1709-4c66-b655-e47d9d2abc80" d="M361.06565,284.92643a4.25887,4.25887,0,0,1,4.25239-4.254,4.26389,4.26389,0,0,1-.03,8.52744A4.23661,4.23661,0,0,1,361.06565,284.92643Z"/><rect class="e3e687fd-0c77-40e0-ac5d-3c374600e278" x="330.25841" y="279.06627" width="45.83115" height="17.33396"/><rect class="e3e687fd-0c77-40e0-ac5d-3c374600e278" x="323.82496" y="250.45626" width="7.03059" height="31.50567"/><rect class="b3fbc4bb-141f-4113-8f25-f424024f430d" x="315.19799" y="237.73348" width="74.94118" height="2.13119"/></g><rect class="b3fbc4bb-141f-4113-8f25-f424024f430d" x="370.22295" y="317.79467" width="446.14012" height="42.65772"/><rect class="e3e687fd-0c77-40e0-ac5d-3c374600e278" x="370.22295" y="317.79467" width="446.14012" height="11.41938"/><ellipse class="e3e687fd-0c77-40e0-ac5d-3c374600e278" cx="746.5824" cy="329.21405" rx="8.88552" ry="7.9845"/><ellipse class="b5111b3e-a90f-4566-83a6-64913e99d186" cx="746.5824" cy="329.21405" rx="5.35913" ry="4.8157"/><ellipse class="e34f453f-6c64-41a8-bbd1-c5fe225cabfc" cx="746.5824" cy="329.21405" rx="2.90344" ry="2.60902"/><ellipse class="e3e687fd-0c77-40e0-ac5d-3c374600e278" cx="768.36377" cy="329.21405" rx="8.88552" ry="7.9845"/><ellipse class="b5111b3e-a90f-4566-83a6-64913e99d186" cx="768.36377" cy="329.21405" rx="5.35913" ry="4.8157"/><ellipse class="e34f453f-6c64-41a8-bbd1-c5fe225cabfc" cx="768.36377" cy="329.21405" rx="2.90344" ry="2.60902"/><ellipse class="e3e687fd-0c77-40e0-ac5d-3c374600e278" cx="790.14514" cy="329.21405" rx="8.88552" ry="7.9845"/><ellipse class="b5111b3e-a90f-4566-83a6-64913e99d186" cx="790.14514" cy="329.21405" rx="5.35913" ry="4.8157"/><ellipse class="e34f453f-6c64-41a8-bbd1-c5fe225cabfc" cx="790.14514" cy="329.21405" rx="2.90344" ry="2.60902"/><rect class="e3e687fd-0c77-40e0-ac5d-3c374600e278" x="723.64955" y="324.39835" width="8.88552" height="11.75192"/><rect class="b5111b3e-a90f-4566-83a6-64913e99d186" x="724.93668" y="326.1007" width="6.31125" height="8.3472"/><rect class="e34f453f-6c64-41a8-bbd1-c5fe225cabfc" x="726.04014" y="327.0902" width="4.10434" height="3.68815"/><rect class="b3fbc4bb-141f-4113-8f25-f424024f430d" x="110.85667" y="303.06948" width="277.2245" height="42.65772" rx="14.74001"/><rect class="e3e687fd-0c77-40e0-ac5d-3c374600e278" x="121.08468" y="310.63932" width="260.90715" height="26.59338" rx="9.18911"/><path class="b3fbc4bb-141f-4113-8f25-f424024f430d" d="M688.39989,360.11814"/><polygon class="b3fbc4bb-141f-4113-8f25-f424024f430d" points="732.563 360.521 732.563 399.65 732.563 421.094 663.76 421.094 663.76 360.118 732.563 360.521"/><polygon class="b3fbc4bb-141f-4113-8f25-f424024f430d" points="433.313 360.521 433.313 399.65 433.313 421.094 388.479 421.094 388.479 360.118 433.313 360.521"/><polygon class="b3fbc4bb-141f-4113-8f25-f424024f430d" points="265.128 346.332 265.128 394.627 265.128 421.094 135.832 421.094 135.832 345.836 265.128 346.332"/><polygon class="b3fbc4bb-141f-4113-8f25-f424024f430d" points="362.923 346.332 362.923 394.627 362.923 421.094 335.153 421.094 335.153 345.836 362.923 346.332"/><polygon class="b3fbc4bb-141f-4113-8f25-f424024f430d" points="807.99 360.521 807.99 399.65 807.99 421.094 739.188 421.094 739.188 360.118 807.99 360.521"/><polyline class="e3e687fd-0c77-40e0-ac5d-3c374600e278" points="663.76 363.05 732.563 369.519 732.563 360.521 663.76 360.118"/><polyline class="e3e687fd-0c77-40e0-ac5d-3c374600e278" points="388.479 363.384 433.313 369.853 433.313 360.521 388.479 360.452"/><polyline class="e3e687fd-0c77-40e0-ac5d-3c374600e278" points="335.116 349.62 362.878 356.089 362.878 346.757 335.116 346.688"/><polyline class="e3e687fd-0c77-40e0-ac5d-3c374600e278" points="135.832 349.62 265.128 356.089 265.128 346.757 135.832 346.688"/><polyline class="e3e687fd-0c77-40e0-ac5d-3c374600e278" points="739.188 369.519 807.99 376.158 807.99 360.521 739.188 360.521"/><rect class="e3e687fd-0c77-40e0-ac5d-3c374600e278" x="659.04955" y="421.09443" width="153.84169" height="3.06986"/><rect class="e3e687fd-0c77-40e0-ac5d-3c374600e278" x="654.45319" y="424.16429" width="163.03441" height="3.06986"/><rect class="e3e687fd-0c77-40e0-ac5d-3c374600e278" x="485.17562" y="421.09443" width="153.84169" height="3.06986"/><rect class="e3e687fd-0c77-40e0-ac5d-3c374600e278" x="480.57926" y="424.16429" width="163.03441" height="3.06986"/><rect class="e3e687fd-0c77-40e0-ac5d-3c374600e278" x="384.88959" y="421.09443" width="52.0128" height="3.06986"/><rect class="e3e687fd-0c77-40e0-ac5d-3c374600e278" x="383.33559" y="424.16429" width="55.1208" height="3.06986"/><rect class="e3e687fd-0c77-40e0-ac5d-3c374600e278" x="331.01292" y="421.09443" width="36.05057" height="3.06986"/><rect class="e3e687fd-0c77-40e0-ac5d-3c374600e278" x="329.93583" y="424.16429" width="38.20475" height="3.06986"/><rect class="e3e687fd-0c77-40e0-ac5d-3c374600e278" x="132.25375" y="421.09443" width="136.45209" height="3.06986"/><rect class="e3e687fd-0c77-40e0-ac5d-3c374600e278" x="128.17694" y="424.16429" width="144.60571" height="3.06986"/><rect class="b3fbc4bb-141f-4113-8f25-f424024f430d" x="496.30779" y="296.99822" width="131.95753" height="124.09621"/><circle class="e3e687fd-0c77-40e0-ac5d-3c374600e278" cx="622.74242" cy="416.41856" r="2.26"/><circle class="b5111b3e-a90f-4566-83a6-64913e99d186" cx="622.74242" cy="416.41856" r="1.7165"/><rect class="e34f453f-6c64-41a8-bbd1-c5fe225cabfc" x="622.39488" y="415.05005" width="0.69508" height="2.73702"/><rect class="e34f453f-6c64-41a8-bbd1-c5fe225cabfc" x="622.39488" y="415.05005" width="0.69508" height="2.73702" transform="translate(1039.16098 -206.32385) rotate(90)"/><circle class="e3e687fd-0c77-40e0-ac5d-3c374600e278" cx="501.72876" cy="416.41856" r="2.26"/><circle class="b5111b3e-a90f-4566-83a6-64913e99d186" cx="501.72876" cy="416.41856" r="1.7165"/><rect class="e34f453f-6c64-41a8-bbd1-c5fe225cabfc" x="501.38121" y="415.05005" width="0.69508" height="2.73702"/><rect class="e34f453f-6c64-41a8-bbd1-c5fe225cabfc" x="501.38121" y="415.05005" width="0.69508" height="2.73702" transform="translate(918.14732 -85.31019) rotate(90)"/><circle class="e3e687fd-0c77-40e0-ac5d-3c374600e278" cx="622.74242" cy="303.1267" r="2.26"/><circle class="b5111b3e-a90f-4566-83a6-64913e99d186" cx="622.74242" cy="303.1267" r="1.7165"/><rect class="e34f453f-6c64-41a8-bbd1-c5fe225cabfc" x="622.39488" y="301.75819" width="0.69508" height="2.73702"/><rect class="e34f453f-6c64-41a8-bbd1-c5fe225cabfc" x="622.39488" y="301.75819" width="0.69508" height="2.73702" transform="translate(925.86912 -319.61571) rotate(90)"/><circle class="e3e687fd-0c77-40e0-ac5d-3c374600e278" cx="501.72876" cy="303.1267" r="2.26"/><circle class="b5111b3e-a90f-4566-83a6-64913e99d186" cx="501.72876" cy="303.1267" r="1.7165"/><rect class="e34f453f-6c64-41a8-bbd1-c5fe225cabfc" x="501.38121" y="301.75819" width="0.69508" height="2.73702"/><rect class="e34f453f-6c64-41a8-bbd1-c5fe225cabfc" x="501.38121" y="301.75819" width="0.69508" height="2.73702" transform="translate(804.85546 -198.60205) rotate(90)"/><rect class="e3e687fd-0c77-40e0-ac5d-3c374600e278" x="514.28617" y="313.85155" width="95.19405" height="38.30303"/><path class="e34f453f-6c64-41a8-bbd1-c5fe225cabfc" d="M530.98821,324.42556c.31271-.42478.58426-.82747.88947-1.20281,2.07563-2.55262,2.07792-2.55076,5.01082-1.15086a2.10221,2.10221,0,0,0,2.91851-1.8954c-.01913-3.28907.002-3.22144,2.996-4.1574a1.80509,1.80509,0,0,1,2.47018.99622,4.05079,4.05079,0,0,0,1.81238,1.86834,2.07773,2.07773,0,0,0,2.70031-1.56834c.25067-.70517.92171-1.79326,1.39185-1.7877a9.90329,9.90329,0,0,1,4.084.8931c.44733.215.37958,1.59911.46134,2.4579.19386,2.03655,1.82105,2.8331,3.52324,1.69371a9.11,9.11,0,0,0,1.09409-.74006,1.21229,1.21229,0,0,1,1.911.07254c.20607.20742.45515.37143.678.5629,2.15872,1.85467,2.19686,1.87608.843,4.36661a2.24118,2.24118,0,0,0,2.177,3.25889c2.80677-.24386,2.74015-.18653,3.655,2.5402.48946,1.45887.28361,2.38227-1.18758,3.03885-1.02939.45941-2.0947,1.10635-1.57505,2.53418a2.91436,2.91436,0,0,0,1.09566,1.50638c2.67766,1.4848,2.63768,1.43424,1.97953,4.44414-.2933,1.34135-.87747,1.98435-2.272,1.73963a3.5709,3.5709,0,0,0-.44021.0033,2.17091,2.17091,0,0,0-2.3568,1.26022c-.57319,1.09212-.09474,1.70131.39864,2.49909.4164.67332,1.172,1.72764.94276,2.10109a10.47813,10.47813,0,0,1-2.93519,3.1922c-.4116.27754-1.63782-.5434-2.43131-.97446a1.76165,1.76165,0,0,0-1.99593.01682,2.17885,2.17885,0,0,0-1.16737,2.53368c.31075,2.34347.2739,2.34937-1.92436,3.06845a7.29,7.29,0,0,0-.84208.25414c-1.2996.61021-2.132.249-2.77237-1.05612-.41838-.85266-.76813-1.87984-2.18706-1.78471a2.10555,2.10555,0,0,0-2.10768,1.40047c-.33135.77219-.89464,2.04569-1.35952,2.04775a11.12234,11.12234,0,0,1-4.24525-.89025c-.38563-.16131-.40811-1.48783-.37934-2.27227a2.22855,2.22855,0,0,0-1.41435-2.27218c-1.12477-.6208-1.736.06806-2.47536.562-1.85955,1.24237-1.85556,1.25219-3.51855-.20586-.33134-.29051-.6264-.62553-.97372-.89408a1.42694,1.42694,0,0,1-.39363-2.23523,9.25628,9.25628,0,0,0,.69952-1.28885,2.08144,2.08144,0,0,0-1.97343-3.048c-3.15135.05132-3.10844.0383-4.0253-2.9847a1.76575,1.76575,0,0,1,.97414-2.45621c.72965-.383,1.635-.97939,1.84969-1.67033a2.03384,2.03384,0,0,0-1.35032-2.79532c-.76691-.26365-1.97692-.91015-1.98318-1.39657a13.47525,13.47525,0,0,1,.83818-4.12387c.08109-.25606.93719-.27711,1.44-.38688.87783-.19162,2.0113-.09349,2.57916-.61552a1.98114,1.98114,0,0,0,.20845-3.078A13.5303,13.5303,0,0,1,530.98821,324.42556Zm17.66893,25.53579a13.013,13.013,0,1,0-12.90025-13.18451A12.91269,12.91269,0,0,0,548.65714,349.96135Z"/><path class="e34f453f-6c64-41a8-bbd1-c5fe225cabfc" d="M596.69639,347.48386a11.50148,11.50148,0,0,1-.95347.9953,1.94047,1.94047,0,0,0-.72432,2.28737,1.73988,1.73988,0,0,0,1.73017,1.45435c1.35005.10015,1.44845.93128,1.45866,2.01943.01033,1.10066-.11,1.914-1.45157,2.02057a2.068,2.068,0,0,0-.96706,3.64877c1.183.769.84612,1.61163.31487,2.62069-.54519,1.03553-1.17833,1.49161-2.30366.93434-.96626-.4785-1.58917.01013-2.30385.64975a1.57281,1.57281,0,0,0-.34489,2.09042c.54768,1.17022.05481,1.77658-.95537,2.33164-.93821.51552-1.72718.8855-2.496-.223a2.07659,2.07659,0,0,0-3.70694,1.03806c-.1066,1.22951-.87486,1.42748-1.92669,1.40741-1.0337-.01972-1.8362-.008-2.11612-1.37847-.42338-2.07286-2.31566-2.54411-3.692-.93258-.86579,1.01376-1.5487.78809-2.50208.25455-.95692-.53552-1.61629-1.06832-1.02926-2.25483a1.795,1.795,0,0,0-.5453-2.31319,1.75941,1.75941,0,0,0-2.22738-.38048c-1.05.461-1.68434.15074-2.21234-.86949-.50662-.97891-1.00548-1.80845.19313-2.63583a1.71928,1.71928,0,0,0,.71485-2.13269,1.86278,1.86278,0,0,0-1.80806-1.56412c-1.11849-.10117-1.50068-.72107-1.44232-1.771.05-.90015-.20461-1.82407,1.113-2.18562,2.54552-.69846,2.86578-2.20752.97176-4.08568-.20724-.2055-.40026-.42535-.6684-.71172.22755-.4713.47362-.94194.68538-1.42753.47333-1.08537,1.14762-1.62663,2.37234-1.03768a1.74713,1.74713,0,0,0,2.18866-.55386,1.69078,1.69078,0,0,0,.40439-2.21356c-.5406-1.06662-.17726-1.68823.83789-2.20336.92952-.47168,1.6322-1.06212,2.63271.068,1.47594,1.66711,3.30548,1.127,3.72769-1.09953.25641-1.35227,1.07616-1.25217,2.01309-1.2911,1.00638-.04182,1.73307.07675,2.02086,1.31678.50755,2.18694,2.28423,2.62863,3.75134.90358.86482-1.01687,1.52135-.66677,2.37741-.181.84708.48065,1.53895.85912,1.14453,2.12345-.68654,2.20083.63186,3.47011,2.83361,2.77269a1.40264,1.40264,0,0,1,1.9865.81819C596.06241,346.36026,596.38371,346.90332,596.69639,347.48386Zm-14.92466,17.68383a10.777,10.777,0,1,0-10.69491-10.78955A10.7182,10.7182,0,0,0,581.77173,365.16769Z"/><path class="e844665b-1709-4c66-b655-e47d9d2abc80" d="M548.65714,349.96135a13.013,13.013,0,1,1,.24821-26.02473,13.013,13.013,0,0,1-.24821,26.02473Zm11.88377-12.98486a11.82775,11.82775,0,0,0-23.65428-.14026,11.94447,11.94447,0,0,0,11.78528,11.99838A11.8072,11.8072,0,0,0,560.54091,336.97649Z"/><path class="e844665b-1709-4c66-b655-e47d9d2abc80" d="M581.77173,365.16769a10.777,10.777,0,0,1,.03914-21.55369,10.77717,10.77717,0,1,1-.03914,21.55369ZM571.721,354.21246a9.96828,9.96828,0,0,0,9.81006,10.30833,10.13354,10.13354,0,1,0,.5099-20.26A9.97084,9.97084,0,0,0,571.721,354.21246Z"/><path class="e34f453f-6c64-41a8-bbd1-c5fe225cabfc" d="M560.54091,336.97649a11.8072,11.8072,0,0,1-11.869,11.85812,11.94447,11.94447,0,0,1-11.78528-11.99838,11.82775,11.82775,0,0,1,23.65428.14026Zm-20.96655-.04362a9.07459,9.07459,0,0,0,9.19852,9.20985,9.223,9.223,0,0,0,9.203-9.12327,9.35777,9.35777,0,0,0-9.11134-9.28042A9.24479,9.24479,0,0,0,539.57436,336.93287Z"/><path class="e34f453f-6c64-41a8-bbd1-c5fe225cabfc" d="M571.721,354.21246a9.97084,9.97084,0,0,1,10.32-9.95172,10.13354,10.13354,0,1,1-.5099,20.26A9.96828,9.96828,0,0,1,571.721,354.21246Zm3.75059-.00157a6.41148,6.41148,0,0,0,6.38993,6.46727,6.45276,6.45276,0,0,0,.04542-12.905A6.44517,6.44517,0,0,0,575.47157,354.21089Z"/><path class="e844665b-1709-4c66-b655-e47d9d2abc80" d="M539.57436,336.93287a9.24479,9.24479,0,0,1,9.29023-9.19384,9.35777,9.35777,0,0,1,9.11134,9.28042,9.223,9.223,0,0,1-9.203,9.12327A9.07459,9.07459,0,0,1,539.57436,336.93287Z"/><path class="e844665b-1709-4c66-b655-e47d9d2abc80" d="M575.47157,354.21089a6.44517,6.44517,0,0,1,6.43535-6.43772,6.45276,6.45276,0,0,1-.04542,12.905A6.41148,6.41148,0,0,1,575.47157,354.21089Z"/><path class="e34f453f-6c64-41a8-bbd1-c5fe225cabfc" d="M114.95884,312.33537c.30681-.41678.57325-.81189.87271-1.18015,2.03653-2.50453,2.03878-2.5027,4.91641-1.12917a2.06262,2.06262,0,0,0,2.86353-1.8597c-.01877-3.22711.002-3.16075,2.9396-4.07907a1.77107,1.77107,0,0,1,2.42364.97745,3.97439,3.97439,0,0,0,1.77823,1.83313,2.03857,2.03857,0,0,0,2.64944-1.53879c.24595-.69188.90434-1.75947,1.36563-1.754a9.71672,9.71672,0,0,1,4.007.87627c.4389.21093.37243,1.569.45264,2.4116.19021,1.99818,1.78675,2.77972,3.45686,1.66179a8.93839,8.93839,0,0,0,1.07348-.72611,1.18945,1.18945,0,0,1,1.875.07117c.20218.20351.44657.36443.66525.5523,2.118,1.81972,2.15546,1.84073.82715,4.28434a2.199,2.199,0,0,0,2.136,3.19749c2.7539-.23927,2.68853-.183,3.58611,2.49234.48024,1.43138.27827,2.33739-1.1652,2.9816-1.01.45075-2.05524,1.0855-1.54538,2.48643a2.85942,2.85942,0,0,0,1.075,1.478c2.62721,1.45683,2.588,1.40722,1.94224,4.36042-.28778,1.31608-.86094,1.947-2.22924,1.70685a3.5073,3.5073,0,0,0-.43192.00324,2.13,2.13,0,0,0-2.31239,1.23648c-.5624,1.07154-.093,1.66926.39112,2.452.40857.66064,1.14988,1.69509.925,2.06151a10.28075,10.28075,0,0,1-2.8799,3.13206c-.40384.27231-1.607-.53317-2.3855-.9561a1.72844,1.72844,0,0,0-1.95833.0165,2.13779,2.13779,0,0,0-1.14537,2.48594c.30489,2.29933.26874,2.30512-1.88811,3.01065a7.15261,7.15261,0,0,0-.82622.24934c-1.27511.59872-2.0918.24431-2.72013-1.03622-.41049-.83659-.75366-1.84442-2.14586-1.75108a2.06589,2.06589,0,0,0-2.068,1.37408c-.32511.75764-.87778,2.00715-1.3339,2.00917a10.91278,10.91278,0,0,1-4.16527-.87347c-.37837-.15827-.40042-1.45981-.37219-2.22946a2.1866,2.1866,0,0,0-1.38771-2.22938c-1.10358-.6091-1.70334.06678-2.42873.55143-1.8245,1.219-1.82059,1.22859-3.45225-.202-.3251-.285-.6146-.61374-.95538-.87723a1.40006,1.40006,0,0,1-.38621-2.19312,9.08216,9.08216,0,0,0,.68634-1.26457,2.04222,2.04222,0,0,0-1.93625-2.99052c-3.092.05035-3.04988.03758-3.94946-2.92847a1.73249,1.73249,0,0,1,.95579-2.40994c.71589-.37577,1.60424-.96094,1.81483-1.63885a1.99553,1.99553,0,0,0-1.32488-2.74266c-.75246-.25869-1.93967-.893-1.94581-1.37026a13.221,13.221,0,0,1,.82239-4.04618c.07955-.25123.91953-.27189,1.4129-.37959.8613-.188,1.97341-.09173,2.53058-.60392a1.94383,1.94383,0,0,0,.20452-3.02A13.27461,13.27461,0,0,1,114.95884,312.33537Zm17.336,25.05469a12.7678,12.7678,0,1,0-12.6572-12.93611A12.6694,12.6694,0,0,0,132.29488,337.39006Z"/><path class="e844665b-1709-4c66-b655-e47d9d2abc80" d="M132.29488,337.39006a12.7678,12.7678,0,1,1,.24354-25.53442,12.76779,12.76779,0,0,1-.24354,25.53442Zm11.65988-12.74022a11.60491,11.60491,0,0,0-23.20863-.13762,11.71944,11.71944,0,0,0,11.56325,11.77233A11.58475,11.58475,0,0,0,143.95476,324.64984Z"/><path class="e34f453f-6c64-41a8-bbd1-c5fe225cabfc" d="M143.95476,324.64984a11.58475,11.58475,0,0,1-11.64538,11.63471,11.71944,11.71944,0,0,1-11.56325-11.77233,11.60491,11.60491,0,0,1,23.20863.13762Zm-20.57154-.04281a8.90363,8.90363,0,0,0,9.02522,9.03635,9.04922,9.04922,0,0,0,9.02966-8.95139,9.18147,9.18147,0,0,0-8.93967-9.10558A9.07062,9.07062,0,0,0,123.38322,324.607Z"/><path class="e844665b-1709-4c66-b655-e47d9d2abc80" d="M123.38322,324.607a9.07062,9.07062,0,0,1,9.11521-9.02062,9.18147,9.18147,0,0,1,8.93967,9.10558,9.04922,9.04922,0,0,1-9.02966,8.95139A8.90363,8.90363,0,0,1,123.38322,324.607Z"/><path class="e34f453f-6c64-41a8-bbd1-c5fe225cabfc" d="M349.70768,312.33537c.30681-.41678.57325-.81189.87271-1.18015,2.03653-2.50453,2.03877-2.5027,4.91641-1.12917a2.06262,2.06262,0,0,0,2.86353-1.8597c-.01877-3.22711.002-3.16075,2.93959-4.07907a1.77108,1.77108,0,0,1,2.42365.97745,3.97439,3.97439,0,0,0,1.77823,1.83313,2.03856,2.03856,0,0,0,2.64943-1.53879c.24595-.69188.90435-1.75947,1.36564-1.754a9.71664,9.71664,0,0,1,4.007.87627c.43891.21093.37243,1.569.45264,2.4116.19022,1.99818,1.78675,2.77972,3.45687,1.66179a8.93747,8.93747,0,0,0,1.07347-.72611,1.18946,1.18946,0,0,1,1.875.07117c.20218.20351.44657.36443.66524.5523,2.118,1.81972,2.15547,1.84073.82716,4.28434a2.199,2.199,0,0,0,2.136,3.19749c2.75389-.23927,2.68853-.183,3.58611,2.49234.48024,1.43138.27827,2.33739-1.1652,2.9816-1.01.45075-2.05524,1.0855-1.54538,2.48643a2.85942,2.85942,0,0,0,1.075,1.478c2.62721,1.45683,2.588,1.40722,1.94223,4.36042-.28777,1.31608-.86093,1.947-2.22923,1.70685a3.50727,3.50727,0,0,0-.43192.00324,2.13,2.13,0,0,0-2.3124,1.23648c-.56239,1.07154-.09295,1.66926.39113,2.452.40856.66064,1.14988,1.69509.925,2.06151a10.2806,10.2806,0,0,1-2.87989,3.13206c-.40385.27231-1.607-.53317-2.3855-.9561a1.72844,1.72844,0,0,0-1.95833.0165,2.13779,2.13779,0,0,0-1.14537,2.48594c.30489,2.29933.26873,2.30512-1.88811,3.01065a7.152,7.152,0,0,0-.82622.24934c-1.27511.59872-2.09181.24431-2.72013-1.03622-.4105-.83659-.75366-1.84442-2.14586-1.75108a2.06588,2.06588,0,0,0-2.068,1.37408c-.32511.75764-.87778,2.00715-1.3339,2.00917a10.91283,10.91283,0,0,1-4.16528-.87347c-.37836-.15827-.40042-1.45981-.37219-2.22946a2.18658,2.18658,0,0,0-1.3877-2.22938c-1.10358-.6091-1.70334.06678-2.42873.55143-1.82451,1.219-1.82059,1.22859-3.45225-.202-.3251-.285-.6146-.61374-.95538-.87723a1.40006,1.40006,0,0,1-.38621-2.19312,9.08216,9.08216,0,0,0,.68634-1.26457,2.04222,2.04222,0,0,0-1.93625-2.99052c-3.092.05035-3.04988.03758-3.94947-2.92847a1.7325,1.7325,0,0,1,.95579-2.40994c.7159-.37577,1.60425-.96094,1.81484-1.63885a1.99553,1.99553,0,0,0-1.32488-2.74266c-.75246-.25869-1.93967-.893-1.94581-1.37026a13.2213,13.2213,0,0,1,.82238-4.04618c.07956-.25123.91954-.27189,1.41291-.37959.8613-.188,1.97341-.09173,2.53057-.60392a1.94383,1.94383,0,0,0,.20453-3.02A13.27461,13.27461,0,0,1,349.70768,312.33537Zm17.336,25.05469a12.7678,12.7678,0,1,0-12.6572-12.93611A12.6694,12.6694,0,0,0,367.04372,337.39006Z"/><path class="e844665b-1709-4c66-b655-e47d9d2abc80" d="M367.04372,337.39006a12.7678,12.7678,0,1,1,.24353-25.53442,12.76779,12.76779,0,0,1-.24353,25.53442Zm11.65988-12.74022a11.60491,11.60491,0,0,0-23.20863-.13762,11.71944,11.71944,0,0,0,11.56325,11.77233A11.58475,11.58475,0,0,0,378.7036,324.64984Z"/><path class="e34f453f-6c64-41a8-bbd1-c5fe225cabfc" d="M378.7036,324.64984a11.58475,11.58475,0,0,1-11.64538,11.63471A11.71944,11.71944,0,0,1,355.495,324.51222a11.60491,11.60491,0,0,1,23.20863.13762Zm-20.57154-.04281a8.90363,8.90363,0,0,0,9.02522,9.03635,9.04922,9.04922,0,0,0,9.02966-8.95139,9.18147,9.18147,0,0,0-8.93967-9.10558A9.07062,9.07062,0,0,0,358.13206,324.607Z"/><path class="e844665b-1709-4c66-b655-e47d9d2abc80" d="M358.13206,324.607a9.07062,9.07062,0,0,1,9.11521-9.02062,9.18147,9.18147,0,0,1,8.93967,9.10558,9.04922,9.04922,0,0,1-9.02966,8.95139A8.90363,8.90363,0,0,1,358.13206,324.607Z"/><rect class="b3fbc4bb-141f-4113-8f25-f424024f430d" x="514.28617" y="352.15459" width="94.89239" height="19.91758"/><circle class="e3e687fd-0c77-40e0-ac5d-3c374600e278" cx="542.31052" cy="368.33925" r="7.9845"/><circle class="b5111b3e-a90f-4566-83a6-64913e99d186" cx="542.31052" cy="368.33925" r="4.8157"/><circle class="e34f453f-6c64-41a8-bbd1-c5fe225cabfc" cx="542.31052" cy="368.33925" r="2.60902"/><circle class="e3e687fd-0c77-40e0-ac5d-3c374600e278" cx="173.36816" cy="323.93601" r="7.9845"/><circle class="b5111b3e-a90f-4566-83a6-64913e99d186" cx="173.36816" cy="323.93601" r="4.8157"/><circle class="e34f453f-6c64-41a8-bbd1-c5fe225cabfc" cx="173.36816" cy="323.93601" r="2.60902"/><circle class="e3e687fd-0c77-40e0-ac5d-3c374600e278" cx="201.96775" cy="323.93601" r="7.9845"/><circle class="b5111b3e-a90f-4566-83a6-64913e99d186" cx="201.96775" cy="323.93601" r="4.8157"/><circle class="e34f453f-6c64-41a8-bbd1-c5fe225cabfc" cx="201.96775" cy="323.93601" r="2.60902"/><circle class="e3e687fd-0c77-40e0-ac5d-3c374600e278" cx="231.71224" cy="323.93601" r="7.9845"/><circle class="b5111b3e-a90f-4566-83a6-64913e99d186" cx="231.71224" cy="323.93601" r="4.8157"/><circle class="e34f453f-6c64-41a8-bbd1-c5fe225cabfc" cx="231.71224" cy="323.93601" r="2.60902"/><circle class="e3e687fd-0c77-40e0-ac5d-3c374600e278" cx="260.31184" cy="323.93601" r="7.9845"/><circle class="b5111b3e-a90f-4566-83a6-64913e99d186" cx="260.31184" cy="323.93601" r="4.8157"/><circle class="e34f453f-6c64-41a8-bbd1-c5fe225cabfc" cx="260.31184" cy="323.93601" r="2.60902"/><circle class="e3e687fd-0c77-40e0-ac5d-3c374600e278" cx="289.48388" cy="323.93601" r="7.9845"/><circle class="b5111b3e-a90f-4566-83a6-64913e99d186" cx="289.48388" cy="323.93601" r="4.8157"/><circle class="e34f453f-6c64-41a8-bbd1-c5fe225cabfc" cx="289.48388" cy="323.93601" r="2.60902"/><circle class="e3e687fd-0c77-40e0-ac5d-3c374600e278" cx="316.7395" cy="323.93601" r="7.9845"/><circle class="b5111b3e-a90f-4566-83a6-64913e99d186" cx="316.7395" cy="323.93601" r="4.8157"/><circle class="e34f453f-6c64-41a8-bbd1-c5fe225cabfc" cx="316.7395" cy="323.93601" r="2.60902"/><circle class="e3e687fd-0c77-40e0-ac5d-3c374600e278" cx="561.88319" cy="368.33925" r="7.9845"/><circle class="b5111b3e-a90f-4566-83a6-64913e99d186" cx="561.88319" cy="368.33925" r="4.8157"/><circle class="e34f453f-6c64-41a8-bbd1-c5fe225cabfc" cx="561.88319" cy="368.33925" r="2.60902"/><circle class="e3e687fd-0c77-40e0-ac5d-3c374600e278" cx="581.45586" cy="368.33925" r="7.9845"/><circle class="b5111b3e-a90f-4566-83a6-64913e99d186" cx="581.45586" cy="368.33925" r="4.8157"/><circle class="e34f453f-6c64-41a8-bbd1-c5fe225cabfc" cx="581.45586" cy="368.33925" r="2.60902"/><rect class="e3e687fd-0c77-40e0-ac5d-3c374600e278" x="523.71217" y="382.41398" width="77.4998" height="1.53212"/><circle class="e3e687fd-0c77-40e0-ac5d-3c374600e278" cx="591.99884" cy="383.18004" r="2.12579"/><circle class="b5111b3e-a90f-4566-83a6-64913e99d186" cx="591.99884" cy="383.18004" r="1.28213"/><circle class="e34f453f-6c64-41a8-bbd1-c5fe225cabfc" cx="591.99884" cy="383.18004" r="0.69463"/><rect class="e3e687fd-0c77-40e0-ac5d-3c374600e278" x="523.71217" y="387.71443" width="77.4998" height="1.53212"/><circle class="e3e687fd-0c77-40e0-ac5d-3c374600e278" cx="584.06488" cy="388.48049" r="2.12579"/><circle class="b5111b3e-a90f-4566-83a6-64913e99d186" cx="584.06488" cy="388.48049" r="1.28213"/><circle class="e34f453f-6c64-41a8-bbd1-c5fe225cabfc" cx="584.06488" cy="388.48049" r="0.69463"/><rect class="e3e687fd-0c77-40e0-ac5d-3c374600e278" x="523.71217" y="392.94732" width="77.4998" height="1.53212"/><circle class="e3e687fd-0c77-40e0-ac5d-3c374600e278" cx="546.5877" cy="393.71338" r="2.12579"/><circle class="b5111b3e-a90f-4566-83a6-64913e99d186" cx="546.5877" cy="393.71338" r="1.28213"/><circle class="e34f453f-6c64-41a8-bbd1-c5fe225cabfc" cx="546.5877" cy="393.71338" r="0.69463"/><rect class="e3e687fd-0c77-40e0-ac5d-3c374600e278" x="644.25746" y="335.13102" width="54.8826" height="17.02357"/><circle class="e3e687fd-0c77-40e0-ac5d-3c374600e278" cx="646.87551" cy="337.57515" r="1.49175"/><circle class="b5111b3e-a90f-4566-83a6-64913e99d186" cx="646.87551" cy="337.57515" r="1.13301"/><rect class="e34f453f-6c64-41a8-bbd1-c5fe225cabfc" x="646.64611" y="336.67184" width="0.4588" height="1.80662"/><rect class="e34f453f-6c64-41a8-bbd1-c5fe225cabfc" x="646.64611" y="336.67184" width="0.4588" height="1.80662" transform="translate(984.45066 -309.30037) rotate(90)"/><circle class="e3e687fd-0c77-40e0-ac5d-3c374600e278" cx="646.87551" cy="349.88962" r="1.49175"/><circle class="b5111b3e-a90f-4566-83a6-64913e99d186" cx="646.87551" cy="349.88962" r="1.13301"/><rect class="e34f453f-6c64-41a8-bbd1-c5fe225cabfc" x="646.64611" y="348.98631" width="0.4588" height="1.80662"/><rect class="e34f453f-6c64-41a8-bbd1-c5fe225cabfc" x="646.64611" y="348.98631" width="0.4588" height="1.80662" transform="translate(996.76513 -296.9859) rotate(90)"/><circle class="e3e687fd-0c77-40e0-ac5d-3c374600e278" cx="696.51802" cy="337.57515" r="1.49175"/><circle class="b5111b3e-a90f-4566-83a6-64913e99d186" cx="696.51802" cy="337.57515" r="1.13301"/><rect class="e34f453f-6c64-41a8-bbd1-c5fe225cabfc" x="696.28861" y="336.67184" width="0.4588" height="1.80662"/><rect class="e34f453f-6c64-41a8-bbd1-c5fe225cabfc" x="696.28861" y="336.67184" width="0.4588" height="1.80662" transform="translate(1034.09316 -358.94287) rotate(90)"/><circle class="e3e687fd-0c77-40e0-ac5d-3c374600e278" cx="696.51802" cy="349.88962" r="1.49175"/><circle class="b5111b3e-a90f-4566-83a6-64913e99d186" cx="696.51802" cy="349.88962" r="1.13301"/><rect class="e34f453f-6c64-41a8-bbd1-c5fe225cabfc" x="696.28861" y="348.98631" width="0.4588" height="1.80662"/><rect class="e34f453f-6c64-41a8-bbd1-c5fe225cabfc" x="696.28861" y="348.98631" width="0.4588" height="1.80662" transform="translate(1046.40763 -346.6284) rotate(90)"/><rect class="b3fbc4bb-141f-4113-8f25-f424024f430d" x="653.04875" y="339.12353" width="37.15394" height="2.05085"/><rect class="b3fbc4bb-141f-4113-8f25-f424024f430d" x="653.04875" y="342.61737" width="37.15394" height="2.05085"/><rect class="b3fbc4bb-141f-4113-8f25-f424024f430d" x="653.04875" y="346.11122" width="37.15394" height="2.05085"/><rect class="e3e687fd-0c77-40e0-ac5d-3c374600e278" x="459.15936" y="305.3867" width="9.04657" height="12.40797"/><circle class="e3e687fd-0c77-40e0-ac5d-3c374600e278" cx="463.85861" cy="293.42485" r="18.70074"/><circle class="b5111b3e-a90f-4566-83a6-64913e99d186" cx="463.85861" cy="293.42485" r="16.76585"/><path class="e3e687fd-0c77-40e0-ac5d-3c374600e278" d="M453.96619,296.866a10.69121,10.69121,0,1,1,20.14312,0h3.10042a13.6569,13.6569,0,1,0-26.344,0Z"/><path class="e34f453f-6c64-41a8-bbd1-c5fe225cabfc" d="M464.03778,279.65035c-.11829,0-.23282.01473-.35038.01769v2.96566c.11738-.00382.23209-.0177.35038-.0177a10.66736,10.66736,0,0,1,10.07153,14.25h3.10042a13.61459,13.61459,0,0,0-13.17195-17.2157Z"/><circle class="b3fbc4bb-141f-4113-8f25-f424024f430d" cx="463.85861" cy="295.09697" r="2.20713"/><polyline class="b3fbc4bb-141f-4113-8f25-f424024f430d" points="466.066 295.097 463.859 284.514 461.651 295.097"/><polyline class="e3e687fd-0c77-40e0-ac5d-3c374600e278" points="746.728 258.072 731.051 258.072 731.051 315.429 746.728 315.429"/><polyline class="b3fbc4bb-141f-4113-8f25-f424024f430d" points="731.051 262.267 724.617 262.267 724.617 311.235 731.051 311.235"/><polyline class="b3fbc4bb-141f-4113-8f25-f424024f430d" points="724.704 266.444 720.19 266.444 720.19 306.64 724.705 306.64"/><path class="b3fbc4bb-141f-4113-8f25-f424024f430d" d="M719.85,266.44385s-11.12169,19.60411,0,40.1963"/><rect class="b3fbc4bb-141f-4113-8f25-f424024f430d" x="706.79817" y="284.92881" width="12.42721" height="3.14933"/><rect class="e3e687fd-0c77-40e0-ac5d-3c374600e278" x="719.84995" y="266.44385" width="0.75859" height="40.19631"/><rect class="e3e687fd-0c77-40e0-ac5d-3c374600e278" x="723.85796" y="266.44385" width="0.75859" height="40.19631"/><rect class="e844665b-1709-4c66-b655-e47d9d2abc80" x="746.72799" y="260.22649" width="70.81228" height="53.04859"/><rect class="e34f453f-6c64-41a8-bbd1-c5fe225cabfc" x="746.72799" y="309.19433" width="70.81228" height="4.08068"/><rect class="e34f453f-6c64-41a8-bbd1-c5fe225cabfc" x="746.72799" y="300.96344" width="70.81228" height="4.08068"/><rect class="e34f453f-6c64-41a8-bbd1-c5fe225cabfc" x="746.72799" y="292.73255" width="70.81228" height="4.08068"/><rect class="e34f453f-6c64-41a8-bbd1-c5fe225cabfc" x="746.72799" y="284.50166" width="70.81228" height="4.08068"/><rect class="e34f453f-6c64-41a8-bbd1-c5fe225cabfc" x="746.72799" y="276.27077" width="70.81228" height="4.08068"/><rect class="e34f453f-6c64-41a8-bbd1-c5fe225cabfc" x="746.72799" y="268.03988" width="70.81228" height="4.08068"/><rect class="e34f453f-6c64-41a8-bbd1-c5fe225cabfc" x="746.72799" y="260.22642" width="70.81228" height="4.08068"/><path class="e3e687fd-0c77-40e0-ac5d-3c374600e278" d="M817.54027,315.40916H839.493s9.80233-1.39012,9.80233-10.585V267.77113s-.07829-9.67872-9.67872-9.67872H817.54027"/><polyline class="b3fbc4bb-141f-4113-8f25-f424024f430d" points="746.728 258.092 740.293 258.092 740.293 315.409 746.728 315.409"/><polyline class="b3fbc4bb-141f-4113-8f25-f424024f430d" points="823.975 258.072 817.54 258.072 817.54 315.409 823.975 315.409"/><rect class="b3fbc4bb-141f-4113-8f25-f424024f430d" x="778.2408" y="254.99802" width="32.04687" height="15.0822"/><rect class="b3fbc4bb-141f-4113-8f25-f424024f430d" x="751.17332" y="247.72045" width="27.06748" height="22.35977"/><polyline class="b3fbc4bb-141f-4113-8f25-f424024f430d" points="751.173 247.72 755.685 243.209 764.707 243.209 764.707 248.061"/><polyline class="b3fbc4bb-141f-4113-8f25-f424024f430d" points="778.241 247.72 773.73 243.209 764.707 243.209 764.707 248.061"/><circle class="e3e687fd-0c77-40e0-ac5d-3c374600e278" cx="764.70706" cy="250.14631" r="3.95798"/><rect class="e3e687fd-0c77-40e0-ac5d-3c374600e278" x="751.17332" y="267.93222" width="59.11435" height="3.10933"/><rect class="b3fbc4bb-141f-4113-8f25-f424024f430d" x="763.10784" y="313.20764" width="38.05257" height="4.30889"/><rect class="b3fbc4bb-141f-4113-8f25-f424024f430d" x="770.87912" y="302.0867" width="22.51002" height="11.41286"/><circle class="e3e687fd-0c77-40e0-ac5d-3c374600e278" cx="778.67111" cy="307.79313" r="2.45816"/><circle class="e3e687fd-0c77-40e0-ac5d-3c374600e278" cx="785.59715" cy="307.79313" r="2.45816"/><path class="e34f453f-6c64-41a8-bbd1-c5fe225cabfc" d="M314.89291,328.99816c.15405-.20926.28783-.40764.43819-.59255,1.02254-1.25753,1.02367-1.25661,2.46853-.567a1.03563,1.03563,0,0,0,1.43778-.93375c-.00942-1.62033.001-1.587,1.476-2.04811a.88927.88927,0,0,1,1.21692.49078,1.99552,1.99552,0,0,0,.89285.92042,1.02357,1.02357,0,0,0,1.33028-.77263c.12349-.34739.45407-.88343.68568-.88069a4.87891,4.87891,0,0,1,2.01194.44c.22037.10591.187.78779.22727,1.21087a1.03852,1.03852,0,0,0,1.73569.83439,4.489,4.489,0,0,0,.539-.36458.59723.59723,0,0,1,.94146.03573c.10151.10218.22422.183.334.27731,1.06347.91369,1.08226.92424.41531,2.15117a1.1041,1.1041,0,0,0,1.07248,1.60546c1.38273-.12013,1.34991-.09189,1.80059,1.25141.24112.7187.13972,1.1736-.58505,1.49706-.50712.22632-1.03194.545-.77594,1.24844a1.43577,1.43577,0,0,0,.53977.7421c1.31913.73148,1.29943.70657.9752,2.18937-.1445.6608-.43228.97757-1.1193.857a1.76054,1.76054,0,0,0-.21687.00163,1.06946,1.06946,0,0,0-1.16105.62084c-.28238.538-.04668.83813.19638,1.23115.20514.3317.57736.8511.46445,1.03508a5.162,5.162,0,0,1-1.446,1.57261c-.20277.13673-.80686-.2677-1.19776-.48006a.86786.86786,0,0,0-.98328.00829,1.07338,1.07338,0,0,0-.57509,1.24819c.15308,1.15449.13493,1.1574-.948,1.51165a3.59083,3.59083,0,0,0-.41485.12519c-.64023.30062-1.05029.12267-1.36578-.52029-.20611-.42005-.37841-.92608-1.07743-.87922a1.03729,1.03729,0,0,0-1.03833.68993c-.16324.38042-.44074,1.00779-.66975,1.00881a5.47939,5.47939,0,0,1-2.09139-.43857c-.19-.07947-.20105-.733-.18688-1.11942a1.09788,1.09788,0,0,0-.69676-1.11937c-.55411-.30583-.85525.03353-1.21947.27687-.91609.612-.91412.61688-1.73338-.10141-.16323-.14312-.30859-.30816-.47969-.44046a.703.703,0,0,1-.19392-1.10117,4.55912,4.55912,0,0,0,.34461-.63494,1.0254,1.0254,0,0,0-.97219-1.50154c-1.55248.02528-1.53134.01887-1.983-1.47039a.86989.86989,0,0,1,.4799-1.21c.35946-.18867.80549-.48249.91123-.82287a1.002,1.002,0,0,0-.66522-1.37709c-.37781-.12988-.97391-.44838-.977-.688a6.63827,6.63827,0,0,1,.41292-2.03158c.03994-.12615.4617-.13652.70942-.1906.43246-.0944.99085-.04605,1.2706-.30323a.976.976,0,0,0,.10269-1.51636A6.66543,6.66543,0,0,1,314.89291,328.99816Zm8.70444,12.58a6.41072,6.41072,0,1,0-6.35519-6.49523A6.36132,6.36132,0,0,0,323.59735,341.57814Z"/><path class="e844665b-1709-4c66-b655-e47d9d2abc80" d="M323.59735,341.57814a6.41072,6.41072,0,1,1,.12228-12.82085,6.41072,6.41072,0,0,1-.12228,12.82085Zm5.85443-6.39687a5.82684,5.82684,0,0,0-11.65307-.0691,5.88434,5.88434,0,0,0,5.80591,5.91089A5.81672,5.81672,0,0,0,329.45178,335.18127Z"/><path class="e34f453f-6c64-41a8-bbd1-c5fe225cabfc" d="M329.45178,335.18127a5.81672,5.81672,0,0,1-5.84716,5.84179,5.88434,5.88434,0,0,1-5.80591-5.91089,5.82684,5.82684,0,0,1,11.65307.0691Zm-10.329-.0215a4.47051,4.47051,0,0,0,4.53157,4.53715,4.5436,4.5436,0,0,0,4.53379-4.49449,4.61,4.61,0,0,0-4.48861-4.57192A4.55436,4.55436,0,0,0,319.1228,335.15977Z"/><path class="e844665b-1709-4c66-b655-e47d9d2abc80" d="M319.1228,335.15977a4.55436,4.55436,0,0,1,4.57675-4.52926,4.61,4.61,0,0,1,4.48861,4.57192,4.5436,4.5436,0,0,1-4.53379,4.49449A4.47051,4.47051,0,0,1,319.1228,335.15977Z"/><path class="e34f453f-6c64-41a8-bbd1-c5fe225cabfc" d="M324.43734,308.71032c.18839-.25592.352-.49853.53587-.72466,1.2505-1.53786,1.25188-1.53674,3.01885-.69335a1.26651,1.26651,0,0,0,1.7583-1.14192c-.01152-1.98155.00121-1.9408,1.805-2.50468a1.08749,1.08749,0,0,1,1.4882.60019,2.44046,2.44046,0,0,0,1.0919,1.1256,1.25175,1.25175,0,0,0,1.62684-.94487c.151-.42484.5553-1.08038.83855-1.077a5.96631,5.96631,0,0,1,2.46045.538c.26951.12952.22869.96341.27794,1.48081a1.27,1.27,0,0,0,2.12263,1.0204,5.48807,5.48807,0,0,0,.65915-.44586.73038.73038,0,0,1,1.15135.0437c.12414.125.27421.22377.40848.33913,1.30055,1.11737,1.32353,1.13028.5079,2.63074a1.35023,1.35023,0,0,0,1.31157,1.96336c1.691-.14692,1.65084-.11238,2.202,1.53038.29488.87892.17087,1.43524-.71547,1.83081-.62018.27678-1.262.66653-.94892,1.52675a1.75581,1.75581,0,0,0,.6601.90755c1.6132.89454,1.58911.86408,1.1926,2.67744-.17671.80812-.52864,1.1955-1.36883,1.04807a2.153,2.153,0,0,0-.26521.002,1.30791,1.30791,0,0,0-1.41989.75925c-.34533.658-.05708,1.025.24016,1.50561.25088.40566.70607,1.04084.568,1.26584a6.31255,6.31255,0,0,1-1.76836,1.92319c-.248.16721-.98672-.32738-1.46477-.58708a1.06134,1.06134,0,0,0-1.20248.01013,1.31267,1.31267,0,0,0-.7033,1.52646c.18721,1.41186.165,1.41542-1.15937,1.84863a4.393,4.393,0,0,0-.50732.15311c-.783.36763-1.28445.15-1.67026-.63627-.25206-.5137-.46277-1.13254-1.31763-1.07523a1.26853,1.26853,0,0,0-1.2698.84373c-.19963.46522-.539,1.23246-.81906,1.23371a6.70083,6.70083,0,0,1-2.55763-.53635c-.23232-.09718-.24587-.89637-.22853-1.369a1.34263,1.34263,0,0,0-.8521-1.36891c-.67764-.374-1.04591.041-1.49132.33859-1.12031.74848-1.11791.7544-2.11981-.124-.19962-.175-.37738-.37686-.58663-.53865a.85968.85968,0,0,1-.23715-1.34665,5.57628,5.57628,0,0,0,.42144-.77649,1.254,1.254,0,0,0-1.18892-1.83628c-1.89858.03091-1.87273.02307-2.42511-1.79818a1.06381,1.06381,0,0,1,.58689-1.47979c.43958-.23073.98506-.59005,1.11437-1.00631a1.22532,1.22532,0,0,0-.81352-1.68408c-.462-.15885-1.191-.54834-1.1948-.84139a8.11833,8.11833,0,0,1,.505-2.48449c.04885-.15427.56462-.16695.86757-.23308.52886-.11545,1.21174-.05633,1.55386-.37083a1.19358,1.19358,0,0,0,.12558-1.85441A8.15115,8.15115,0,0,1,324.43734,308.71032Zm10.64492,15.38444a7.83987,7.83987,0,1,0-7.772-7.94322A7.77946,7.77946,0,0,0,335.08226,324.09476Z"/><path class="e844665b-1709-4c66-b655-e47d9d2abc80" d="M335.08226,324.09476a7.83987,7.83987,0,1,1,.14954-15.679,7.83986,7.83986,0,0,1-.14954,15.679Zm7.15956-7.82294a7.12581,7.12581,0,0,0-14.25089-.0845,7.19614,7.19614,0,0,0,7.10023,7.22861A7.11343,7.11343,0,0,0,342.24182,316.27182Z"/><path class="e34f453f-6c64-41a8-bbd1-c5fe225cabfc" d="M342.24182,316.27182a7.11343,7.11343,0,0,1-7.15066,7.14411,7.19614,7.19614,0,0,1-7.10023-7.22861,7.12581,7.12581,0,0,1,14.25089.0845Zm-12.63162-.02628a5.46712,5.46712,0,0,0,5.54179,5.54862,5.55653,5.55653,0,0,0,5.54452-5.49646,5.63774,5.63774,0,0,0-5.48927-5.59114A5.56967,5.56967,0,0,0,329.6102,316.24554Z"/><path class="e844665b-1709-4c66-b655-e47d9d2abc80" d="M329.6102,316.24554a5.56967,5.56967,0,0,1,5.597-5.539,5.63774,5.63774,0,0,1,5.48927,5.59114,5.55653,5.55653,0,0,1-5.54452,5.49646A5.46712,5.46712,0,0,1,329.6102,316.24554Z"/><rect class="b85c844f-404c-4117-999b-8b976b40fc84" x="110.85667" y="303.34959" width="277.2245" height="42.65772" rx="14.74001"/><rect class="e3e687fd-0c77-40e0-ac5d-3c374600e278" x="280.10118" y="273.6921" width="37.69726" height="29.08707"/><rect class="b3fbc4bb-141f-4113-8f25-f424024f430d" x="295.5242" y="273.6921" width="6.85122" height="21.9799"/><rect class="e3e687fd-0c77-40e0-ac5d-3c374600e278" x="249.23447" y="281.65842" width="27.37278" height="21.12074"/><rect class="b3fbc4bb-141f-4113-8f25-f424024f430d" x="260.43345" y="281.65842" width="4.97482" height="15.96008"/><path class="e3e687fd-0c77-40e0-ac5d-3c374600e278" d="M229.10322,363.00826a22.43508,22.43508,0,1,0,22.435,22.435A22.435,22.435,0,0,0,229.10322,363.00826Zm0,40.83073a18.39566,18.39566,0,1,1,18.39562-18.39569A18.39563,18.39563,0,0,1,229.10322,403.839Z"/><rect class="e3e687fd-0c77-40e0-ac5d-3c374600e278" x="227.09134" y="386.09622" width="4.02376" height="19.84391"/><rect class="e3e687fd-0c77-40e0-ac5d-3c374600e278" x="236.64547" y="370.24559" width="4.02376" height="19.84391" transform="translate(448.56343 -16.59956) rotate(60)"/><rect class="e3e687fd-0c77-40e0-ac5d-3c374600e278" x="216.3897" y="370.24559" width="4.02376" height="19.84391" transform="translate(656.83712 381.11) rotate(120)"/><circle class="e844665b-1709-4c66-b655-e47d9d2abc80" cx="229.10322" cy="385.44333" r="7.82618"/><circle class="e34f453f-6c64-41a8-bbd1-c5fe225cabfc" cx="229.10322" cy="385.44333" r="5.90503"/><rect class="e3e687fd-0c77-40e0-ac5d-3c374600e278" x="150.55187" y="377.3405" width="43.43138" height="1.53212"/><circle class="e3e687fd-0c77-40e0-ac5d-3c374600e278" cx="184.77011" cy="378.10656" r="2.12579"/><circle class="b5111b3e-a90f-4566-83a6-64913e99d186" cx="184.77011" cy="378.10656" r="1.28213"/><circle class="e34f453f-6c64-41a8-bbd1-c5fe225cabfc" cx="184.77011" cy="378.10656" r="0.69463"/><rect class="e3e687fd-0c77-40e0-ac5d-3c374600e278" x="150.55187" y="383.20436" width="43.43138" height="1.53212"/><circle class="e3e687fd-0c77-40e0-ac5d-3c374600e278" cx="184.77011" cy="383.97042" r="2.12579"/><circle class="b5111b3e-a90f-4566-83a6-64913e99d186" cx="184.77011" cy="383.97042" r="1.28213"/><circle class="e34f453f-6c64-41a8-bbd1-c5fe225cabfc" cx="184.77011" cy="383.97042" r="0.69463"/><rect class="e3e687fd-0c77-40e0-ac5d-3c374600e278" x="150.55187" y="389.06823" width="43.43138" height="1.53212"/><circle class="e3e687fd-0c77-40e0-ac5d-3c374600e278" cx="178.54353" cy="389.83429" r="2.12579"/><circle class="b5111b3e-a90f-4566-83a6-64913e99d186" cx="178.54353" cy="389.83429" r="1.28213"/><circle class="e34f453f-6c64-41a8-bbd1-c5fe225cabfc" cx="178.54353" cy="389.83429" r="0.69463"/><rect class="e3e687fd-0c77-40e0-ac5d-3c374600e278" x="140.84838" y="264.31484" width="83.88364" height="38.46432"/><polygon class="b3fbc4bb-141f-4113-8f25-f424024f430d" points="150.807 274.696 216.944 274.696 221.349 279.101 145.977 279.101 150.807 274.696"/><polygon class="b3fbc4bb-141f-4113-8f25-f424024f430d" points="150.807 282.74 216.944 282.74 221.349 287.144 145.977 287.144 150.807 282.74"/><polygon class="b3fbc4bb-141f-4113-8f25-f424024f430d" points="150.807 291.085 216.944 291.085 221.349 295.49 145.977 295.49 150.807 291.085"/><rect class="e3e687fd-0c77-40e0-ac5d-3c374600e278" x="107.97002" y="178.44537" width="149.26523" height="81.71344" rx="40.85668"/><rect class="b3fbc4bb-141f-4113-8f25-f424024f430d" x="145.97707" y="260.00596" width="73.54182" height="4.30889"/><rect class="b3fbc4bb-141f-4113-8f25-f424024f430d" x="160.99613" y="248.88501" width="43.5037" height="11.41286"/><circle class="e3e687fd-0c77-40e0-ac5d-3c374600e278" cx="172.15995" cy="254.59145" r="2.45816"/><circle class="e3e687fd-0c77-40e0-ac5d-3c374600e278" cx="179.08599" cy="254.59145" r="2.45816"/><circle class="e3e687fd-0c77-40e0-ac5d-3c374600e278" cx="186.11928" cy="254.59145" r="2.45816"/><circle class="e3e687fd-0c77-40e0-ac5d-3c374600e278" cx="193.04532" cy="254.59145" r="2.45816"/><rect class="b3fbc4bb-141f-4113-8f25-f424024f430d" x="148.11994" y="215.33263" width="71.08238" height="30.02225" rx="3.60173"/><circle class="e3e687fd-0c77-40e0-ac5d-3c374600e278" cx="170.49578" cy="230.65964" r="11.04125"/><circle class="b5111b3e-a90f-4566-83a6-64913e99d186" cx="170.49578" cy="230.65964" r="9.89886"/><path class="e3e687fd-0c77-40e0-ac5d-3c374600e278" d="M164.65512,232.69138a6.31228,6.31228,0,1,1,11.89285,0h1.83055a8.06328,8.06328,0,1,0-15.554,0Z"/><path class="e34f453f-6c64-41a8-bbd1-c5fe225cabfc" d="M170.60156,222.52693c-.06983,0-.13745.00869-.20686.01044v1.751c.0693-.00226.137-.01045.20686-.01045a6.2982,6.2982,0,0,1,5.94641,8.41348h1.83055a8.03829,8.03829,0,0,0-7.777-10.16445Z"/><circle class="b3fbc4bb-141f-4113-8f25-f424024f430d" cx="170.49578" cy="231.64688" r="1.30313"/><polyline class="b3fbc4bb-141f-4113-8f25-f424024f430d" points="171.799 231.647 170.496 225.399 169.193 231.647"/><circle class="e3e687fd-0c77-40e0-ac5d-3c374600e278" cx="196.82647" cy="230.34376" r="11.04125"/><circle class="b5111b3e-a90f-4566-83a6-64913e99d186" cx="196.82647" cy="230.34376" r="9.89886"/><path class="e3e687fd-0c77-40e0-ac5d-3c374600e278" d="M190.98581,232.3755a6.31228,6.31228,0,1,1,11.89285,0h1.83055a8.06328,8.06328,0,1,0-15.554,0Z"/><path class="e34f453f-6c64-41a8-bbd1-c5fe225cabfc" d="M196.93225,222.211c-.06984,0-.13746.0087-.20687.01045v1.751c.06931-.00226.137-.01045.20687-.01045a6.2982,6.2982,0,0,1,5.94641,8.41348h1.83055a8.0383,8.0383,0,0,0-7.777-10.16446Z"/><circle class="b3fbc4bb-141f-4113-8f25-f424024f430d" cx="196.3812" cy="230.60679" r="1.30313"/><polyline class="b3fbc4bb-141f-4113-8f25-f424024f430d" points="197.303 231.528 200.799 226.189 195.46 229.685"/><rect class="b3fbc4bb-141f-4113-8f25-f424024f430d" x="182.06298" y="177.70733" width="32.04687" height="15.0822"/><rect class="b3fbc4bb-141f-4113-8f25-f424024f430d" x="154.9955" y="170.42975" width="27.06748" height="22.35977"/><polyline class="b3fbc4bb-141f-4113-8f25-f424024f430d" points="154.996 170.43 159.507 165.919 168.529 165.919 168.529 170.77"/><polyline class="b3fbc4bb-141f-4113-8f25-f424024f430d" points="182.063 170.43 177.552 165.919 168.529 165.919 168.529 170.77"/><circle class="e3e687fd-0c77-40e0-ac5d-3c374600e278" cx="168.5117" cy="172.08492" r="3.95798"/><rect class="e3e687fd-0c77-40e0-ac5d-3c374600e278" x="156.46443" y="188.48183" width="56.36087" height="3.10933"/><circle class="e3e687fd-0c77-40e0-ac5d-3c374600e278" cx="214.10985" cy="220.4449" r="2.26"/><circle class="b5111b3e-a90f-4566-83a6-64913e99d186" cx="214.10985" cy="220.4449" r="1.7165"/><rect class="e34f453f-6c64-41a8-bbd1-c5fe225cabfc" x="213.76231" y="219.07639" width="0.69508" height="2.73702"/><rect class="e34f453f-6c64-41a8-bbd1-c5fe225cabfc" x="213.76231" y="219.07639" width="0.69508" height="2.73702" transform="translate(434.55475 6.33505) rotate(90)"/><circle class="e3e687fd-0c77-40e0-ac5d-3c374600e278" cx="214.10985" cy="240.5585" r="2.26"/><circle class="b5111b3e-a90f-4566-83a6-64913e99d186" cx="214.10985" cy="240.5585" r="1.7165"/><rect class="e34f453f-6c64-41a8-bbd1-c5fe225cabfc" x="213.76231" y="239.18999" width="0.69508" height="2.73702"/><rect class="e34f453f-6c64-41a8-bbd1-c5fe225cabfc" x="213.76231" y="239.18999" width="0.69508" height="2.73702" transform="translate(454.66835 26.44865) rotate(90)"/><circle class="e3e687fd-0c77-40e0-ac5d-3c374600e278" cx="153.41685" cy="220.4449" r="2.26"/><circle class="b5111b3e-a90f-4566-83a6-64913e99d186" cx="153.41685" cy="220.4449" r="1.7165"/><rect class="e34f453f-6c64-41a8-bbd1-c5fe225cabfc" x="153.0693" y="219.07639" width="0.69508" height="2.73702"/><rect class="e34f453f-6c64-41a8-bbd1-c5fe225cabfc" x="153.0693" y="219.07639" width="0.69508" height="2.73702" transform="translate(373.86174 67.02805) rotate(90)"/><circle class="e3e687fd-0c77-40e0-ac5d-3c374600e278" cx="153.41685" cy="240.5585" r="2.26"/><circle class="b5111b3e-a90f-4566-83a6-64913e99d186" cx="153.41685" cy="240.5585" r="1.7165"/><rect class="e34f453f-6c64-41a8-bbd1-c5fe225cabfc" x="153.0693" y="239.18999" width="0.69508" height="2.73702"/><rect class="e34f453f-6c64-41a8-bbd1-c5fe225cabfc" x="153.0693" y="239.18999" width="0.69508" height="2.73702" transform="translate(393.97534 87.14165) rotate(90)"/><path class="b3fbc4bb-141f-4113-8f25-f424024f430d" d="M231.12306,179.20113v80.20275c14.588-1.43989,26.11219-18.83711,26.11219-40.10133v-.00009C257.23525,198.03832,245.711,180.641,231.12306,179.20113Z"/><path class="b3fbc4bb-141f-4113-8f25-f424024f430d" d="M134.08221,179.20113v80.20275C119.49425,257.964,107.97,240.56677,107.97,219.30255v-.00009C107.97,198.03832,119.49425,180.641,134.08221,179.20113Z"/><path class="e34f453f-6c64-41a8-bbd1-c5fe225cabfc" d="M763.76715,225.43586c-.20514-.26522-.40558-.515-.59608-.77209-2.018-2.72376-3.97926-5.48843-5.80307-8.34573q-1.90707-2.98771-3.68985-6.05414c-.733-1.25749-1.3902-2.56247-2.02317-3.87423a30.38079,30.38079,0,0,1-2.01727-5.24892,11.20126,11.20126,0,0,1-.33851-3.927,14.77456,14.77456,0,0,1,.9793-4.152A14.22132,14.22132,0,0,1,752.591,189.158a14.38732,14.38732,0,0,1,7.80558-4.82049,15.12429,15.12429,0,0,1,3.73876-.36732,14.05292,14.05292,0,0,1,2.989.35886,14.28653,14.28653,0,0,1,3.68851,1.40541,14.58,14.58,0,0,1,3.84379,3.05611,14.864,14.864,0,0,1,1.83425,2.59257,14.04055,14.04055,0,0,1,1.59406,4.52636,11.60029,11.60029,0,0,1-.08776,4.91487,25.891,25.891,0,0,1-1.6579,4.60646c-.4227.90428-.8297,1.81821-1.30195,2.69651-.766,1.42451-1.53444,2.85126-2.38348,4.22667q-2.10292,3.40662-4.31833,6.74332c-1.16125,1.74237-2.40894,3.42721-3.62225,5.13476-.26021.3662-.53691.72072-.8083,1.07889A1.13018,1.13018,0,0,1,763.76715,225.43586Zm.02459-33.20294a6.24148,6.24148,0,1,0,6.2242,6.28384A6.11184,6.11184,0,0,0,763.79174,192.23292Z"/><line class="a74c9b07-2b93-4009-b031-133a1d3ea674" x1="767.657" y1="226.27232" x2="772.92179" y2="221.00753"/><line class="a74c9b07-2b93-4009-b031-133a1d3ea674" x1="767.7142" y1="228.46558" x2="772.08581" y2="227.66426"/><line class="a74c9b07-2b93-4009-b031-133a1d3ea674" x1="760.46247" y1="226.39306" x2="755.19768" y2="221.12826"/><line class="a74c9b07-2b93-4009-b031-133a1d3ea674" x1="760.40527" y1="228.58631" x2="756.03366" y2="227.785"/><path class="a7fb3de3-c1f7-4622-9ab3-86c47165718b" d="M218.38919,163.41389c-.20515-.26523-.40559-.515-.59609-.7721-2.018-2.72375-3.97926-5.48842-5.80307-8.34572q-1.90705-2.98771-3.68985-6.05414c-.73305-1.25749-1.3902-2.56247-2.02317-3.87424a30.38048,30.38048,0,0,1-2.01727-5.24892,11.2012,11.2012,0,0,1-.33851-3.927,14.7744,14.7744,0,0,1,.9793-4.152,14.22138,14.22138,0,0,1,2.31254-3.90368,14.38741,14.38741,0,0,1,7.80558-4.82049,15.12385,15.12385,0,0,1,3.73876-.36731,14.05292,14.05292,0,0,1,2.989.35886,14.28674,14.28674,0,0,1,3.68852,1.40541,14.57993,14.57993,0,0,1,3.84378,3.05611,14.86367,14.86367,0,0,1,1.83425,2.59257,14.04067,14.04067,0,0,1,1.59407,4.52635,11.60029,11.60029,0,0,1-.08777,4.91487,25.89017,25.89017,0,0,1-1.6579,4.60646c-.4227.90429-.8297,1.81821-1.302,2.69651-.76594,1.42452-1.53443,2.85126-2.38348,4.22667q-2.10291,3.40663-4.31832,6.74332c-1.16126,1.74238-2.409,3.42722-3.62226,5.13477-.2602.3662-.5369.72072-.80829,1.07888A1.13088,1.13088,0,0,1,218.38919,163.41389Zm.02458-33.203a6.24148,6.24148,0,1,0,6.2242,6.28384A6.11186,6.11186,0,0,0,218.41377,130.21094Z"/><line class="eaa86769-8e90-4950-854c-8416d7815433" x1="222.27903" y1="164.25035" x2="227.54382" y2="158.98556"/><line class="eaa86769-8e90-4950-854c-8416d7815433" x1="222.33623" y1="166.44361" x2="226.70784" y2="165.64229"/><line class="eaa86769-8e90-4950-854c-8416d7815433" x1="215.0845" y1="164.37108" x2="209.81971" y2="159.10629"/><line class="eaa86769-8e90-4950-854c-8416d7815433" x1="215.0273" y1="166.56434" x2="210.65569" y2="165.76302"/></svg>