<svg id="bce51fba-d9c6-42e0-b168-7ba1a80afd53" data-name="Layer 1" xmlns="http://www.w3.org/2000/svg" viewBox="0 0 89.12306 89.23486"><defs><style>.e6fbf310-cb80-421f-9307-ed6f522b4bf8{fill:#595979;}.ec86496a-eac5-4be5-828e-02fd8a7f2518{fill:#1f72ec;}</style></defs><path class="e6fbf310-cb80-421f-9307-ed6f522b4bf8" d="M49.97754,94.61719a1.99348,1.99348,0,0,1-1.41406-.58594L6.02441,51.49219a2.00022,2.00022,0,0,1,1.41407-3.41455H22.48291V7.38232a2.0001,2.0001,0,0,1,2-2H74.47754a2.0001,2.0001,0,0,1,2,2V48.03418h16.084a1.99994,1.99994,0,0,1,1.41407,3.41406l-42.584,42.583A1.99348,1.99348,0,0,1,49.97754,94.61719ZM12.26709,52.07813,49.97754,89.78906,87.7334,52.03418H74.47754a2.0001,2.0001,0,0,1-2-2V9.38232H26.48291V50.07764a2.00021,2.00021,0,0,1-2,2.00049Z" transform="translate(-5.43847 -5.38232)"/><path class="ec86496a-eac5-4be5-828e-02fd8a7f2518" d="M45.35712,60.51641a13.98545,13.98545,0,0,1-3.69231-1.595,15.87328,15.87328,0,0,1-3.22513-2.65579l3.12253-3.78322a11.25556,11.25556,0,0,0,3.63471,2.97444,9.624,9.624,0,0,0,4.34263.99152,7.69961,7.69961,0,0,0,4.83186-1.26512,4.60333,4.60333,0,0,0,1.595-3.84037v-.023a4.01,4.01,0,0,0-.775-2.59821A4.72251,4.72251,0,0,0,53.186,47.28554a18.35209,18.35209,0,0,0-3.145-.8434.41884.41884,0,0,0-.12556-.02252.39121.39121,0,0,1-.12556-.023c-.0762-.01472-.15586-.03031-.239-.04546-.084-.01516-.16366-.03031-.23987-.04546a30.52113,30.52113,0,0,1-4.94529-1.27638,7.0088,7.0088,0,0,1-3.23639-2.56443,8.8889,8.8889,0,0,1-1.34478-5.2765v-.02256a11.37508,11.37508,0,0,1,1.208-5.52719,7.62482,7.62482,0,0,1,3.6122-3.30524,14.44574,14.44574,0,0,1,6.02857-1.10535,15.21155,15.21155,0,0,1,3.15716.33078,15.77489,15.77489,0,0,1,3.08788,1.00275,20.02245,20.02245,0,0,1,3.03161,1.67513L57.106,34.08882a14.33931,14.33931,0,0,0-3.29311-1.69808,9.639,9.639,0,0,0-3.17967-.55853A6.96931,6.96931,0,0,0,46.12,33.07439a4.55431,4.55431,0,0,0-1.50411,3.7265v.02295a3.87559,3.87559,0,0,0,.86592,2.6783,5.11429,5.11429,0,0,0,2.17693,1.42445,33.036,33.036,0,0,0,3.59013.95728c.06061.01515.12123.03074.18184.04545.06062.01516.129.03075.20523.04547.0762.01558.14806.03074.21648.04589s.14027.03031.21648.04546a21.51666,21.51666,0,0,1,4.50194,1.44739,7.24032,7.24032,0,0,1,3.01949,2.74629,9.50232,9.50232,0,0,1,1.208,5.15138v.04546a10.405,10.405,0,0,1-1.253,5.34492,7.67941,7.67941,0,0,1-3.74946,3.191,16.07289,16.07289,0,0,1-6.2563,1.05986A15.89575,15.89575,0,0,1,45.35712,60.51641ZM47.64749,23.5358h4.64914v5.19685H47.64749Zm0,35.7155h4.64914v5.49341H47.64749Z" transform="translate(-5.43847 -5.38232)"/></svg>