<svg id="eb617180-044d-45c3-b09f-adcdeacc3ea8" data-name="Layer 1" xmlns="http://www.w3.org/2000/svg" viewBox="0 0 94.09496 93.20073"><defs><style>.fe1ee70b-ea66-4700-8963-cd84fd61effc{fill:#595979;}.f94c6fca-753e-480a-a8a8-5f18a528f323{fill:#1f72ec;}</style></defs><path class="fe1ee70b-ea66-4700-8963-cd84fd61effc" d="M71.85243,70.05136a1.32268,1.32268,0,0,1-1.32261-1.32262V35.582c-.01357-.52441-.28351-5.3686-5.36861-5.3686H32.28829a1.32261,1.32261,0,1,1,0-2.64522H65.16121c6.23205,0,7.96669,5.22748,8.01383,7.99154v33.169A1.32268,1.32268,0,0,1,71.85243,70.05136Z" transform="translate(-3.20031 -3.45016)"/><path class="fe1ee70b-ea66-4700-8963-cd84fd61effc" d="M38.50485,30.21341a1.32267,1.32267,0,0,1-1.32261-1.32261V21.032l-11.857-11.857a1.32248,1.32248,0,0,1,1.87027-1.87026L39.44,19.54886a1.32282,1.32282,0,0,1,.38749.93513V28.8908A1.32268,1.32268,0,0,1,38.50485,30.21341Z" transform="translate(-3.20031 -3.45016)"/><path class="fe1ee70b-ea66-4700-8963-cd84fd61effc" d="M44.64842,29.87566A1.32268,1.32268,0,0,1,43.32581,28.553V20.66a1.32262,1.32262,0,1,1,2.64523,0V28.553A1.32269,1.32269,0,0,1,44.64842,29.87566Z" transform="translate(-3.20031 -3.45016)"/><path class="fe1ee70b-ea66-4700-8963-cd84fd61effc" d="M55.27906,29.76264A1.32269,1.32269,0,0,1,53.95644,28.44V20.54728a1.32262,1.32262,0,0,1,2.64523,0V28.44A1.32268,1.32268,0,0,1,55.27906,29.76264Z" transform="translate(-3.20031 -3.45016)"/><path class="fe1ee70b-ea66-4700-8963-cd84fd61effc" d="M61.46978,29.76264A1.32269,1.32269,0,0,1,60.14716,28.44V11.51243a1.32262,1.32262,0,0,1,2.64523,0V28.44A1.32268,1.32268,0,0,1,61.46978,29.76264Z" transform="translate(-3.20031 -3.45016)"/><path class="fe1ee70b-ea66-4700-8963-cd84fd61effc" d="M50.07192,29.87566A1.32269,1.32269,0,0,1,48.7493,28.553V4.77278a1.32262,1.32262,0,1,1,2.64523,0V28.553A1.32269,1.32269,0,0,1,50.07192,29.87566Z" transform="translate(-3.20031 -3.45016)"/><circle class="fe1ee70b-ea66-4700-8963-cd84fd61effc" cx="22.91545" cy="4.9992" r="3.80506"/><circle class="fe1ee70b-ea66-4700-8963-cd84fd61effc" cx="58.26972" cy="8.06225" r="3.80506"/><path class="fe1ee70b-ea66-4700-8963-cd84fd61effc" d="M80.25891,39.637H71.85243a1.32262,1.32262,0,0,1,0-2.64523h7.85884L91.5683,25.1351a1.32248,1.32248,0,0,1,1.87026,1.87026L81.194,39.24956A1.32281,1.32281,0,0,1,80.25891,39.637Z" transform="translate(-3.20031 -3.45016)"/><path class="fe1ee70b-ea66-4700-8963-cd84fd61effc" d="M80.08325,45.78093H72.19019a1.32262,1.32262,0,1,1,0-2.64523h7.89306a1.32262,1.32262,0,1,1,0,2.64523Z" transform="translate(-3.20031 -3.45016)"/><path class="fe1ee70b-ea66-4700-8963-cd84fd61effc" d="M80.1956,56.41125H72.3032a1.32262,1.32262,0,0,1,0-2.64523h7.8924a1.32262,1.32262,0,0,1,0,2.64523Z" transform="translate(-3.20031 -3.45016)"/><path class="fe1ee70b-ea66-4700-8963-cd84fd61effc" d="M89.23047,62.60261H72.3032a1.32262,1.32262,0,0,1,0-2.64523H89.23047a1.32262,1.32262,0,1,1,0,2.64523Z" transform="translate(-3.20031 -3.45016)"/><path class="fe1ee70b-ea66-4700-8963-cd84fd61effc" d="M95.97012,51.2041H72.19018a1.32245,1.32245,0,1,1-.0054-2.6449H95.97012a1.32245,1.32245,0,0,1,.0054,2.6449Z" transform="translate(-3.20031 -3.45016)"/><circle class="fe1ee70b-ea66-4700-8963-cd84fd61effc" cx="89.09339" cy="22.47531" r="3.80506"/><circle class="fe1ee70b-ea66-4700-8963-cd84fd61effc" cx="86.03034" cy="57.82958" r="3.80506"/><path class="fe1ee70b-ea66-4700-8963-cd84fd61effc" d="M68.20168,72.5332H35.32876c-6.23205,0-7.967-5.22717-8.01351-7.99124l-.00032-33.16934a1.32262,1.32262,0,0,1,2.64523,0V64.51937c.01388.52441.28351,5.3686,5.3686,5.3686H68.20168a1.32262,1.32262,0,0,1,0,2.64523Z" transform="translate(-3.20031 -3.45016)"/><path class="fe1ee70b-ea66-4700-8963-cd84fd61effc" d="M74.22964,93.18419a1.31829,1.31829,0,0,1-.93513-.38748L61.05,80.55219a1.32281,1.32281,0,0,1-.38748-.93513V71.21058a1.32262,1.32262,0,0,1,2.64523,0v7.85884l11.857,11.857a1.32261,1.32261,0,0,1-.93514,2.25774Z" transform="translate(-3.20031 -3.45016)"/><path class="fe1ee70b-ea66-4700-8963-cd84fd61effc" d="M55.84156,80.764A1.32268,1.32268,0,0,1,54.519,79.4414V71.54834a1.32262,1.32262,0,0,1,2.64523,0V79.4414A1.32269,1.32269,0,0,1,55.84156,80.764Z" transform="translate(-3.20031 -3.45016)"/><path class="fe1ee70b-ea66-4700-8963-cd84fd61effc" d="M45.21093,80.877a1.32268,1.32268,0,0,1-1.32262-1.32261V71.66136a1.32262,1.32262,0,1,1,2.64523,0v7.89306A1.32268,1.32268,0,0,1,45.21093,80.877Z" transform="translate(-3.20031 -3.45016)"/><path class="fe1ee70b-ea66-4700-8963-cd84fd61effc" d="M39.01988,89.91189a1.32268,1.32268,0,0,1-1.32261-1.32262V71.66136a1.32262,1.32262,0,1,1,2.64523,0V88.58927A1.32269,1.32269,0,0,1,39.01988,89.91189Z" transform="translate(-3.20031 -3.45016)"/><path class="fe1ee70b-ea66-4700-8963-cd84fd61effc" d="M50.41807,96.65089a1.32269,1.32269,0,0,1-1.32262-1.32261V71.54833a1.32262,1.32262,0,0,1,2.64523,0v23.78A1.32268,1.32268,0,0,1,50.41807,96.65089Z" transform="translate(-3.20031 -3.45016)"/><circle class="fe1ee70b-ea66-4700-8963-cd84fd61effc" cx="71.17391" cy="88.20185" r="3.80506"/><circle class="fe1ee70b-ea66-4700-8963-cd84fd61effc" cx="35.81966" cy="85.13879" r="3.80506"/><path class="fe1ee70b-ea66-4700-8963-cd84fd61effc" d="M7.98656,75.35409a1.32261,1.32261,0,0,1-.93513-2.25775L19.296,60.85182a1.32273,1.32273,0,0,1,.93513-.38748h8.40647a1.32261,1.32261,0,1,1,0,2.64522H20.779L8.92169,74.9666A1.31777,1.31777,0,0,1,7.98656,75.35409Z" transform="translate(-3.20031 -3.45016)"/><path class="fe1ee70b-ea66-4700-8963-cd84fd61effc" d="M28.2998,56.966H20.40706a1.32262,1.32262,0,1,1,0-2.64523H28.2998a1.32262,1.32262,0,0,1,0,2.64523Z" transform="translate(-3.20031 -3.45016)"/><path class="fe1ee70b-ea66-4700-8963-cd84fd61effc" d="M28.18709,46.33536H20.294a1.32262,1.32262,0,1,1,0-2.64523h7.89305a1.32262,1.32262,0,1,1,0,2.64523Z" transform="translate(-3.20031 -3.45016)"/><path class="fe1ee70b-ea66-4700-8963-cd84fd61effc" d="M28.18709,40.14431H11.25919a1.32262,1.32262,0,1,1,0-2.64523h16.9279a1.32262,1.32262,0,1,1,0,2.64523Z" transform="translate(-3.20031 -3.45016)"/><path class="fe1ee70b-ea66-4700-8963-cd84fd61effc" d="M28.2998,51.54251H4.51986a1.32278,1.32278,0,0,1,0-2.64556h23.78a1.32278,1.32278,0,0,1,0,2.64556Z" transform="translate(-3.20031 -3.45016)"/><circle class="fe1ee70b-ea66-4700-8963-cd84fd61effc" cx="4.99598" cy="70.72573" r="3.80505"/><circle class="fe1ee70b-ea66-4700-8963-cd84fd61effc" cx="8.05904" cy="35.37147" r="3.80506"/><path class="f94c6fca-753e-480a-a8a8-5f18a528f323" d="M63.95307,49.26017A6.56147,6.56147,0,0,1,65.26235,52.579a6.39242,6.39242,0,0,1-4.21843,6.64746.64148.64148,0,0,0-.51491.69621,5.55408,5.55408,0,0,1-9.61526,3.53918,4.59128,4.59128,0,0,1-.33174-.40869,5.65233,5.65233,0,0,1-5.65962,2.0457,5.46416,5.46416,0,0,1-4.33165-5.16556.641.641,0,0,0-.51495-.70116,6.38732,6.38732,0,0,1-3.17324-9.59266.56145.56145,0,0,0-.01795-.777,6.39473,6.39473,0,0,1,3.3189-9.84859.71853.71853,0,0,0,.55411-.58983,5.56458,5.56458,0,0,1,9.4469-2.34159c.10886.11347.21568.2289.35345.37528.26981-.28.50763-.56635.78452-.808a5.55588,5.55588,0,0,1,8.99737,2.76016.72387.72387,0,0,0,.54676.6023A6.40047,6.40047,0,0,1,64.17067,48.945C64.1,49.04313,64.03313,49.144,63.95307,49.26017Zm-5.733,10.33659c-.27127-.05158-.51657-.08413-.75428-.14591a5.21379,5.21379,0,0,1-2.57635-1.28047,1.02684,1.02684,0,0,1-.25284-1.30253,1.09487,1.09487,0,0,1,1.20974-.57182,1.83947,1.83947,0,0,1,.65388.32427,4.03315,4.03315,0,0,0,4.71511-.02493,3.98727,3.98727,0,0,0,.96242-5.86345,3.88451,3.88451,0,0,1-.55608.26065,10.3565,10.3565,0,0,1-1.82647.48068,1.0799,1.0799,0,0,1-1.26848-.99083c-.04629-.66247.34587-1.09765,1.10848-1.22585a3.9864,3.9864,0,0,0,3.01242-2.10626A4.09745,4.09745,0,0,0,60.37044,41.243a5.56451,5.56451,0,0,1-1.5569,2.59317,4.92361,4.92361,0,0,1-1.16147.81037A1.068,1.068,0,0,1,56.47958,42.928a9.96375,9.96375,0,0,1,.73086-.69229,3.14433,3.14433,0,0,0,.95448-3.28305,3.17731,3.17731,0,0,0-3.71721-2.31927,3.08728,3.08728,0,0,0-2.77441,3.21241q-.01966,9.91837.001,19.83682a3.27333,3.27333,0,1,0,6.54663-.02141l-.00085-.06451ZM38.85482,50.763a3.7837,3.7837,0,0,0-.526,3.88637A4.22116,4.22116,0,0,0,41.809,57.33591a3.98415,3.98415,0,0,0,2.98237-.84483,1.1241,1.1241,0,0,1,1.5351.17373,1.011,1.011,0,0,1-.059,1.42858q-.024.02208-.04936.04258a5.02231,5.02231,0,0,1-1.35778.8913A19.89857,19.89857,0,0,1,42.838,59.675a3.07043,3.07043,0,0,0,.62223,2.01229,3.411,3.411,0,0,0,3.77882,1.07529,3.02125,3.02125,0,0,0,2.17719-2.99464c.01777-2.51089.00661-5.022.00648-7.533-.00024-4.17322.01039-8.34651-.00836-12.51965a3.01966,3.01966,0,0,0-2.42065-3.02061,3.36838,3.36838,0,0,0-3.76632,1.49239,3.29444,3.29444,0,0,0,.56691,3.95349c.27724.27232.58249.51827.842.806a.93574.93574,0,0,1,.0732,1.32132l-.02.02163a1.07187,1.07187,0,0,1-1.59565.19794,5.44238,5.44238,0,0,1-2.17883-2.72732c-.06765-.17628-.13817-.35145-.21041-.53484-.12022.04046-.20468.06293-.28439.09661a4.04116,4.04116,0,0,0-2.4481,4.28262,4.0892,4.0892,0,0,0,3.40531,3.63882c.12161.02208.24772.02476.36645.05632a1.11209,1.11209,0,0,1,.84574,1.09142.97859.97859,0,0,1-.78025,1.00992,2.473,2.473,0,0,1-1.09211.01471c-.60994-.15469-1.19393-.41178-1.86253-.6526Z" transform="translate(-3.20031 -3.45016)"/></svg>