<svg id="b66321f5-6af4-417d-b394-d0a45b58f98c" data-name="Layer 1" xmlns="http://www.w3.org/2000/svg" viewBox="0 0 122.5427 102.9923"><defs><style>.be3673e3-2c5c-4706-86c9-b6c7938c15d9{fill:#7587a0;}.f8c124b8-c05f-48ba-bf5a-bedec556167f{fill:#a7b3c6;}.bc114f6b-1e45-40f3-bc98-c4084857d1d9{fill:#069;}.fb9e7660-329f-41af-b110-d60c0b399451{fill:#3396ff;}.f4befbad-f47a-485a-b5b2-458aefd0cf2f{fill:#595979;}.a65a8c93-a646-43b4-afe8-60bb8b5165c0{fill:#1f72ec;}</style></defs><polyline class="be3673e3-2c5c-4706-86c9-b6c7938c15d9" points="34.338 51.872 20.857 51.872 20.857 101.197 34.338 101.197"/><polyline class="f8c124b8-c05f-48ba-bf5a-bedec556167f" points="20.857 55.479 15.323 55.479 15.323 97.59 20.857 97.59"/><polyline class="f8c124b8-c05f-48ba-bf5a-bedec556167f" points="15.399 59.072 11.517 59.072 11.517 93.639 15.399 93.639"/><path class="f8c124b8-c05f-48ba-bf5a-bedec556167f" d="M24.74113,82.8416s-9.56427,16.85886,0,34.56745" transform="translate(-13.51704 -23.77006)"/><rect class="f8c124b8-c05f-48ba-bf5a-bedec556167f" y="74.96797" width="10.68697" height="2.70832"/><rect class="be3673e3-2c5c-4706-86c9-b6c7938c15d9" x="11.22409" y="59.07154" width="0.65236" height="34.56745"/><rect class="be3673e3-2c5c-4706-86c9-b6c7938c15d9" x="14.67084" y="59.07154" width="0.65236" height="34.56745"/><rect class="bc114f6b-1e45-40f3-bc98-c4084857d1d9" x="34.33828" y="53.72482" width="60.89614" height="45.61998"/><rect class="fb9e7660-329f-41af-b110-d60c0b399451" x="34.33828" y="95.83549" width="60.89614" height="3.50925"/><rect class="fb9e7660-329f-41af-b110-d60c0b399451" x="34.33828" y="88.75721" width="60.89614" height="3.50925"/><rect class="fb9e7660-329f-41af-b110-d60c0b399451" x="34.33828" y="81.67892" width="60.89614" height="3.50925"/><rect class="fb9e7660-329f-41af-b110-d60c0b399451" x="34.33828" y="74.60064" width="60.89614" height="3.50925"/><rect class="fb9e7660-329f-41af-b110-d60c0b399451" x="34.33828" y="67.52235" width="60.89614" height="3.50925"/><rect class="fb9e7660-329f-41af-b110-d60c0b399451" x="34.33828" y="60.44407" width="60.89614" height="3.50925"/><rect class="fb9e7660-329f-41af-b110-d60c0b399451" x="34.33828" y="53.72476" width="60.89614" height="3.50925"/><path class="be3673e3-2c5c-4706-86c9-b6c7938c15d9" d="M108.75147,124.9501h18.87861s8.42967-1.19546,8.42967-9.10272V83.983s-.06732-8.32337-8.32337-8.32337H108.75147" transform="translate(-13.51704 -23.77006)"/><polyline class="f8c124b8-c05f-48ba-bf5a-bedec556167f" points="34.338 51.89 28.804 51.89 28.804 101.18 34.338 101.18"/><polyline class="f8c124b8-c05f-48ba-bf5a-bedec556167f" points="100.768 51.872 95.234 51.872 95.234 101.18 100.768 101.18"/><rect class="f8c124b8-c05f-48ba-bf5a-bedec556167f" x="61.43822" y="49.22852" width="27.55921" height="12.97017"/><rect class="f8c124b8-c05f-48ba-bf5a-bedec556167f" x="38.16112" y="42.97005" width="23.27711" height="19.22864"/><polyline class="f8c124b8-c05f-48ba-bf5a-bedec556167f" points="38.161 42.97 42.041 39.091 49.8 39.091 49.8 43.263"/><polyline class="f8c124b8-c05f-48ba-bf5a-bedec556167f" points="61.438 42.97 57.559 39.091 49.8 39.091 49.8 43.263"/><circle class="be3673e3-2c5c-4706-86c9-b6c7938c15d9" cx="49.79967" cy="45.05621" r="3.40373"/><rect class="be3673e3-2c5c-4706-86c9-b6c7938c15d9" x="38.16112" y="60.35149" width="50.83632" height="2.67392"/><rect class="f8c124b8-c05f-48ba-bf5a-bedec556167f" x="48.4244" y="99.2868" width="32.72391" height="3.7055"/><rect class="f8c124b8-c05f-48ba-bf5a-bedec556167f" x="55.10743" y="89.72317" width="19.35785" height="9.81467"/><circle class="be3673e3-2c5c-4706-86c9-b6c7938c15d9" cx="61.80828" cy="94.63051" r="2.11393"/><circle class="be3673e3-2c5c-4706-86c9-b6c7938c15d9" cx="67.76443" cy="94.63051" r="2.11393"/><rect class="f4befbad-f47a-485a-b5b2-458aefd0cf2f" x="70.08949" y="8.70774" width="12.30693" height="29.02578"/><rect class="f4befbad-f47a-485a-b5b2-458aefd0cf2f" x="71.01831" y="46.67346" width="10.44928" height="1.27713"/><rect class="f4befbad-f47a-485a-b5b2-458aefd0cf2f" x="71.36662" y="48.1828" width="9.75266" height="1.27713"/><rect class="f4befbad-f47a-485a-b5b2-458aefd0cf2f" x="95.62321" y="67.04419" width="7.14034" height="2.92011" transform="translate(184.86971 113.23844) rotate(-180)"/><path class="f4befbad-f47a-485a-b5b2-458aefd0cf2f" d="M105.72418,70.09521s-2.96063.29725-2.96063-2.14441V45.24914l.63857-11.0298V23.77006h1.74154V34.3935l.58052,10.85564" transform="translate(-13.51704 -23.77006)"/><rect class="a65a8c93-a646-43b4-afe8-60bb8b5165c0" x="70.08949" y="38.48819" width="12.30693" height="7.77891"/></svg>