<svg id="aa01e9a7-9162-45eb-a6f7-8a39db7ce1c0" data-name="Layer 1" xmlns="http://www.w3.org/2000/svg" viewBox="0 0 96.65957 89.14126"><defs><style>.b9657268-a257-499d-9f7a-6ece92cd7687{fill:#595979;}.a45da0df-89ab-4d08-a9ff-277f87297965{fill:#1f72ec;}</style></defs><path class="b9657268-a257-499d-9f7a-6ece92cd7687" d="M24.69191,96.88732H7.02275a5.35865,5.35865,0,0,1-5.35253-5.35288V57.31379a5.3585,5.3585,0,0,1,5.35253-5.35217H24.69191a5.35851,5.35851,0,0,1,5.35253,5.35217V91.53444A5.35866,5.35866,0,0,1,24.69191,96.88732ZM7.02275,54.885a2.43176,2.43176,0,0,0-2.42914,2.42878V91.53444a2.43214,2.43214,0,0,0,2.42914,2.42949H24.69191a2.43215,2.43215,0,0,0,2.42914-2.42949V57.31379A2.43177,2.43177,0,0,0,24.69191,54.885Z" transform="translate(-1.67022 -7.74678)"/><path class="b9657268-a257-499d-9f7a-6ece92cd7687" d="M54.53318,96.88732H36.86366a5.35835,5.35835,0,0,1-5.35217-5.35288V43.42769a5.3582,5.3582,0,0,1,5.35217-5.35217H54.53318a5.3582,5.3582,0,0,1,5.35217,5.35217V91.53444A5.35835,5.35835,0,0,1,54.53318,96.88732ZM36.86366,40.99891a2.43146,2.43146,0,0,0-2.42878,2.42878V91.53444a2.43184,2.43184,0,0,0,2.42878,2.42949H54.53318A2.43184,2.43184,0,0,0,56.962,91.53444V43.42769a2.43146,2.43146,0,0,0-2.42878-2.42878Z" transform="translate(-1.67022 -7.74678)"/><path class="a45da0df-89ab-4d08-a9ff-277f87297965" d="M84.57786,96.888H66.90548a5.35577,5.35577,0,0,1-5.34931-5.35V43.42662c0-.01534,0-.03069.00071-.046V32.36435H53.49543A1.46165,1.46165,0,0,1,52.462,29.86919L74.17327,8.15788a1.50455,1.50455,0,0,1,2.06693,0l21.66135,21.6617a1.46157,1.46157,0,0,1-1.03347,2.49516H89.93074V48.565c0,.03462-.00142.06888-.00356.10278V91.538A5.35577,5.35577,0,0,1,84.57786,96.888ZM64.47955,47.66539V91.538a2.429,2.429,0,0,0,2.42593,2.42665H84.57786A2.429,2.429,0,0,0,87.00379,91.538V43.42662c0-.03462.00142-.06887.00356-.10278V30.85305a1.46177,1.46177,0,0,1,1.4617-1.4617h4.87041L75.20674,11.25863,57.02441,29.441h5.99416a1.46177,1.46177,0,0,1,1.4617,1.46169V47.61936C64.48027,47.6347,64.48027,47.65005,64.47955,47.66539Z" transform="translate(-1.67022 -7.74678)"/></svg>