<svg id="e52ed790-d0cb-4c78-892b-393622a1d165" data-name="Layer 1" xmlns="http://www.w3.org/2000/svg" viewBox="0 0 94.25906 94.82353"><defs><style>.b8f62aee-cf93-4e47-89df-b6e8bccf24cd{fill:#595979;}.bf594dbb-9cba-41dc-b1a4-5bc9facb54a1{fill:#1f72ec;}</style></defs><path class="b8f62aee-cf93-4e47-89df-b6e8bccf24cd" d="M57.07925,97.41176H42.75486A1.47115,1.47115,0,0,1,41.288,96.05085l-.83271-11.15157-7.18446-3.36744L23.431,89.43661a1.47022,1.47022,0,0,1-1.96093-.107L11.34726,79.20716a1.47054,1.47054,0,0,1-.102-1.967l7.7001-9.48257-2.54013-7.19667L4.14951,58.9479a1.47076,1.47076,0,0,1-1.279-1.45822V42.98108a1.47112,1.47112,0,0,1,1.37168-1.46756l11.90815-.80434,3.57464-7.69471-8.16439-8.94036a1.47074,1.47074,0,0,1,.04632-2.03167L21.91568,11.73363a1.46837,1.46837,0,0,1,1.93867-.12424l9.93681,7.67209,7.0832-3.11645L42.33258,3.88559A1.47048,1.47048,0,0,1,43.793,2.58824h14.016a1.47043,1.47043,0,0,1,1.46648,1.362l.97167,13.08055,7.00348,2.94158L77.28967,11.7286a1.47072,1.47072,0,0,1,1.9735.09695L89.72459,22.28661a1.471,1.471,0,0,1,.056,2.02126L81.473,33.58325l2.994,8.00532,11.30741.89446a1.47039,1.47039,0,0,1,1.35517,1.46612V57.48968a1.47024,1.47024,0,0,1-1.31782,1.46253L84.765,60.10773l-3.14123,7.89974,6.96255,9.55367a1.47054,1.47054,0,0,1-.14866,1.906l-9.17448,9.17376a1.471,1.471,0,0,1-1.89522.15656L67.117,81.46936l-6.93167,2.68807-1.6489,11.98391A1.47115,1.47115,0,0,1,57.07925,97.41176ZM44.11972,94.47019H55.797l1.59251-11.5717a1.47084,1.47084,0,0,1,.92571-1.17059l8.4793-3.28774a1.46762,1.46762,0,0,1,1.38677.17452l9.8833,7.06524,7.4035-7.40278L78.76836,69.084a1.47078,1.47078,0,0,1-.1781-1.40974l3.77033-9.48042a1.47053,1.47053,0,0,1,1.21369-.91924L94.188,56.16467V45.30827L83.3021,44.4472a1.4694,1.4694,0,0,1-1.26181-.95085l-3.63388-9.716a1.47114,1.47114,0,0,1,.28152-1.49664l7.97228-8.90158-8.53388-8.53388L68.4319,22.80871a1.47033,1.47033,0,0,1-1.5031.219l-8.65166-3.63388a1.47008,1.47008,0,0,1-.89734-1.24708l-.93648-12.617h-11.344L43.696,17.3464a1.47053,1.47053,0,0,1-.86789,1.17275l-8.65166,3.8066a1.46713,1.46713,0,0,1-1.49126-.18205L23.0809,14.72835l-8.40031,8.39994,7.87713,8.62581a1.47086,1.47086,0,0,1,.24776,1.61155l-4.35384,9.372a1.47165,1.47165,0,0,1-1.23487.84779L5.81205,44.356V56.19986l11.87152,1.562a1.47048,1.47048,0,0,1,1.195.9688L21.99324,67.555a1.4709,1.4709,0,0,1-.24489,1.41693L14.365,78.06457l8.25236,8.25236,9.52638-7.6527a1.47366,1.47366,0,0,1,1.54512-.18457L42.482,82.60118a1.4698,1.4698,0,0,1,.84276,1.22158ZM42.23563,17.173h0Z" transform="translate(-2.87047 -2.58824)"/><path class="bf594dbb-9cba-41dc-b1a4-5bc9facb54a1" d="M51.01727,74.091A23.53263,23.53263,0,1,1,74.5499,50.55837,23.55935,23.55935,0,0,1,51.01727,74.091Zm0-44.12367a20.59105,20.59105,0,1,0,20.59105,20.591A20.61418,20.61418,0,0,0,51.01727,29.96732Z" transform="translate(-2.87047 -2.58824)"/><path class="bf594dbb-9cba-41dc-b1a4-5bc9facb54a1" d="M60.40433,53.55453H50a1.47086,1.47086,0,0,1-1.47079-1.47079V37.02862a1.47079,1.47079,0,0,1,2.94158,0V50.613h8.93354a1.47079,1.47079,0,0,1,0,2.94158Z" transform="translate(-2.87047 -2.58824)"/></svg>