<svg id="bb019472-7603-4ff3-8119-ae2cc6274a9a" data-name="Layer 1" xmlns="http://www.w3.org/2000/svg" viewBox="0 0 96.2089 75"><defs><style>.e0c816b0-bade-44de-8637-36b6067cfe9d{fill:#1f72ec;}.e68788cf-165a-43a1-b2dd-7a25d605ff6e{fill:#595979;}</style></defs><circle class="e0c816b0-bade-44de-8637-36b6067cfe9d" cx="48.29691" cy="69.95473" r="5.04527"/><path class="e68788cf-165a-43a1-b2dd-7a25d605ff6e" d="M96.35139,37.07546a1.74911,1.74911,0,0,1-1.35123-.63495c-.15928-.19138-16.40417-19.30743-45.34462-19.30743-28.95157,0-44.52513,17.56875-44.67883,17.74643a1.75383,1.75383,0,0,1-2.6546-2.29278C2.99,31.8122,19.03028,13.62565,49.65553,13.62565c30.64619,0,47.34919,19.73734,48.04541,20.57737a1.75346,1.75346,0,0,1-1.34953,2.87246Z" transform="translate(-1.89555 -13.62565)"/><path class="e68788cf-165a-43a1-b2dd-7a25d605ff6e" d="M86.68973,49.47943a1.75166,1.75166,0,0,1-1.29643-.57116c-.13873-.15242-14.272-15.30985-35.39268-15.30985-21.13139,0-34.89087,14.33321-35.02746,14.47835a1.75361,1.75361,0,0,1-2.55563-2.40193C13.0148,45.03819,27.30691,30.091,50.00062,30.091c22.70828,0,37.37073,15.78079,37.98384,16.45257a1.75346,1.75346,0,0,1-1.29473,2.93586Z" transform="translate(-1.89555 -13.62565)"/><path class="e68788cf-165a-43a1-b2dd-7a25d605ff6e" d="M73.84777,61.6235a1.753,1.753,0,0,1-1.45657-.7741c-.28257-.41445-7.16553-10.25251-22.19877-10.25251-15.07391,0-22.44452,9.88088-22.75108,10.30128a1.75349,1.75349,0,0,1-2.84293-2.05342c.34548-.48038,8.66407-11.75531,25.594-11.75531,16.9642,0,24.784,11.31861,25.10849,11.80069a1.75363,1.75363,0,0,1-1.45315,2.73332Z" transform="translate(-1.89555 -13.62565)"/><path class="e68788cf-165a-43a1-b2dd-7a25d605ff6e" d="M65.59559,74.385a1.75264,1.75264,0,0,1-1.42146-.72357,17.79782,17.79782,0,0,0-13.98171-6.38711,20.99707,20.99707,0,0,0-14.90949,6.49247,1.75379,1.75379,0,0,1-2.67681-2.26666h0a24.17955,24.17955,0,0,1,17.5863-7.73323,21.33079,21.33079,0,0,1,16.8212,7.83431,1.75359,1.75359,0,0,1-1.418,2.78383Z" transform="translate(-1.89555 -13.62565)"/></svg>